<svg width="50" height="48" viewBox="0 0 50 48" fill="none" xmlns="http://www.w3.org/2000/svg">
<path fill-rule="evenodd" clip-rule="evenodd" d="M10.4551 18.6653C17.3051 17.9767 11.8042 13.4069 23.6113 22.1084L23.6322 29.1301C19.1876 30.9977 15.1403 32.6044 15.3495 39.0732C15.726 50.8734 33.7243 51.0612 34.174 39.0314C34.3204 35.1606 32.2706 32.0723 29.1436 30.4238C25.9435 28.7336 26.4246 30.9872 26.4873 21.7536C28.9868 20.4077 31.2562 18.0393 33.7557 16.5265C35.7322 17.5803 37.1022 19.0096 40.4279 19.0409C48.3342 19.1035 52.873 10.3186 47.9682 3.91242C42.5091 -3.22406 28.4743 -0.187923 32.051 14.2311C29.4888 15.6814 27.7946 17.9141 24.8977 19.3748C22.2832 17.7576 19.8464 16.1926 17.713 14.2102C23.1721 -2.77542 1.38795 -4.22567 0.0597728 8.21101C-0.599085 14.2937 4.27437 19.2913 10.4551 18.6653Z" fill="white"/>
<path fill-rule="evenodd" clip-rule="evenodd" d="M23.4126 32.3227C14.084 34.5972 18.1627 47.4825 26.8742 44.9681C34.6237 42.7249 31.4967 30.3404 23.4126 32.3227Z" fill="#B5B917"/>
<path fill-rule="evenodd" clip-rule="evenodd" d="M38.3049 3.60986C29.7607 7.1468 34.906 18.3523 42.6659 15.9318C51.137 13.2921 46.5145 0.218982 38.3049 3.60986Z" fill="#2DB9D7"/>
<path fill-rule="evenodd" clip-rule="evenodd" d="M7.87195 3.02558C-1.00695 5.48787 2.72658 18.1124 11.3754 15.6709C18.968 13.5216 16.3325 0.667618 7.87195 3.02558Z" fill="#005480"/>
</svg>
