<svg width="50" height="50" viewBox="0 0 50 50" fill="none" xmlns="http://www.w3.org/2000/svg">
<path d="M44.5736 0H5.42636C2.42946 0 0 2.42946 0 5.42636V44.5736C0 47.5705 2.42946 50 5.42636 50H44.5736C47.5705 50 50 47.5705 50 44.5736V5.42636C50 2.42946 47.5705 0 44.5736 0Z" fill="#290E91"/>
<path d="M17.3201 11.142C17.2395 11.2435 16.6952 11.4058 16.1308 11.5072C15.2641 11.6898 15.0625 11.7913 15.0222 12.197C14.9819 12.4405 15.0827 12.8057 15.2641 13.0086C16.1107 13.9622 15.6672 15.9099 13.5709 20.4343C13.3693 20.8807 12.946 21.7937 12.6639 22.4632C12.3615 23.1328 11.4141 25.1414 10.5474 26.9268C7.64478 32.912 6.85866 34.7989 7.01992 35.3264C7.08039 35.5293 7.50368 35.8539 7.94713 36.0568C8.73325 36.422 8.75341 36.422 9.29765 36.0163C9.70079 35.7119 10.0636 34.9815 10.7086 33.0946C11.1924 31.715 11.7366 30.1933 11.8979 29.7267C12.3817 28.347 12.8049 28.0427 14.2361 28.0224C17.0379 27.9818 19.0939 28.0427 19.235 28.1847C19.3156 28.2862 19.4164 29.5035 19.4567 30.9034C19.5172 33.1352 19.5978 33.5816 20.0211 34.4337C20.6661 35.6916 21.3515 36.1989 22.6214 36.3206C24.2742 36.4829 25.8062 35.9351 27.7412 34.5555C28.7692 33.8048 28.8902 33.4193 28.3056 32.6889C27.9428 32.2222 27.9025 32.2222 27.5397 32.5468C26.9753 33.0744 26.0077 33.2164 25.6852 32.8309C24.9797 31.9788 24.8185 30.4571 24.6572 22.6661C24.496 15.3418 24.2944 12.826 23.8106 11.5478L23.6091 11H20.525C18.852 11 17.4007 11.0609 17.3201 11.142ZM19.3156 20.1909V25.5066L16.8162 25.5675C13.7523 25.6283 13.6515 25.608 14.0547 24.8573C14.357 24.2487 15.6874 21.4285 16.8766 18.8518C17.2798 17.9591 17.6023 17.1273 17.6023 16.9852C17.6023 16.8229 17.6829 16.6606 17.7837 16.5997C17.8845 16.5389 18.0256 16.2345 18.1062 15.9302C18.1667 15.6056 18.3683 15.1389 18.5497 14.8752C19.1947 13.8607 19.3156 14.6317 19.3156 20.1909Z" fill="white"/>
<path d="M33.1231 15.7476C31.9137 16.1534 31.1679 16.6403 30.4221 17.5533C29.1522 19.1156 28.5072 20.6981 28.1645 23.1937C27.8622 25.2428 27.8622 25.608 28.1444 27.0283C28.7088 29.9296 29.9786 31.1875 32.3168 31.1469C33.3247 31.1266 33.8488 31.0049 34.5946 30.5991C35.4008 30.1528 36.1668 29.9296 36.1467 30.1122C36.1265 30.1528 36.0056 30.6194 35.8645 31.1875L35.6024 32.1817L34.2116 32.6077C29.9585 33.9265 28.104 36.422 30.16 38.0857C30.5229 38.3698 30.9059 38.6944 31.047 38.7958C31.3292 39.0393 34.7357 39.0799 34.7357 38.8364C34.7357 38.7553 35.1993 38.4712 35.7637 38.2075C36.3079 37.9437 37.1747 37.2742 37.6383 36.7264C38.767 35.4685 40.2183 32.6483 40.7626 30.5788C41.0045 29.6861 41.2867 28.6717 41.3874 28.347C41.4681 28.0021 41.6092 27.2717 41.6696 26.7239C41.7503 26.1558 41.8914 25.3037 41.9922 24.7965C42.1131 24.2893 42.2744 22.8893 42.3751 21.6517C42.4759 20.3329 42.6372 19.3996 42.7783 19.359C42.9194 19.3185 43 18.6692 43 17.5736C43 15.5447 42.9798 15.5244 40.4804 15.8693C38.243 16.194 37.8197 16.1737 36.5498 15.8085C35.2799 15.423 34.131 15.4027 33.1231 15.7476ZM37.5375 17.8779C37.7592 18.02 37.7592 18.4866 37.477 20.759C36.9529 24.9994 36.6304 27.1297 36.3885 27.5761C36.1063 28.1036 34.4333 28.6108 33.9495 28.3065C33.2239 27.8601 33.103 27.2109 33.2037 24.5936C33.3247 21.4285 33.9092 19.359 34.9977 18.1417C35.3202 17.7968 35.6226 17.6953 36.3281 17.6953C36.832 17.6953 37.3762 17.7765 37.5375 17.8779ZM34.9372 34.5149C34.9372 35.4076 32.1959 37.2945 31.5106 36.8684C31.1477 36.6452 31.309 35.8337 31.8129 35.3467C32.9215 34.2917 34.9372 33.7439 34.9372 34.5149Z" fill="white"/>
</svg>
