<?xml version="1.0" encoding="UTF-8"?>
<!DOCTYPE svg PUBLIC "-//W3C//DTD SVG 1.1//EN" "http://www.w3.org/Graphics/SVG/1.1/DTD/svg11.dtd">
<!-- Creator: CorelDRAW -->
<svg xmlns="http://www.w3.org/2000/svg" xml:space="preserve" width="354px" height="405px" version="1.1" shape-rendering="geometricPrecision" text-rendering="geometricPrecision" image-rendering="optimizeQuality" fill-rule="evenodd" clip-rule="evenodd"
viewBox="0 0 247.43 283.12"
 xmlns:xlink="http://www.w3.org/1999/xlink"
 xmlns:xodm="http://www.corel.com/coreldraw/odm/2003">
 <g id="Capa_x0020_1">
  <metadata id="CorelCorpID_0Corel-Layer"/>
  <path fill="#08453F" fill-rule="nonzero" d="M244.4 229.47c-25.91,33.65 -66.21,54.78 -111.03,53.61 -75.72,-1.99 -135.37,-66.95 -133.32,-145.11 2.05,-78.19 65.02,-139.91 140.74,-137.92 43.92,1.15 82.5,23.48 106.64,57.37l-44.01 23.31c-15.67,-18.28 -38.41,-30.07 -63.94,-30.74 -48.95,-1.29 -89.75,38.69 -91.07,89.24 -1.34,50.62 37.32,92.61 86.27,93.9 27.41,0.71 52.2,-11.42 68.96,-31.13l40.76 27.47z"/>
  <path fill="#0ECBB7" fill-rule="nonzero" stroke="#0AF3DB" stroke-width="0.55" stroke-miterlimit="22.9256" d="M203.64 202c-16.77,19.71 -41.55,31.84 -68.96,31.13 -48.95,-1.29 -87.61,-43.28 -86.27,-93.9 1.32,-50.55 42.12,-90.53 91.07,-89.24 25.53,0.67 48.27,12.46 63.94,30.74l-45.91 24.24c-5.69,-3.33 -12.3,-5.38 -19.33,-5.57 -22.55,-0.6 -41.32,17.77 -41.93,41.09 -0.61,23.31 17.17,42.64 39.72,43.23 10.13,0.26 19.39,-3.3 26.71,-9.3l40.96 27.58z"/>
 </g>
</svg>
