<svg width="31" height="30" viewBox="0 0 31 30" fill="none" xmlns="http://www.w3.org/2000/svg">
<path d="M15.047 30C6.737 30 0 23.284 0 15C0 6.716 6.737 0 15.047 0C23.357 0 30.094 6.716 30.094 15C30.094 23.284 23.358 30 15.047 30ZM24.3 15.111C24.328 12.758 22.968 10.245 21.179 8.444C18.058 5.356 13.621 5.521 10.255 7.111C13.153 7.353 14.835 8.325 16.497 10C18.193 11.673 18.726 12.95 18.727 15.111H15.828L21.402 21.333L26.975 15.111H24.3ZM5.796 14.89C5.767 17.243 7.128 19.756 8.916 21.557C12.038 24.645 16.474 24.48 19.84 22.89C16.942 22.648 15.261 21.676 13.598 20.001C11.903 18.328 11.369 17.051 11.369 14.89H14.267L8.694 8.667L3.121 14.889H5.796V14.89Z" fill="#FF3333"/>
</svg>
