<svg width="50" height="50" viewBox="0 0 50 50" fill="none" xmlns="http://www.w3.org/2000/svg">
<g clip-path="url(#clip0_24_44)">
<path d="M44.5736 0H5.42636C2.42946 0 0 2.42946 0 5.42636V44.5736C0 47.5705 2.42946 50 5.42636 50H44.5736C47.5705 50 50 47.5705 50 44.5736V5.42636C50 2.42946 47.5705 0 44.5736 0Z" fill="#370B60"/>
<path d="M38.4416 27.3203C38.4155 26.612 38.2462 25.9323 37.9337 25.2812C34.8869 18.875 27.4259 16.6719 21.6369 20.6953C20.0796 21.7786 18.6056 22.9739 17.215 24.2812C17.0431 24.4479 16.8374 24.526 16.5978 24.5156C15.9207 24.4844 15.6134 24.1484 15.6759 23.5078C15.728 23.0026 16.0353 22.138 16.5978 20.914C16.7072 20.6693 16.6759 20.4453 16.5041 20.2422C12.4884 15.4453 16.9103 10.3047 21.7462 8.66404C24.5587 7.71092 27.5587 7.78383 30.7462 8.88279C30.9962 8.97133 31.2462 8.96873 31.4962 8.87498C35.4806 7.3854 38.8348 8.21352 41.5587 11.3594C41.6341 11.4456 41.6829 11.5518 41.6993 11.6652C41.7156 11.7786 41.6989 11.8942 41.651 11.9983C41.6031 12.1023 41.5261 12.1903 41.4293 12.2516C41.3326 12.3129 41.2202 12.3449 41.1056 12.3437C39.9285 12.3333 38.8348 12.6328 37.8244 13.2422C37.7804 13.2685 37.7426 13.3041 37.7139 13.3465C37.6851 13.389 37.6659 13.4372 37.6577 13.4878C37.6495 13.5384 37.6525 13.5902 37.6664 13.6395C37.6804 13.6889 37.705 13.7346 37.7384 13.7734C44.3009 21.539 42.6759 32.8437 34.3478 38.2734C27.7228 42.5937 18.3634 41.0781 13.5509 34.8047C12.728 33.7318 12.827 33.638 13.8478 34.5234C21.6759 41.3203 32.4337 34.0859 31.215 24.3203C31.1785 24.0443 31.2905 23.8541 31.5509 23.75C34.2541 22.664 37.1134 25.1406 38.2306 27.375C38.3869 27.6875 38.4572 27.6692 38.4416 27.3203Z" fill="white"/>
<path d="M9.50024 31C8.5373 31 7.70358 30.6693 7.00006 30.0079C6.33319 29.3097 6 28.4829 6 27.5276C6 26.5354 6.33319 25.7087 7.00006 25.0473C7.70358 24.3491 8.5373 24 9.50024 24C10.4998 24 11.3336 24.3491 11.9999 25.0473C12.6668 25.7087 13 26.5354 13 27.5276C13 28.4829 12.6668 29.3097 11.9999 30.0079C11.3336 30.6693 10.4998 31 9.50024 31Z" fill="#5E0BF8"/>
</g>
<defs>
<clipPath id="clip0_24_44">
<rect width="50" height="50" fill="white"/>
</clipPath>
</defs>
</svg>
