<svg width="50" height="50" viewBox="0 0 50 50" fill="none" xmlns="http://www.w3.org/2000/svg">
<path d="M23.2676 43.3581C23.1921 43.8288 23.1137 44.2588 23.0528 44.6888C22.986 45.1711 22.6987 45.4529 22.2749 45.6592C20.6873 46.4233 19.4131 45.8887 18.9371 44.1949C18.7456 43.5092 18.6411 42.7916 18.5627 42.0827C18.5192 41.6992 18.4089 41.4784 18.0461 41.3011C14.7199 39.6625 11.771 37.5096 9.29234 34.7408C8.7612 34.1481 8.27939 33.509 7.80629 32.8698C6.68305 31.3503 6.8572 29.7494 8.27939 28.4943C9.362 27.5414 10.6536 26.9458 11.9771 26.4228C14.1423 25.5657 16.383 24.973 18.6846 24.6273C18.821 24.6069 18.9545 24.5634 19.1142 24.5256C19.21 23.4768 19.2419 22.4279 19.4102 21.4023C19.6714 19.8073 20.0052 18.221 20.3477 16.6405C20.4348 16.2482 20.577 15.7747 21.0791 15.702C21.5522 15.6323 21.7699 16.0478 22.0427 16.3441C22.9164 17.2883 23.224 18.4505 23.3256 19.6853C23.4475 21.1786 23.5433 22.672 23.6536 24.2263C23.8132 24.2263 23.999 24.2293 24.1818 24.2263C27.3571 24.1886 30.454 24.7203 33.4957 25.5831C34.9644 25.9986 36.3024 26.7104 37.3821 27.8319C38.4008 28.8894 38.842 30.1213 38.3631 31.5595C37.8668 33.0499 36.7784 33.9535 35.2691 34.2556C34.3171 34.4474 33.4348 34.0145 32.6105 33.5525C32.3348 33.3986 32.3202 33.1226 32.5989 32.9482C32.9646 32.7158 33.3709 32.5444 33.7482 32.3294C34.0588 32.1522 34.3839 31.9866 34.6451 31.7512C35.0224 31.4113 35.0137 30.9581 34.5899 30.6762C34.1169 30.3596 33.6002 30.04 33.0575 29.9063C31.4263 29.5083 29.7864 29.1248 28.1262 28.8778C26.5589 28.6425 24.9626 28.5844 23.3169 28.442C23.2879 29.0405 23.2414 29.578 23.2414 30.1155C23.2356 33.1487 23.2414 36.1848 23.2327 39.218C23.2327 39.5492 23.2937 39.6945 23.6681 39.7642C26.0539 40.2087 28.4513 40.5458 30.8777 40.386C34.4564 40.1506 37.9307 39.465 41.0334 37.5242C43.036 36.272 44.4408 34.5491 44.8878 32.1754C45.3144 29.8976 44.7804 27.7738 43.7065 25.7662C42.3249 23.1891 40.3687 21.0915 38.128 19.2611C31.8646 14.1477 24.7536 10.792 16.8474 9.12138C13.9682 8.51126 11.0599 8.18005 8.11395 8.23815C6.45957 8.27011 4.81098 8.41247 3.20884 8.8599C2.96213 8.92963 2.72704 9.04003 2.48904 9.1301C2.48904 9.17658 2.48613 9.22307 2.48613 9.26956C2.61384 9.32185 2.74155 9.38286 2.87216 9.42354C3.39169 9.58624 3.92284 9.71989 4.43077 9.91164C4.5933 9.97265 4.8284 10.2196 4.80228 10.3184C4.75003 10.5101 4.56137 10.76 4.38142 10.8065C3.18272 11.1232 1.9724 11.1697 0.808528 10.6554C0.056798 10.3242 -0.218933 9.68502 0.187408 8.9703C0.63148 8.19167 1.20616 7.48276 1.76633 6.77966C1.93757 6.56467 2.24523 6.41649 2.51806 6.33224C5.99518 5.25435 9.55356 4.79821 13.1874 5.08293C23.2676 5.8761 32.3028 9.42063 40.3281 15.548C43.2914 17.8113 45.863 20.461 47.7728 23.7005C48.8525 25.5309 49.6826 27.4658 49.9293 29.5867C50.1905 31.8268 49.7116 33.968 48.7596 35.996C47.3578 38.9769 44.9458 40.8857 42.0202 42.2105C39.2803 43.4511 36.3953 44.1106 33.397 44.3343C30.0476 44.5842 26.765 44.2181 23.523 43.3872C23.4417 43.3814 23.3633 43.3756 23.2676 43.3581ZM18.3653 38.3522C18.4263 38.3115 18.4872 38.2679 18.5482 38.2273C18.7136 35.0169 18.8762 31.8064 19.0416 28.5757C18.7427 28.5757 18.5714 28.567 18.4031 28.5786C16.1479 28.7297 13.8985 28.9301 11.7014 29.4909C10.8771 29.7029 10.0528 29.9557 9.26912 30.2811C8.43322 30.6298 8.32003 31.3125 8.90632 32.0127C8.96727 32.0853 9.03402 32.1493 9.09498 32.219C10.6739 33.9564 12.5024 35.3829 14.5574 36.4986C15.7967 37.1697 17.0941 37.7363 18.3653 38.3522Z" fill="#005ECA"/>
</svg>
