<svg width="50" height="47" viewBox="0 0 50 47" fill="none" xmlns="http://www.w3.org/2000/svg">
<path fill-rule="evenodd" clip-rule="evenodd" d="M13.6644 3H26.5265C37.2372 3 46 12.2262 46 23.5035C46 34.7807 37.2372 44 26.5265 44H13.6644C8.89602 44 5 39.8979 5 34.8843V12.1226C5 7.10207 8.89602 3 13.6644 3ZM31.1571 8.89069C37.2372 8.89069 42.4254 12.7856 44.4718 18.2619L39.4804 21.5974C38.6409 17.6887 35.2368 14.7607 31.1571 14.7607C26.4543 14.7607 22.6436 18.6625 22.6436 23.4758C22.6436 28.2892 26.4543 32.191 31.1571 32.191C35.2171 32.191 38.6146 29.2836 39.4673 25.3957L44.4586 28.7312C42.3926 34.1868 37.2176 38.0541 31.1571 38.0541C23.2864 38.0541 16.9111 31.528 16.9111 23.4758C16.9111 15.4167 23.2864 8.89069 31.1571 8.89069Z" fill="#E6E7E8"/>
</svg>
