<svg width="50" height="50" viewBox="0 0 50 50" fill="none" xmlns="http://www.w3.org/2000/svg">
<path fill-rule="evenodd" clip-rule="evenodd" d="M41.1473 19.7218C41.1473 19.7218 45.75 22.2543 45.75 24.9847C45.75 27.7152 41.1473 30.2477 41.1473 30.2477C41.1473 30.2477 43.393 34.9997 41.7887 37.2084C40.1859 39.4148 34.9789 38.7552 34.9789 38.7552C34.9789 38.7552 34.0114 43.9284 31.4137 44.7727C28.8213 45.6153 25 42.0186 25 42.0186C25 42.0186 21.1821 45.633 18.5863 44.7916C15.988 43.9492 15.0211 38.7741 15.0211 38.7741C15.0211 38.7741 9.81695 39.4316 8.21135 37.2272C6.59985 35.0147 8.85275 30.2477 8.85275 30.2477C8.85275 30.2477 4.25484 27.7152 4.25 24.9847C4.24515 22.2488 8.85275 19.7029 8.85275 19.7029C8.85275 19.7029 6.59635 14.9333 8.21135 12.7234C9.8195 10.5228 15.0211 11.1954 15.0211 11.1954C15.0211 11.1954 15.9886 6.02221 18.5863 5.17791C21.1787 4.33531 25 7.93201 25 7.93201C25 7.93201 28.821 4.33618 31.4137 5.17791C34.0177 6.02331 34.9789 11.2143 34.9789 11.2143C34.9789 11.2143 40.1859 10.5546 41.7887 12.7611C43.393 14.9697 41.1473 19.7218 41.1473 19.7218ZM19.9295 31.9382V18.0016C19.9295 16.9389 21.0942 16.2932 21.9912 16.8716L32.8888 23.8265C33.7188 24.3646 33.7188 25.5753 32.8888 26.0999L21.9912 33.0682C21.0942 33.6466 19.9295 33.0009 19.9295 31.9382Z" fill="#E91E63"/>
</svg>
