<svg width="50" height="39" viewBox="0 0 50 39" fill="none" xmlns="http://www.w3.org/2000/svg">
<path d="M0 38.3333L24.1667 0H39.1667V5.33333L18.3333 38.3333" fill="#FBBC04"/>
<path d="M39.1667 38.3333H24.1667V0H39.1667V38.3333Z" fill="#1A73E8"/>
<g opacity="0.999998">
<path d="M50 27.5C50 33.4833 45.15 38.3333 39.1667 38.3333V16.6667C45.15 16.6667 50 21.5167 50 27.5Z" fill="#34A853"/>
</g>
<g opacity="0.999998">
<path d="M39.1667 38.3333C33.1833 38.3333 28.3333 33.4833 28.3333 27.5C28.3333 21.5167 33.1833 16.6667 39.1667 16.6667V38.3333Z" fill="#0D652D"/>
</g>
<g opacity="0.999997">
<path d="M47.5 8.33333C47.5 12.935 43.77 16.6667 39.1667 16.6667V0C43.77 0 47.5 3.73167 47.5 8.33333Z" fill="#1A73E8"/>
</g>
<g opacity="0.999997">
<path d="M39.1667 16.6667C34.5633 16.6667 30.8333 12.935 30.8333 8.33333C30.8333 3.73167 34.5633 0 39.1667 0V16.6667Z" fill="#174EA6"/>
</g>
<g opacity="0.999999">
<path d="M0.833334 7.5C0.833334 3.35833 4.19167 0 8.33333 0C12.475 0 15.8333 3.35833 15.8333 7.5C15.8333 11.6417 12.475 15 8.33333 15C4.19167 15 0.833334 11.6417 0.833334 7.5Z" fill="#EA4335"/>
</g>
</svg>
