<svg width="50" height="49" viewBox="0 0 50 49" fill="none" xmlns="http://www.w3.org/2000/svg">
<path d="M30.6065 0.0808219C30.525 0.090925 30.2344 0.126286 29.9694 0.156595C28.1651 0.358657 26.0448 1.09618 24.4546 2.07618C24.1233 2.27824 24.0316 2.31361 23.9296 2.27319C23.8634 2.24794 23.5627 2.17721 23.2569 2.1166C22.7727 2.01556 22.5076 2.00041 21.0448 1.9802C19.159 1.96 18.9347 1.98525 18.4658 2.3035C17.5025 2.9602 17.4159 4.53123 18.3027 5.32433C18.7818 5.75371 18.894 5.77392 20.8461 5.80928C22.3649 5.83959 22.5994 5.85474 22.946 5.95072C23.42 6.07701 23.9959 6.33969 24.3986 6.60237C24.7961 6.86 25.4485 7.48134 25.7186 7.8602C26.0346 8.29969 26.3812 9.04227 26.5137 9.57773C26.6717 10.2193 26.6717 11.2599 26.5137 11.8913C26.0499 13.72 24.6891 15.0738 22.8083 15.5739C22.4006 15.68 22.3904 15.68 13.9653 15.7103L5.53005 15.7356L5.18856 15.8972C4.77572 16.0892 4.44442 16.4125 4.24565 16.8115C4.11823 17.0742 4.10294 17.15 4.10294 17.6299C4.10803 18.0643 4.12842 18.2007 4.22016 18.4028C4.41894 18.8372 4.93372 19.2919 5.41282 19.4636C5.54024 19.5091 7.65034 19.5293 13.9144 19.5495L22.2477 19.5747L22.7574 19.7162C24.5566 20.2112 25.8562 21.464 26.3863 23.2119C26.5137 23.6311 26.5239 23.7372 26.5239 24.5253C26.5239 25.5406 26.4475 25.8892 26.0499 26.6974C25.3619 28.0866 24.2049 29.0009 22.635 29.3848C22.3343 29.4606 21.4679 29.4707 13.9653 29.496L5.63199 29.5263L5.34147 29.6425C4.92862 29.8092 4.52597 30.188 4.3221 30.6023C4.16919 30.9104 4.1539 30.9761 4.1539 31.4206C4.1539 31.8652 4.16919 31.9308 4.3221 32.239C4.52597 32.6532 4.92862 33.0321 5.34147 33.1988L5.63199 33.3149L14.0673 33.3402L22.5025 33.3655L22.9103 33.4766C23.7818 33.7191 24.7655 34.3152 25.3415 34.9516C26.2997 36.0074 26.7686 37.437 26.6055 38.806C26.3608 40.8923 24.9184 42.5441 22.844 43.0998C22.5025 43.1907 22.2477 43.2109 20.7951 43.2362C19.2456 43.2715 19.1182 43.2816 18.8481 43.3877C18.4454 43.5443 18.0836 43.8777 17.8797 44.292C17.7217 44.6052 17.7115 44.6607 17.7115 45.1608C17.7115 45.6508 17.7217 45.7165 17.8695 46.0196C18.0734 46.4338 18.3384 46.6965 18.7564 46.8986L19.0876 47.0552H20.7186C21.8043 47.0552 22.4923 47.0349 22.7829 46.9895C23.4098 46.8935 24.3068 46.6561 24.8165 46.4439C25.056 46.3479 25.2905 46.257 25.3313 46.2469C25.3771 46.2318 25.5046 46.3429 25.6575 46.5348C26.5341 47.6058 28.1294 48.5151 29.7298 48.8586C30.474 49.0152 31.8603 49.0152 32.6045 48.8586C34.0112 48.5555 35.1937 47.9392 36.2028 46.9844C36.9827 46.2419 37.5433 45.4589 37.9001 44.6052C38.002 44.3526 38.104 44.1505 38.1243 44.1505C38.1396 44.1505 38.318 44.2061 38.5117 44.2718C39.4087 44.5748 39.7604 44.6254 40.8766 44.6304C41.789 44.6304 41.9877 44.6153 42.4516 44.5142C43.1243 44.3627 43.5729 44.2061 44.2049 43.8929C44.949 43.5292 45.423 43.1857 46.0805 42.534C47.1712 41.458 47.788 40.3214 48.1192 38.7959C48.2823 38.0482 48.2823 36.7298 48.1243 35.9822C47.9409 35.1487 47.4923 34.0272 47.1305 33.5271L47.0285 33.3806L47.2273 33.2291C47.3394 33.1432 47.635 32.8603 47.8899 32.6027C48.8583 31.6277 49.5209 30.3749 49.8318 28.9454C49.9592 28.3392 49.9592 26.7782 49.8318 26.167C49.6891 25.5154 49.4138 24.7374 49.1233 24.1868C48.843 23.6513 48.211 22.7875 47.8389 22.4339L47.6096 22.2116L47.9816 21.8025C48.9144 20.777 49.475 19.7263 49.7808 18.4432C49.949 17.7107 49.9949 16.463 49.8777 15.7356C49.4597 13.23 47.8848 11.1942 45.5708 10.1789L45.0917 9.9667L44.8522 9.28979C44.4291 8.09257 43.9806 7.19845 43.2416 6.11237C40.9531 2.72278 37.1967 0.510203 33.0581 0.10608C32.5484 0.0555641 30.9735 0.0404095 30.6065 0.0808219ZM33.1243 3.97051C35.999 4.38474 38.4811 5.93556 40.0917 8.31484C40.4077 8.78969 40.9021 9.69392 40.8613 9.73433C40.8461 9.74948 40.6014 9.83536 40.316 9.93134C39.2355 10.29 38.3027 10.8558 37.4516 11.659L37.212 11.8863L36.8705 11.5731C35.632 10.4264 34.1335 9.75453 32.4312 9.59288C31.8348 9.53227 31.6004 9.54237 30.4587 9.66361C30.3771 9.67371 30.3517 9.61814 30.2905 9.26959C30.0204 7.70361 29.3119 6.20835 28.2671 5.00103C28.0479 4.74845 27.9612 4.61206 27.9969 4.5868C28.0938 4.52618 29.0876 4.21299 29.4852 4.12206C30.5046 3.88464 32.0795 3.81897 33.1243 3.97051ZM32.7981 13.5381C33.8991 13.8715 34.74 14.6899 35.1121 15.7962C35.1733 15.978 35.2395 16.362 35.265 16.6853C35.2956 17.0389 35.3568 17.3622 35.423 17.544C35.5759 17.9431 35.9531 18.3422 36.3812 18.5493C36.6921 18.7008 36.7584 18.716 37.2069 18.716C37.6503 18.716 37.7217 18.7008 38.0275 18.5543C38.4302 18.3573 38.792 17.9936 38.9704 17.6046C39.0673 17.3975 39.108 17.1904 39.1437 16.756C39.2202 15.8416 39.4546 15.2355 39.9643 14.6293C40.8002 13.6392 42.1203 13.1896 43.3486 13.4826C44.4546 13.7453 45.2803 14.3818 45.7441 15.3314C45.9786 15.8113 46.0754 16.2458 46.0754 16.8469C46.0754 17.4632 45.9939 17.8168 45.7084 18.3876C45.5402 18.7362 45.4128 18.9029 45.0611 19.2464C44.3833 19.9182 43.7105 20.2112 42.6605 20.282C42.0285 20.3274 41.7125 20.4487 41.3354 20.7972C40.4944 21.5651 40.4791 22.8128 41.2946 23.5705C41.6565 23.909 41.9979 24.0454 42.6249 24.1009C43.3129 24.1666 43.6697 24.2575 44.1896 24.5051C44.7655 24.7879 45.3975 25.4042 45.683 25.9649C46.1926 26.9803 46.2028 28.0765 45.7084 29.0969C45.5351 29.4505 45.423 29.6021 45.0357 29.9809C44.3068 30.6982 43.6085 30.9862 42.6096 30.9862C41.6565 30.9862 40.8766 30.6629 40.1886 29.9809C39.6483 29.4505 39.4087 28.9908 39.1743 28.0714C38.792 26.5711 38.2161 25.5457 37.1814 24.5253C36.1009 23.4493 34.7961 22.7724 33.2671 22.4945C32.6452 22.3783 31.3303 22.3834 30.7594 22.4996C30.1937 22.6107 30.1886 22.6107 30.1478 22.3935C30.0866 22.0601 29.8114 21.3024 29.5566 20.7619C29.0775 19.7616 28.1345 18.519 27.3853 17.9128L27.0744 17.6653L27.7472 17.0035C28.5372 16.2256 28.9602 15.6497 29.4597 14.6848C29.8063 14.0281 29.8369 13.9827 30.0866 13.8412C30.3822 13.6745 30.8664 13.5028 31.2334 13.4371C31.6106 13.3664 32.3955 13.4169 32.7981 13.5381ZM33.053 26.3893C33.9704 26.6772 34.6789 27.2783 35.1121 28.1321C35.2039 28.3089 35.3568 28.7585 35.4536 29.1272C35.5504 29.496 35.6881 29.9506 35.7543 30.1325C36.5239 32.1581 38.211 33.7595 40.2905 34.4465C41.0907 34.7092 41.7125 34.8153 42.5535 34.8304L43.2416 34.8456L43.4403 35.0375C44.2151 35.7953 44.5617 37.0278 44.317 38.1594C43.9755 39.7658 42.2885 41.0085 40.6728 40.8468C39.5209 40.7306 38.6952 40.2356 37.9511 39.2152C37.737 38.9121 37.2783 38.5888 36.9368 38.4978C36.5647 38.3918 35.9123 38.4423 35.5657 38.6039C35.1886 38.7757 34.842 39.1293 34.6534 39.5182C34.4546 39.9476 34.4189 40.3265 34.5362 40.867C34.6483 41.4025 34.6483 42.0996 34.5362 42.534C34.4903 42.7159 34.3578 43.0543 34.2456 43.2918C33.9602 43.8626 33.3384 44.489 32.7727 44.7719C31.4169 45.4437 29.8573 45.2265 28.8022 44.2212L28.42 43.8626L28.6748 43.514C29.9694 41.746 30.5708 39.6698 30.3873 37.5936C30.1682 35.1386 29.0775 33.0775 27.1203 31.4358C27.105 31.4257 27.319 31.2135 27.5892 30.966C28.6799 29.9456 29.5005 28.6877 29.9541 27.3289C30.1325 26.7934 30.1529 26.758 30.3517 26.6469C31.0958 26.2125 32.1712 26.1114 33.053 26.3893Z" fill="#FAA142"/>
<path d="M12.2477 8.86041C11.3048 9.15846 10.7136 10.1182 10.9072 11.0427C11.0754 11.8459 11.6718 12.4268 12.4822 12.5784C12.8339 12.644 20.8104 12.6491 21.2131 12.5834C21.8451 12.4773 22.3955 12.0631 22.6708 11.4771C22.7931 11.2245 22.8084 11.1286 22.8084 10.684C22.8084 10.2395 22.7931 10.1435 22.6708 9.89093C22.4975 9.51712 22.0999 9.12309 21.7227 8.95134L21.4322 8.81495L16.947 8.80485C13.3384 8.79474 12.421 8.8099 12.2477 8.86041Z" fill="#FAA142"/>
<path d="M1.50356 22.7016C0.728842 22.8936 0.198771 23.4644 0.0458655 24.2777C-0.101943 25.0708 0.37716 25.9397 1.17227 26.3135L1.45259 26.4448L11.2895 26.46C20.158 26.4701 21.1468 26.4651 21.4067 26.3893C22.2375 26.1519 22.788 25.4295 22.7931 24.5657C22.7931 23.7524 22.3343 23.0805 21.5698 22.7724L21.2793 22.6562L11.5189 22.6461C3.87869 22.641 1.70234 22.6511 1.50356 22.7016Z" fill="#FAA142"/>
<path d="M12.5382 36.5277C11.9674 36.6389 11.4322 37.0682 11.1723 37.6239C11.05 37.8765 11.0347 37.9725 11.0347 38.417C11.0347 38.8666 11.05 38.9525 11.1774 39.2101C11.3762 39.6092 11.7075 39.9325 12.1203 40.1244L12.4618 40.2861L16.8196 40.3012C21.0551 40.3113 21.1876 40.3113 21.5087 40.2103C22.105 40.0284 22.5892 39.5435 22.7625 38.9575C22.8848 38.5433 22.8389 37.9472 22.6606 37.5734C22.4822 37.1996 22.0184 36.7753 21.6259 36.6136L21.3303 36.4974L17.0489 36.4873C14.6942 36.4873 12.6657 36.5025 12.5382 36.5277Z" fill="#FAA142"/>
</svg>
