<svg width="50" height="50" viewBox="0 0 50 50" fill="none" xmlns="http://www.w3.org/2000/svg">
<path d="M17.3762 2.63846C21.0544 2.37954 24.2996 4.94046 24.7731 8.4755C25.2227 11.8336 22.9244 15.0816 19.471 15.8421C18.6055 16.0326 17.6435 15.9796 16.7275 16.0959C14.4984 16.379 12.5898 17.3092 11.0015 18.8866L10.985 18.8951L10.9664 18.8935L10.9517 18.8824L10.9457 18.8653C10.9451 18.8527 10.9484 18.8416 10.9554 18.8319C10.9655 18.8177 10.9705 18.802 10.9705 18.7849C10.9487 16.1804 10.9419 13.0271 10.9501 9.32485C10.9572 5.82656 13.7211 2.89481 17.3762 2.63846Z" fill="#5A94FF"/>
<path d="M17.7633 31.8844C13.0816 31.8477 9.72567 27.2413 11.3541 22.9252C12.2524 20.5428 14.4702 18.8056 17.0987 18.5322C17.8979 18.4493 18.8581 18.4706 19.6289 18.3271C23.5875 17.5914 26.6452 14.5639 27.264 10.7093C27.401 9.85396 27.3294 8.83454 27.5313 7.92708C28.4658 3.72725 33.2783 1.37056 37.3202 3.26925C39.4275 4.26046 40.84 6.13179 41.1896 8.36715C41.2615 8.82571 41.2848 9.39367 41.2594 10.071C40.801 22.2406 30.4075 31.9852 17.7633 31.8844Z" fill="#FAFAFA"/>
<path d="M23.6598 33.8202C23.6385 33.8104 23.6242 33.7963 23.6164 33.7775L23.6146 33.7656L23.6179 33.7542L23.6256 33.745C23.6289 33.7425 23.6327 33.7408 23.6369 33.7398C28.44 32.6404 32.6014 30.4288 36.1208 27.1046C36.1839 27.0448 36.2414 27.0494 36.2933 27.1183C36.8579 27.8617 37.4475 28.6606 37.92 29.4238C39.8617 32.5581 40.9619 35.9529 41.2202 39.6085C41.2721 40.3456 41.2883 40.915 41.2689 41.3167C41.0946 44.8688 38.1219 47.7346 34.3746 47.756C31.0567 47.774 28.1398 45.5104 27.5096 42.3438C27.361 41.5944 27.4069 40.556 27.2804 39.764C26.8898 37.3269 25.6989 35.3546 23.7077 33.8467C23.6987 33.8392 23.6829 33.8304 23.6598 33.8202Z" fill="#9DFBF0"/>
<path d="M16.6407 47.6542C13.8228 47.1638 11.5554 44.9754 11.051 42.2529C10.9819 41.8804 10.9474 41.3127 10.9474 40.55C10.9468 37.5473 10.9462 34.5444 10.9456 31.541C10.9456 31.5115 10.9569 31.5067 10.9793 31.5265C12.8219 33.1646 14.7583 34.1652 17.2876 34.3319C17.2876 34.3319 17.5165 34.3398 17.9673 34.354C21.2604 34.4592 24.05 36.6175 24.6933 39.7527C25.6456 44.3883 21.449 48.4908 16.6407 47.6542Z" fill="#FF7474"/>
</svg>
