<svg width="50" height="50" viewBox="0 0 50 50" fill="none" xmlns="http://www.w3.org/2000/svg">
<g clip-path="url(#clip0_32_4)">
<path d="M44.5736 0H5.42636C2.42946 0 0 2.42946 0 5.42636V44.5736C0 47.5705 2.42946 50 5.42636 50H44.5736C47.5705 50 50 47.5705 50 44.5736V5.42636C50 2.42946 47.5705 0 44.5736 0Z" fill="#FFCE0C"/>
<path d="M32.74 7H28.375L32.25 14.212L24.055 7H19.6862L23.5637 16.45L15.3675 7H11L14.8125 19.1965L11 43H15.3675L23.5625 17.4775L19.6862 43H24.0537L32.25 15.241L28.3738 43H32.74L41 12.508L32.74 7Z" fill="black"/>
</g>
<defs>
<clipPath id="clip0_32_4">
<rect width="50" height="50" fill="white"/>
</clipPath>
</defs>
</svg>
