<svg width="50" height="50" viewBox="0 0 50 50" fill="none" xmlns="http://www.w3.org/2000/svg">
<g clip-path="url(#clip0_1_5)">
<path d="M39.385 6.17809C40.9303 5.83776 42.6299 5.95358 43.9977 6.80174C45.8322 7.88154 46.98 9.80058 47.7411 11.7374C49.1232 15.2334 49.7707 18.9896 49.9144 22.7368C50.1664 25.7855 49.8488 28.8538 49.3627 31.8652C49.1604 33.2479 48.6051 34.7286 47.3544 35.4823C46.3183 36.1541 44.7553 35.9492 44.0563 34.8872C43.2899 33.7842 43.4105 32.3641 43.5116 31.0936C43.7813 28.6169 44.0705 26.1276 43.9747 23.6313C43.9019 22.6887 43.7973 21.6908 43.265 20.8854C42.7328 20.121 41.7411 19.6488 40.8203 19.868C39.8286 20.1424 39.0142 20.848 38.3809 21.6392C37.4033 22.8259 36.7345 24.2264 36.1437 25.6376C34.8735 28.6792 33.9917 31.8616 32.9787 34.9941C32.2921 37.0147 31.1159 38.9551 29.2974 40.1347C27.9633 40.9989 26.3878 41.4159 24.8195 41.5602C23.5102 41.619 22.1583 41.6849 20.9005 41.2501C18.3866 40.5178 16.4386 38.5168 15.2109 36.261C13.8377 33.9321 12.5107 31.5801 11.1765 29.2387C10.623 28.2837 10.0908 27.2876 9.29598 26.5072C8.79923 26.0189 8.06474 25.6929 7.37993 25.9833C6.40062 26.2488 6.04047 27.3464 6.00321 28.2605C5.89499 30.4611 6.61883 32.5832 7.22203 34.6751C7.73653 36.4427 8.41069 38.1836 8.62714 40.0207C8.69987 40.8457 8.53311 41.7793 7.90329 42.3656C7.07478 43.2137 5.63952 43.1585 4.69924 42.5331C3.92749 41.9647 3.468 41.0809 3.06882 40.2309C1.75457 37.0201 0.82434 33.664 0.297646 30.233C-0.175341 27.0942 -0.0840063 23.8956 0.567312 20.7892C1.11374 18.0113 2.00967 15.1871 3.85653 12.9883C5.33792 11.1886 7.67266 10.0892 10.0145 10.3155C12.2233 10.3138 14.0151 11.8408 15.3883 13.4213C16.985 15.3635 18.3085 17.5195 19.6462 19.6417C20.5332 21.1723 21.6474 22.6869 23.2654 23.4941C23.9346 23.8286 24.6801 23.9788 25.426 23.9293C26.1719 23.8799 26.8913 23.6325 27.5109 23.2125C28.5044 22.5532 29.0898 21.4574 29.5422 20.383C30.5144 17.9971 31.4281 15.5862 32.466 13.2289C32.9982 12.0582 33.4825 10.8572 34.2401 9.82018C35.482 8.07932 37.2969 6.68057 39.385 6.17809Z" fill="#009EF7"/>
</g>
<defs>
<clipPath id="clip0_1_5">
<rect width="50" height="50" fill="white"/>
</clipPath>
</defs>
</svg>
