<svg width="50" height="50" viewBox="0 0 50 50" fill="none" xmlns="http://www.w3.org/2000/svg">
<g clip-path="url(#clip0_7_7)">
<path d="M23.25 0.0600052C20.67 0.320007 18.22 0.850006 16.35 1.55C10.19 3.83001 4.98 8.67001 2.29 14.6C1.28 16.81 0.669998 18.89 0.279998 21.35C0.109998 22.46 0.0599976 23.2 0.0599976 24.95C0.0599976 27.47 0.199998 28.7 0.759998 31C1.6 34.41 3.18 37.67 5.35 40.45C6.09 41.4 6.47 41.76 6.13 41.2C5.26 39.75 5.29 37.47 6.2 36.1C7.23 34.55 8.64 33.77 10.4 33.77C11.71 33.77 12.74 34.13 13.68 34.93L14.05 35.24L13.74 34.89C12.06 33.02 10.86 30.6 10.29 27.9C10.1 27.03 10.06 26.54 10.06 25C10.06 23.46 10.1 22.97 10.29 22.1C10.94 19.04 12.29 16.53 14.46 14.36C17.74 11.09 22.35 9.54 26.95 10.15C27.56 10.23 28.07 10.3 28.1 10.3C28.13 10.3 27.9 10.16 27.6 9.99001C26.95 9.63 26.09 8.82 25.74 8.22001C23.79 4.90001 26.07 0.750004 29.89 0.670006C30.81 0.650005 30.57 0.580006 28.7 0.300007C27.41 0.100006 24.21 -0.0399933 23.25 0.0600052Z" fill="white"/>
<path d="M24.26 20.04C24.07 20.33 23.77 20.91 23.6 21.31C23.42 21.72 23.16 22.27 23.03 22.55C22.47 23.65 21.31 27.43 21.3 28.15C21.3 28.53 21.46 28.7 21.79 28.7C22.19 28.7 22.26 28.6 22.44 27.85C22.63 27.08 23.08 26.04 23.09 26.33C23.1 26.43 23.38 27.06 23.72 27.72C24.19 28.62 24.52 29.11 25.03 29.66C25.78 30.47 26.15 30.63 26.71 30.4C27.1 30.24 27.9 29.42 27.9 29.18C27.9 28.95 27.78 28.95 27.55 29.2C27.28 29.5 26.79 29.55 26.37 29.33C25.95 29.12 24.78 27.78 24.08 26.71C23.55 25.9 23.52 25.8 23.78 25.8C24.05 25.8 24.93 25.36 25.31 25.03C25.5 24.86 25.7 24.75 25.76 24.77C25.82 24.79 26.22 24.44 26.64 23.99C27.92 22.63 28.52 21.01 28.05 20.14C27.43 18.98 26.51 19.64 24.23 22.91C23.88 23.4 23.6 23.75 23.6 23.68C23.59 23.61 23.53 23.66 23.45 23.8C23.25 24.15 23.27 24.04 23.51 23.4C23.83 22.56 24.45 21.3 24.79 20.8C25.14 20.29 25.18 19.91 24.92 19.67C24.82 19.57 24.71 19.5 24.67 19.5C24.63 19.5 24.45 19.74 24.26 20.04ZM27.1 20.95C27.1 21.97 25.78 23.95 24.52 24.82C24.13 25.09 23.5 25.35 23.5 25.24C23.5 25.13 24.26 23.71 24.53 23.3C25.02 22.58 26.38 20.92 26.62 20.76C26.97 20.51 27.1 20.56 27.1 20.95ZM27.16 23.07C26.96 23.46 25.92 24.7 25.79 24.7C25.74 24.7 25.96 24.39 26.29 24C26.62 23.62 26.97 23.19 27.06 23.05C27.28 22.72 27.34 22.73 27.16 23.07Z" fill="white"/>
<path d="M31.15 19.79C30.86 19.97 29.93 20.93 29.38 21.62C28.91 22.22 28.42 23.13 28.04 24.1C27.73 24.91 27.69 25.14 27.72 25.66C27.79 26.76 28.58 27.56 29.35 27.3C29.77 27.16 30.38 26.57 30.98 25.7C31.23 25.34 31.47 25 31.52 24.95C31.62 24.84 30.78 27.25 30.31 28.43C29.66 30.04 28.89 31.39 28.48 31.61C28.3 31.71 28.24 31.69 28.08 31.5C27.88 31.26 27.91 31.02 28.2 30.33C28.36 29.96 28.96 29 29.46 28.32C29.6 28.14 29.6 28.1 29.48 28.1C29.21 28.1 27.73 29.58 27.46 30.12C26.98 31.08 27.22 31.87 28.12 32.24C28.71 32.48 29.03 32.4 29.51 31.88C29.96 31.38 30.91 29.66 31.3 28.61C31.46 28.19 31.88 27.14 32.24 26.26C32.6 25.39 32.9 24.63 32.9 24.56C32.9 24.5 33.03 24.2 33.2 23.9C33.36 23.6 33.49 23.25 33.5 23.13C33.5 22.9 32.98 22.4 32.74 22.4C32.67 22.4 32.48 22.59 32.34 22.82C31.68 23.87 29.7 26.09 29.19 26.35C28.4 26.77 28.41 25.98 29.23 24.3C30.32 22.06 31.91 20.07 32.31 20.47C32.47 20.63 32.22 21.55 31.86 22.08C31.37 22.8 31.37 22.8 31.59 22.8C31.84 22.8 32.76 22.08 33.01 21.67C33.25 21.29 33.21 20.57 32.94 20.15C32.58 19.61 31.72 19.43 31.15 19.79ZM28.41 23.87C28.29 24.07 28.27 24.01 28.36 23.75C28.4 23.66 28.45 23.61 28.47 23.64C28.5 23.66 28.47 23.77 28.41 23.87ZM32.41 25.37C32.29 25.57 32.27 25.51 32.36 25.25C32.4 25.16 32.45 25.11 32.47 25.14C32.5 25.16 32.47 25.27 32.41 25.37Z" fill="white"/>
<path d="M19.52 19.85C18.69 20.21 17.1 22.2 16.25 23.94C15.83 24.8 15.4 26.37 15.4 27.06C15.4 27.68 15.74 28.4 16.29 28.94C16.63 29.28 16.77 29.34 17.23 29.38C18.38 29.47 19.37 28.56 20.44 26.43C20.94 25.45 21.2 24.55 21.2 23.85C21.2 23.46 21.15 23.33 20.89 23.08C20.52 22.7 20.4 22.79 20.35 23.48C20.26 24.69 19.21 27 18.32 27.94C17.7 28.59 16.91 28.79 16.55 28.4C16.29 28.11 16.4 26.99 16.8 25.79C17.65 23.24 19.56 20.28 20.27 20.42C20.84 20.53 20.17 22.01 19.24 22.67C18.95 22.88 18.71 23.08 18.7 23.12C18.7 23.26 19.11 23.41 19.31 23.35C19.64 23.24 20.67 22.33 21.01 21.84C21.18 21.59 21.34 21.21 21.37 20.99C21.42 20.63 21.39 20.56 20.98 20.15C20.48 19.65 20.14 19.58 19.52 19.85ZM17.31 22.62C17.19 22.8 16.93 23.25 16.73 23.62C16.36 24.29 16.13 24.51 16.46 23.88C16.71 23.4 17.41 22.3 17.47 22.3C17.5 22.3 17.42 22.45 17.31 22.62Z" fill="white"/>
<path d="M26.161 49.4058C28.741 49.1458 31.191 48.6158 33.061 47.9158C39.221 45.6358 44.431 40.7958 47.121 34.8658C48.131 32.6558 48.741 30.5758 49.131 28.1158C49.301 27.0058 49.351 26.2658 49.351 24.5158C49.351 21.9958 49.211 20.7658 48.651 18.4658C47.811 15.0558 46.231 11.7958 44.061 9.01581C43.321 8.06581 42.941 7.70581 43.281 8.26581C44.151 9.71581 44.121 11.9958 43.211 13.3658C42.181 14.9158 40.771 15.6958 39.011 15.6958C37.701 15.6958 36.671 15.3358 35.731 14.5358L35.361 14.2258L35.671 14.5758C37.351 16.4458 38.551 18.8658 39.121 21.5658C39.311 22.4358 39.351 22.9258 39.351 24.4658C39.351 26.0058 39.311 26.4958 39.121 27.3658C38.471 30.4258 37.121 32.9358 34.951 35.1058C31.671 38.3758 27.061 39.9258 22.461 39.3158C21.851 39.2358 21.341 39.1658 21.311 39.1658C21.281 39.1658 21.511 39.3058 21.811 39.4758C22.461 39.8358 23.321 40.6458 23.671 41.2458C25.621 44.5658 23.341 48.7158 19.521 48.7958C18.601 48.8158 18.841 48.8858 20.711 49.1658C22.001 49.3658 25.201 49.5058 26.161 49.4058Z" fill="#FFAD29"/>
</g>
<defs>
<clipPath id="clip0_7_7">
<rect width="50" height="50" fill="white"/>
</clipPath>
</defs>
</svg>
