<svg width="46" height="50" viewBox="0 0 46 50" fill="none" xmlns="http://www.w3.org/2000/svg">
<path d="M16.3953 5.23256C13.4884 8.37209 11.6279 11.5116 11.6279 13.2558C11.6279 18.6047 17.6744 22.093 27.2093 22.093C32.5581 22.093 36.0465 25 36.0465 29.4186V33.0233L40.6977 28.4884C43.2558 26.0465 45.3488 23.3721 45.3488 22.6744C45.3488 21.0465 24.186 -2.38419e-07 22.5581 -2.38419e-07C21.8605 -2.38419e-07 19.0698 2.32558 16.3953 5.23256Z" fill="#B70000"/>
<path d="M5 22.2093C2.2093 24.7674 0 27.3256 0 27.7907C0 28.9535 21.5116 50 22.7907 50C23.2558 50 26.0465 47.7907 28.7209 45.1163C32.5581 41.2791 33.7209 39.3023 33.7209 36.3953C33.7209 31.3953 30.4651 29.3023 20.9302 28.2558C12.4419 27.4419 8.72093 24.7674 9.65116 20.2326C9.88372 18.7209 10.1163 17.4419 10 17.4419C10 17.4419 7.67442 19.6512 5 22.2093Z" fill="#0E4EB5"/>
</svg>
