<?xml version="1.0" encoding="UTF-8"?>
<!DOCTYPE svg PUBLIC "-//W3C//DTD SVG 1.1//EN" "http://www.w3.org/Graphics/SVG/1.1/DTD/svg11.dtd">
<!-- Creator: CorelDRAW -->
<svg xmlns="http://www.w3.org/2000/svg" xml:space="preserve" width="960px" height="906px" version="1.1" shape-rendering="geometricPrecision" text-rendering="geometricPrecision" image-rendering="optimizeQuality" fill-rule="evenodd" clip-rule="evenodd"
viewBox="0 0 973.15 919.08"
 xmlns:xlink="http://www.w3.org/1999/xlink"
 xmlns:xodm="http://www.corel.com/coreldraw/odm/2003">
 <g id="Capa_x0020_1">
  <metadata id="CorelCorpID_0Corel-Layer"/>
  <path fill="#4185F4" d="M0 386.76l486.57 -386.76 486.58 386.76 -233.49 207.55c5.14,20.42 7.88,41.8 7.88,63.81 0,144.13 -116.84,260.96 -260.97,260.96 -144.12,0 -260.96,-116.83 -260.96,-260.96 0,-22.01 2.74,-43.39 7.88,-63.81l-233.49 -207.55z"/>
  <polygon fill="#4185F4" points="0,386.76 486.57,0 486.57,603.02 243.29,603.02 "/>
  <path fill="#76A7FA" d="M486.57 397.16l0 205.86 -243.28 0 -9.8 -8.71c28.47,-113.28 130.98,-197.15 253.08,-197.15z"/>
  <polygon fill="#3669C3" points="973.15,386.76 486.57,0 486.57,603.02 729.86,603.02 "/>
  <path fill="#76A7FA" d="M486.57 397.16l0 205.86 243.29 0 9.8 -8.71c-28.47,-113.28 -130.98,-197.15 -253.09,-197.15z"/>
  <path fill="#A0C3FF" d="M233.49 594.31c-5.14,20.42 -7.88,41.8 -7.88,63.81 0,144.13 116.84,260.96 260.96,260.96 144.13,0 260.97,-116.83 260.97,-260.96 0,-22.01 -2.74,-43.39 -7.88,-63.81l-9.8 8.71 -243.29 0 -243.28 0 -9.8 -8.71z"/>
 </g>
</svg>
