<svg width="29" height="29" viewBox="0 0 29 29" fill="none" xmlns="http://www.w3.org/2000/svg">
<mask id="mask0_25_18" style="mask-type:luminance" maskUnits="userSpaceOnUse" x="0" y="0" width="29" height="29">
<path d="M19.7674 3.82131C18.788 1.50577 16.5216 0 14.0053 0C11.489 0 9.2002 1.51023 8.22313 3.83246L0.310589 22.6758C-0.773561 25.2501 1.11367 28.0965 3.90659 28.0965H12.7181C14.882 28.0921 16.6331 26.3365 16.6331 24.1704C16.6331 22.0043 14.8753 20.2442 12.707 20.2442C12.6177 20.2442 11.2012 20.2554 11.2012 20.2554C10.5632 20.2554 10.1327 19.6062 10.3803 19.0173L13.1888 12.325C13.4944 11.5977 14.4916 11.5933 14.7994 12.3205L20.5303 25.7185C21.317 27.5073 22.8153 28.0907 24.1352 28.0943C26.9348 28.0943 28.8221 25.2434 27.7312 22.6668L19.7674 3.82131Z" fill="white"/>
</mask>
<g mask="url(#mask0_25_18)">
<mask id="mask1_25_18" style="mask-type:luminance" maskUnits="userSpaceOnUse" x="-5" y="-5" width="39" height="39">
<path d="M33.0438 -5.00006H-4.99823V33.0969H33.0438V-5.00006Z" fill="white"/>
</mask>
<g mask="url(#mask1_25_18)">
<mask id="mask2_25_18" style="mask-type:luminance" maskUnits="userSpaceOnUse" x="-5" y="-5" width="39" height="39">
<path d="M33.0438 -5.00006H-4.99823V33.0969H33.0438V-5.00006Z" fill="white"/>
</mask>
<g mask="url(#mask2_25_18)">
<rect x="-5.11047" y="-5.47385" width="38.4" height="38.88" fill="white"/>
</g>
</g>
</g>
</svg>
