<?xml version="1.0" encoding="UTF-8"?>
<!DOCTYPE svg PUBLIC "-//W3C//DTD SVG 1.1//EN" "http://www.w3.org/Graphics/SVG/1.1/DTD/svg11.dtd">
<!-- Creator: CorelDRAW -->
<svg xmlns="http://www.w3.org/2000/svg" xml:space="preserve" width="212px" height="204px" version="1.1" shape-rendering="geometricPrecision" text-rendering="geometricPrecision" image-rendering="optimizeQuality" fill-rule="evenodd" clip-rule="evenodd"
viewBox="0 0 47.81 46"
 xmlns:xlink="http://www.w3.org/1999/xlink"
 xmlns:xodm="http://www.corel.com/coreldraw/odm/2003">
 <g id="Capa_x0020_1">
  <metadata id="CorelCorpID_0Corel-Layer"/>
  <path fill="#383D41" d="M10 17.89c6.55,-0.66 1.29,-5.04 12.58,3.3l0.02 6.73c-4.25,1.79 -8.12,3.33 -7.92,9.53 0.36,11.31 17.57,11.49 18,-0.04 0.14,-3.71 -1.82,-6.67 -4.81,-8.25 -3.06,-1.62 -2.6,0.54 -2.54,-8.31 2.39,-1.29 4.56,-3.56 6.95,-5.01 1.89,1.01 3.2,2.38 6.38,2.41 7.56,0.06 11.9,-8.36 7.21,-14.5 -5.22,-6.84 -18.64,-3.93 -15.22,9.89 -2.45,1.39 -4.07,3.53 -6.84,4.93 -2.5,-1.55 -4.83,-3.05 -6.87,-4.95 5.22,-16.28 -15.61,-17.67 -16.88,-5.75 -0.63,5.83 4.03,10.62 9.94,10.02z"/>
  <path fill="#B5B917" d="M22.39 30.98c-8.92,2.18 -5.02,14.53 3.31,12.12 7.41,-2.15 4.42,-14.02 -3.31,-12.12z"/>
  <path fill="#2DB9D7" d="M36.63 3.46c-8.17,3.39 -3.25,14.13 4.17,11.81 8.1,-2.53 3.68,-15.06 -4.17,-11.81z"/>
  <path fill="#005480" d="M7.53 2.9c-8.49,2.36 -4.92,14.46 3.35,12.12 7.26,-2.06 4.74,-14.38 -3.35,-12.12z"/>
 </g>
</svg>
