<?xml version="1.0" encoding="utf-8"?>
<!-- Generator: Adobe Illustrator 21.1.0, SVG Export Plug-In . SVG Version: 6.00 Build 0)  -->
<svg version="1.1" id="Layer_1" xmlns="http://www.w3.org/2000/svg" xmlns:xlink="http://www.w3.org/1999/xlink" x="0px" y="0px"
	 viewBox="0 0 257.6 160.2" style="enable-background:new 0 0 257.6 160.2;" xml:space="preserve">
<style type="text/css">
	.st0{fill:#FFFFFF;}
</style>
<g>
	<g>
		<g>
			<path class="st0" d="M70.9,137.3c0,0-8.2-5.1-8.1-13.7c0.1-8.6,9.9-22.1,10.9-27.4c1-5.2,0-8.1,0-8.1s7.9,6.8,6.9,17.1
				c-0.7,7.3-7.5,16.2-9.6,21.4C68.9,132,70.9,137.3,70.9,137.3"/>
			<path class="st0" d="M78,146.6c0,0-5.2-3.2-5.1-8.6c0.1-5.4,6.3-13.9,6.9-17.2c0.6-3.3,0-5.1,0-5.1s5,4.3,4.3,10.8
				c-0.4,4.6-4.7,10.2-6,13.5C76.7,143.3,78,146.6,78,146.6"/>
			<path class="st0" d="M228.5,73h-47.7l16.4,16.7h12.1h0.5v0.4V129c-4.1,2.3-9,4-14.5,5.2c-5.6,1.2-11.7,1.8-18.3,1.8
				c-8.4,0-15.9-1.5-22.7-4.4c-6.8-2.9-12.5-6.9-17.1-12c-4.6-5.1-8.2-11.1-10.8-18c-2.5-6.9-3.8-14.3-3.8-22.1
				c0-7.7,1.3-15,3.8-21.8c2.5-6.8,6.1-12.8,10.8-18c4.6-5.2,10.3-9.3,16.9-12.2c6.6-3,14.1-4.5,22.3-4.5c8.1,0,15.4,1.4,22,4.2
				c6.6,2.8,12,6.5,16.2,11.1l13.7-14.3c-5.8-5.6-13.2-10-22-13.3c-8.8-3.3-18.9-5-30.2-5c-10.8,0-20.7,1.8-29.9,5.4
				c-9.2,3.6-17.1,8.6-23.8,15c-6.7,6.4-11.9,14.2-15.7,23.3c-0.5,1.3-1,2.6-1.5,4L86.3,9.1H68.4L5.6,153.6h21.9l15.8-38.2l7-17.3
				L76.8,32l26.4,66.1c0,0,6.7,17.6,9.6,22.4c2.4,4,5.4,8.4,9.4,12.4c6.4,6.3,13.9,11.2,22.6,14.8c0.4,0.2,0.8,0.3,1.2,0.5
				c9.2,3.6,19.3,5.5,30.4,5.5c10.4,0,19.9-1.1,28.7-3.2c8.8-2.1,16.9-5.2,24.3-9.2V73.5V73H228.5z"/>
		</g>
	</g>
	<g>
		<path class="st0" d="M243.1,22.7c0.5,0,1-0.1,1.4-0.3c0.4-0.2,0.7-0.6,0.7-1.1c0-0.5-0.2-0.9-0.6-1c-0.4-0.2-0.8-0.3-1.3-0.3h-1.5
			v2.7H243.1z M240.1,18.6h3.3c0.4,0,0.9,0,1.3,0.1c0.4,0.1,0.8,0.3,1.1,0.5c0.3,0.2,0.6,0.5,0.8,0.8c0.2,0.3,0.3,0.8,0.3,1.3
			c0,0.7-0.2,1.2-0.6,1.7s-0.9,0.7-1.6,0.9l2.5,4.1h-2.1L243,24h-1.2V28h-1.7V18.6z M236.3,23.3c0,1,0.2,1.9,0.5,2.7
			c0.4,0.9,0.9,1.6,1.5,2.3c0.6,0.6,1.4,1.2,2.2,1.5c0.9,0.4,1.8,0.6,2.8,0.6c1,0,1.9-0.2,2.8-0.6c0.9-0.4,1.6-0.9,2.2-1.5
			c0.6-0.7,1.1-1.4,1.5-2.3c0.4-0.9,0.5-1.8,0.5-2.7c0-1-0.2-1.9-0.5-2.8c-0.4-0.9-0.9-1.6-1.5-2.2c-0.6-0.6-1.4-1.1-2.2-1.5
			c-0.9-0.4-1.8-0.6-2.8-0.6c-1,0-1.9,0.2-2.8,0.6c-0.9,0.4-1.6,0.9-2.2,1.5c-0.6,0.6-1.1,1.4-1.5,2.2
			C236.5,21.4,236.3,22.3,236.3,23.3 M235,23.3c0-1.2,0.2-2.2,0.7-3.3c0.4-1,1-1.9,1.8-2.6c0.8-0.7,1.6-1.3,2.7-1.8
			c1-0.4,2.1-0.7,3.3-0.7c1.2,0,2.2,0.2,3.3,0.7c1,0.4,1.9,1,2.7,1.8c0.8,0.7,1.4,1.6,1.8,2.6c0.4,1,0.7,2.1,0.7,3.3
			c0,1.2-0.2,2.2-0.7,3.2c-0.4,1-1,1.9-1.8,2.6c-0.8,0.7-1.6,1.3-2.7,1.8c-1,0.4-2.1,0.6-3.3,0.6c-1.2,0-2.2-0.2-3.3-0.6
			c-1-0.4-1.9-1-2.7-1.8c-0.8-0.7-1.4-1.6-1.8-2.6C235.2,25.5,235,24.5,235,23.3"/>
	</g>
</g>
</svg>
