<?xml version="1.0" encoding="UTF-8"?>
<!DOCTYPE svg PUBLIC "-//W3C//DTD SVG 1.1//EN" "http://www.w3.org/Graphics/SVG/1.1/DTD/svg11.dtd">
<!-- Creator: CorelDRAW -->
<svg xmlns="http://www.w3.org/2000/svg" xml:space="preserve" width="559px" height="610px" version="1.1" shape-rendering="geometricPrecision" text-rendering="geometricPrecision" image-rendering="optimizeQuality" fill-rule="evenodd" clip-rule="evenodd"
viewBox="0 0 168.3 183.49"
 xmlns:xlink="http://www.w3.org/1999/xlink"
 xmlns:xodm="http://www.corel.com/coreldraw/odm/2003">
 <g id="Capa_x0020_1">
  <metadata id="CorelCorpID_0Corel-Layer"/>
  <path fill="#595EEF" fill-rule="nonzero" d="M3.06 44.32c-1.97,3.05 -3.06,6.55 -3.06,10.04l0 76c0,5.24 2.84,10.27 7.43,12.89l68.79 39.09c5.68,3.28 12.67,-0.87 12.67,-7.43l0 -81.46 0 0 -85.83 -49.13z"/>
  <path fill="#6DEAE7" fill-rule="nonzero" d="M88.89 93.45l74.69 -37.56c6.11,-3.06 6.33,-11.57 0.43,-14.85l-68.35 -39.09c-4.37,-2.4 -9.61,-2.62 -13.98,-0.44l-71.2 36.04c-3.05,1.52 -5.68,3.93 -7.64,6.77l86.05 49.13z"/>
 </g>
</svg>
