<?xml version="1.0" encoding="utf-8"?>
<!-- Generator: Adobe Illustrator 23.1.1, SVG Export Plug-In . SVG Version: 6.00 Build 0)  -->
<svg version="1.1" id="Layer_1" xmlns="http://www.w3.org/2000/svg" xmlns:xlink="http://www.w3.org/1999/xlink" x="0px" y="0px"
	 viewBox="0 0 375 162.9" style="enable-background:new 0 0 375 162.9;" xml:space="preserve">
<style type="text/css">
	.st0{fill:url(#SVGID_1_);}
	.st1{fill:#2D3440;}
</style>
<g>
	<linearGradient id="SVGID_1_" gradientUnits="userSpaceOnUse" x1="268.4931" y1="120.2331" x2="497.6552" y2="177.83">
		<stop  offset="0" style="stop-color:#39B76E"/>
		<stop  offset="1" style="stop-color:#70C282"/>
	</linearGradient>
	<polygon class="st0" points="360,116.5 322,116.5 312.5,158 350.5,158 	"/>
	<g>
		<path class="st1" d="M106.8,158.8c1.3-5.9,2.5-11.3,3.7-16.6c8.8-38.5,17.6-77,26.5-115.4c1.6-6.8,3.1-13.7,4.7-20.5
			c0.3-1.5,0.9-2.1,2.6-2.1c17.2,0.1,34.4,0,51.6,0.1c6.5,0,12.9,1.3,18.9,4.1c11.9,5.5,19.2,17.2,17.8,30.2
			c-0.8,7.7-2.6,15.3-4.3,22.9c-4.5,20.2-9.1,40.4-13.8,60.5c-5.1,21.8-24.2,36.8-46.6,36.8c-19.2,0-38.4,0-57.5,0
			C109.4,158.8,108.4,158.8,106.8,158.8z M149.8,133.3c6-0.4,11.5-0.5,16.9-1.3c3.4-0.5,6.1-2.7,7.9-5.7c1.4-2.5,2.8-5.2,3.5-7.9
			c2.2-8.5,4.1-17.1,6-25.7c3.7-16.2,7.5-32.5,11.2-48.7c2-8.7-1.9-13.4-10.7-13.4c-3,0-6,0.1-9,0c-1.7-0.1-2.3,0.5-2.7,2.2
			c-6.2,27.4-12.5,54.8-18.8,82.2C152.6,120.8,151.3,126.7,149.8,133.3z"/>
		<path class="st1" d="M77.9,62.2c1.4-6.1,2.8-12.2,4.2-18.3c1.5-6.6,0.1-10.5-4.7-12.9c-5.4-2.7-12.3-1.8-16,2.7
			c-1.6,1.9-2.9,4.3-3.4,6.7C51.9,66.2,46,92,40.1,117.9c-1.5,6.5,0.6,11.4,5.7,13.9c7,3.3,16-0.6,17.9-8c1.9-7.2,3.4-14.5,5-21.7
			c0.3-1.3,0.6-2.2,2.3-2.1c11.5,0.1,22.9,0,34.4,0.1c0.2,0,0.3,0.1,0.8,0.3c-0.7,3.3-1.3,6.7-2.2,10.1c-2.2,7.9-4,15.9-6.8,23.6
			c-5.4,14.5-16.2,23-31.3,25.8c-14.1,2.7-28.3,2.9-42.2-1.3C13,155.3,5.2,148.8,2,137.8c-1.8-6.4-1-13,0.5-19.3
			c6.2-27.5,12.4-55,18.9-82.5c1.3-5.5,3.7-10.9,6.4-15.9c4.7-8.6,12.3-14,21.8-16.3C65,0.1,80.6-0.1,96,4.3
			c9.6,2.7,17.4,8,21.6,17.5c2.9,6.6,3.2,13.6,1.8,20.7c-1.2,6.1-2.8,12.2-4.2,18.2c-0.3,1.2-0.6,2-2.1,2
			c-11.5-0.1-22.9-0.1-34.4-0.1C78.5,62.5,78.4,62.4,77.9,62.2z"/>
		<path class="st1" d="M220,158.8c1.4-6.2,2.6-11.8,3.9-17.5c10.1-44.2,20.3-88.5,30.5-132.7c1-4.5,1-4.4,5.5-4.4
			c27.4,0,54.8,0,82.2,0c1,0,2,0,3.4,0c-0.9,4.1-1.7,8-2.6,11.9c-0.9,3.8-2,7.6-2.6,11.5c-0.4,2.6-1.6,3-3.9,3
			c-15.8-0.1-31.7,0-47.5-0.1c-1.4,0-2.5-0.1-3,1.9c-2.3,10.5-4.7,21-7.1,31.5c-0.1,0.4-0.1,0.8-0.2,1.7c12.8,0,25.4,0,38.5,0
			c-0.6,2.8-1.2,5.2-1.7,7.6c-1.3,5.7-2.7,11.5-3.9,17.3c-0.4,1.8-1.2,2.1-2.7,2.1c-11.3-0.1-22.6,0-33.9-0.1c-2,0-2.7,0.5-3.2,2.6
			c-4.5,20.3-9.2,40.5-13.8,60.8c-0.5,2.4-1.5,3.1-3.9,3c-10.2-0.2-20.4-0.1-30.6-0.1C222.3,158.8,221.4,158.8,220,158.8z"/>
		<g>
			<path class="st1" d="M373.5,12.8c0,4.9-3.7,8.6-8.5,8.6c-4.8,0-8.5-3.9-8.5-8.6c0-4.8,3.9-8.6,8.6-8.6
				C369.8,4.1,373.6,7.9,373.5,12.8z M372.7,12.7c0-4.4-3.2-7.8-7.5-7.8c-4.3-0.1-7.9,3.5-7.9,7.8c0,4.3,3.4,7.7,7.6,7.8
				C369.3,20.6,372.7,17.2,372.7,12.7z"/>
			<g>
				<path class="st1" d="M362.2,12.8v5l-1,0V6.8h4.3c1.2,0,2.1,0.2,2.8,0.7c0.6,0.5,1,1.2,1,2.2c0,0.7-0.1,1.2-0.4,1.6
					c-0.3,0.4-0.7,0.7-1.4,1c0.3,0.1,0.6,0.3,0.8,0.5c0.2,0.2,0.3,0.5,0.4,0.7c0.1,0.3,0.1,0.6,0.2,0.9c0,0.3,0,0.6,0.1,0.9
					c0,0.4,0,0.8,0.1,1c0,0.3,0.1,0.5,0.1,0.7c0,0.2,0.1,0.3,0.1,0.4c0.1,0.1,0.1,0.2,0.2,0.2v0.1l-1.1,0c-0.1-0.2-0.2-0.4-0.2-0.8
					c0-0.3-0.1-0.7-0.1-1c0-0.4,0-0.7-0.1-1c0-0.3,0-0.6-0.1-0.8c-0.1-0.3-0.2-0.5-0.3-0.7c-0.1-0.2-0.3-0.3-0.5-0.4
					c-0.2-0.1-0.4-0.2-0.6-0.2c-0.2,0-0.5,0-0.7,0H362.2z M365.4,11.9c0.4,0,0.7,0,1.1-0.1c0.3-0.1,0.6-0.2,0.9-0.4
					c0.2-0.2,0.4-0.4,0.6-0.7c0.1-0.3,0.2-0.6,0.2-1c0-0.4-0.1-0.7-0.2-1c-0.1-0.3-0.3-0.5-0.6-0.6c-0.2-0.2-0.5-0.3-0.9-0.3
					s-0.7-0.1-1-0.1h-3.3v4.2H365.4z"/>
			</g>
		</g>
	</g>
</g>
</svg>
