<?xml version="1.0" encoding="UTF-8"?>
<!DOCTYPE svg PUBLIC "-//W3C//DTD SVG 1.1//EN" "http://www.w3.org/Graphics/SVG/1.1/DTD/svg11.dtd">
<!-- Creator: CorelDRAW -->
<svg xmlns="http://www.w3.org/2000/svg" xml:space="preserve" width="132px" height="174px" version="1.1" shape-rendering="geometricPrecision" text-rendering="geometricPrecision" image-rendering="optimizeQuality" fill-rule="evenodd" clip-rule="evenodd"
viewBox="0 0 11.86 15.63"
 xmlns:xlink="http://www.w3.org/1999/xlink"
 xmlns:xodm="http://www.corel.com/coreldraw/odm/2003">
 <g id="Capa_x0020_1">
  <metadata id="CorelCorpID_0Corel-Layer"/>
  <path id="Fill-93" fill="#E6E7E8" fill-rule="nonzero" d="M6.08 15.63l-0.31 0 0 -0.15c0,-0.23 -0.52,-0.28 -0.7,-0.28l-4.2 0c-0.55,0 -0.87,-0.32 -0.87,-0.87l0 -14.33 5.93 0 0 0.31 -5.62 0 0 14.02c0,0.37 0.18,0.56 0.56,0.56l4.2 0c0.31,0 0.66,0.07 0.86,0.24 0.2,-0.17 0.55,-0.24 0.86,-0.24l4.2 0c0.38,0 0.56,-0.19 0.56,-0.56l0 -14.02 -5.62 0 0 -0.31 5.93 0 0 14.33c0,0.55 -0.32,0.87 -0.87,0.87l-4.2 0c-0.18,0 -0.71,0.05 -0.71,0.28l0 0.15z"/>
  <g>
   <path id="Fill-94" fill="#E6E7E8" fill-rule="nonzero" d="M7.06 1.57c0.01,0 0.03,0.01 0.04,0.03l0.4 0.55c0.03,-0.16 0.09,-0.28 0.13,-0.36l-0.25 -0.38c-0.01,-0.02 -0.01,-0.05 0.01,-0.07 0.09,-0.12 0.12,-0.25 0.07,-0.33 -0.04,-0.05 -0.11,-0.08 -0.19,-0.08 -0.11,0 -0.23,0.04 -0.33,0.11 -0.21,0.14 -0.31,0.36 -0.23,0.48 0.04,0.05 0.1,0.07 0.19,0.07 0.05,0 0.09,0 0.14,-0.02 0,0 0.01,0 0.02,0l0 0zm0.47 0.78c-0.02,0 -0.03,-0.01 -0.05,-0.02l-0.45 -0.63c-0.04,0.01 -0.09,0.01 -0.13,0.01 -0.12,0 -0.23,-0.05 -0.28,-0.13 -0.12,-0.18 -0.01,-0.45 0.25,-0.63 0.13,-0.09 0.27,-0.14 0.4,-0.14 0.12,0 0.22,0.05 0.28,0.13 0.08,0.12 0.06,0.28 -0.05,0.44l0.25 0.38c0.02,0.02 0.02,0.05 0,0.07 -0.06,0.08 -0.13,0.23 -0.16,0.47 0,0.03 -0.02,0.05 -0.04,0.05 -0.01,0 -0.01,0 -0.02,0z"/>
  </g>
  <path id="Fill-95" fill="#E6E7E8" fill-rule="nonzero" d="M8.11 2.52c-0.03,0.11 -0.04,0.26 0.05,0.41 0.05,0.08 0.14,0.11 0.29,0.11l-0.34 -0.52zm0.35 0.64c-0.14,0 -0.3,-0.02 -0.39,-0.17 -0.17,-0.27 -0.06,-0.54 -0.03,-0.62 0.01,-0.02 0.03,-0.03 0.05,-0.03 0.02,0 0.04,0.01 0.05,0.02l0.46 0.71c0.01,0.01 0.02,0.04 0.01,0.05 -0.01,0.02 -0.03,0.03 -0.05,0.03 -0.04,0.01 -0.07,0.01 -0.1,0.01z"/>
  <path id="Fill-96" fill="#E6E7E8" fill-rule="nonzero" d="M8.48 1.96c0,0.05 -0.03,0.08 -0.08,0.08 -0.04,0 -0.07,-0.03 -0.07,-0.08 0,-0.04 0.03,-0.07 0.07,-0.07 0.05,0 0.08,0.03 0.08,0.07z"/>
  <g>
   <path id="Fill-97" fill="#E6E7E8" fill-rule="nonzero" d="M8.4 1.93c-0.02,0 -0.04,0.01 -0.04,0.03 0,0.03 0.02,0.04 0.04,0.04 0.03,0 0.04,-0.01 0.04,-0.04 0,-0.02 -0.01,-0.03 -0.04,-0.03l0 0zm0 0.15c-0.06,0 -0.11,-0.05 -0.11,-0.12 0,-0.06 0.05,-0.11 0.11,-0.11 0.07,0 0.12,0.05 0.12,0.11 0,0.07 -0.05,0.12 -0.12,0.12z"/>
  </g>
  <path id="Fill-98" fill="#E6E7E8" fill-rule="nonzero" d="M4.31 7.26l-4.15 0 0 0.19 4.1 0c0.01,-0.06 0.03,-0.13 0.05,-0.19z"/>
  <path id="Fill-99" fill="#E6E7E8" fill-rule="nonzero" d="M7.55 7.26c0.02,0.06 0.04,0.13 0.05,0.19l4.15 0 0 -0.19 -4.2 0z"/>
  <path id="Fill-100" fill="#E6E7E8" fill-rule="nonzero" d="M5.93 6.06c0.03,0 0.06,0 0.1,0l0 -5.89 -0.2 0 0 5.89c0.03,0 0.07,0 0.1,0z"/>
  <path id="Fill-101" fill="#E6E7E8" fill-rule="nonzero" d="M5.93 9.45c-0.03,0 -0.07,0 -0.1,0l0 5.85 0.2 0 0 -5.85c-0.04,0 -0.07,0 -0.1,0z"/>
  <path id="Fill-102" fill="#E6E7E8" fill-rule="nonzero" d="M4.79 8.41l2.28 0 -1.14 -1.97 -1.14 1.97zm2.38 0.12l-2.48 0 -0.05 -0.09 1.24 -2.15 0.1 0 1.24 2.15 -0.05 0.09z"/>
  <path id="Fill-103" fill="#E6E7E8" fill-rule="nonzero" d="M6.55 6.52c-0.01,0 -0.02,0 -0.02,-0.01 -0.06,-0.02 -0.3,-0.07 -0.38,-0.08 -0.04,-0.01 -0.15,-0.04 -0.19,-0.11 -0.01,-0.03 -0.01,-0.06 0,-0.08 0.01,-0.03 0.05,-0.05 0.08,-0.06 -0.03,-0.03 -0.05,-0.06 -0.06,-0.07 -0.02,-0.03 -0.03,-0.07 -0.01,-0.12 0.03,-0.07 0.12,-0.12 0.28,-0.15 0.21,-0.04 0.33,0.13 0.41,0.25 0.03,0.05 0.07,0.11 0.1,0.12 0.03,0.02 0.04,0.05 0.03,0.08 -0.02,0.03 -0.05,0.04 -0.08,0.03 -0.06,-0.03 -0.1,-0.1 -0.15,-0.17 -0.09,-0.13 -0.16,-0.22 -0.29,-0.2 -0.15,0.03 -0.18,0.07 -0.19,0.08 -0.01,0.01 0,0.01 0,0.01 0,0.02 0.07,0.08 0.12,0.13 0.01,0.02 0.02,0.04 0.01,0.06 0,0.02 -0.02,0.04 -0.04,0.04 -0.03,0 -0.06,0.01 -0.08,0.02 0.02,0.01 0.05,0.02 0.08,0.02 0,0 0.32,0.06 0.41,0.1 0.03,0.01 0.04,0.05 0.02,0.08 -0.01,0.02 -0.03,0.03 -0.05,0.03z"/>
  <g>
   <path id="Fill-104" fill="#E6E7E8" fill-rule="nonzero" d="M5.93 9.14c-0.76,0 -1.38,-0.62 -1.38,-1.38 0,-0.76 0.62,-1.38 1.38,-1.38 0.76,0 1.38,0.62 1.38,1.38 0,0.76 -0.62,1.38 -1.38,1.38l0 0zm0.66 -2.72l-0.04 0.04c-0.07,-0.03 -0.35,-0.08 -0.39,-0.09 -0.04,-0.01 -0.12,-0.03 -0.15,-0.08 0,-0.01 0,-0.02 0,-0.02 -0.03,-0.01 -0.05,-0.01 -0.08,-0.01 -0.83,0 -1.5,0.67 -1.5,1.5 0,0.82 0.67,1.49 1.5,1.49 0.82,0 1.49,-0.67 1.49,-1.49 0,-0.59 -0.34,-1.1 -0.83,-1.34z"/>
  </g>
  <path id="Fill-105" fill="#E6E7E8" fill-rule="nonzero" d="M6.63 6.15c0.03,0.05 0.07,0.1 0.1,0.11l-0.04 0.05c0.52,0.27 0.88,0.82 0.88,1.45 0,0.9 -0.74,1.64 -1.64,1.64 -0.91,0 -1.64,-0.74 -1.64,-1.64 0,-0.91 0.73,-1.64 1.64,-1.64 0.05,0 0.1,0 0.14,0 -0.02,-0.02 -0.04,-0.04 -0.04,-0.05 -0.01,-0.01 -0.02,-0.03 0,-0.06 -0.03,-0.01 -0.07,-0.01 -0.1,-0.01 -0.97,0 -1.76,0.79 -1.76,1.76 0,0.96 0.79,1.75 1.76,1.75 0.97,0 1.75,-0.79 1.75,-1.75 0,-0.72 -0.43,-1.34 -1.05,-1.61z"/>
  <path id="Fill-106" fill="#E6E7E8" fill-rule="nonzero" d="M6.3 6.06c0,0.02 -0.02,0.03 -0.04,0.03 -0.02,0 -0.03,-0.01 -0.03,-0.03 0,-0.02 0.01,-0.04 0.03,-0.04 0.02,0 0.04,0.02 0.04,0.04z"/>
  <path id="Fill-107" fill="#E6E7E8" fill-rule="nonzero" d="M6.26 6.13c-0.04,0 -0.07,-0.03 -0.07,-0.07 0,-0.05 0.03,-0.08 0.07,-0.08 0.04,0 0.08,0.03 0.08,0.08 0,0.04 -0.04,0.07 -0.08,0.07z"/>
  <g>
   <path id="Fill-108" fill="#E6E7E8" fill-rule="nonzero" d="M5.93 7.37c-0.22,0 -0.39,0.18 -0.39,0.39 0,0.22 0.17,0.4 0.39,0.4 0.22,0 0.39,-0.18 0.39,-0.4 0,-0.21 -0.17,-0.39 -0.39,-0.39l0 0zm0 0.88c-0.27,0 -0.48,-0.22 -0.48,-0.49 0,-0.26 0.21,-0.48 0.48,-0.48 0.27,0 0.48,0.22 0.48,0.48 0,0.27 -0.21,0.49 -0.48,0.49z"/>
  </g>
  <path id="Fill-109" fill="#E6E7E8" fill-rule="nonzero" d="M4.4 14.38l0.34 0 0 -0.96c0,-0.01 0,-0.01 0,-0.01l0 -0.44 -3.52 0 0 0.39 3.12 0c0.03,0 0.06,0.02 0.06,0.06l0 0.96zm0.4 0.12l-0.46 0c-0.03,0 -0.06,-0.03 -0.06,-0.06l0 -0.97 -3.12 0c-0.03,0 -0.05,-0.02 -0.05,-0.05l0 -0.51c0,-0.03 0.02,-0.05 0.05,-0.05l3.64 0c0.03,0 0.06,0.02 0.06,0.05l0 0.51c0,0 0,0 0,0l0 1.02c0,0.03 -0.03,0.06 -0.06,0.06z"/>
  <g>
   <path id="Fill-110" fill="#E6E7E8" fill-rule="nonzero" d="M3.75 10.59c-0.61,0 -1.11,0.5 -1.11,1.11 0,0.61 0.5,1.11 1.11,1.11 0.62,0 1.12,-0.5 1.12,-1.11 0,-0.61 -0.5,-1.11 -1.12,-1.11l0 0zm0 2.34c-0.67,0 -1.23,-0.55 -1.23,-1.23 0,-0.68 0.56,-1.23 1.23,-1.23 0.68,0 1.23,0.55 1.23,1.23 0,0.68 -0.55,1.23 -1.23,1.23z"/>
  </g>
  <g>
   <path id="Fill-111" fill="#E6E7E8" fill-rule="nonzero" d="M1.62 8.99l2.06 1.31 -2.06 -1.31zm0 0l0 0 0 0z"/>
  </g>
  <polygon id="Fill-112" fill="#E6E7E8" fill-rule="nonzero" points="3.66,10.32 1.61,9.01 1.64,8.96 3.69,10.27 "/>
  <g>
   <path id="Fill-113" fill="#E6E7E8" fill-rule="nonzero" d="M1.61 9l1.81 1.34 -1.81 -1.34zm0 0l0 0 0 0z"/>
  </g>
  <polygon id="Fill-114" fill="#E6E7E8" fill-rule="nonzero" points="3.4,10.36 1.59,9.02 1.63,8.98 3.43,10.31 "/>
  <g>
   <path id="Fill-115" fill="#E6E7E8" fill-rule="nonzero" d="M1.59 9.01l1.63 1.39 -1.63 -1.39zm0 0l0 0 0 0z"/>
  </g>
  <polygon id="Fill-116" fill="#E6E7E8" fill-rule="nonzero" points="3.2,10.42 1.58,9.03 1.61,8.99 3.24,10.38 "/>
  <g>
   <path id="Fill-117" fill="#E6E7E8" fill-rule="nonzero" d="M1.58 9.02l1.48 1.46 -1.48 -1.46zm0 0l0 0 0 0z"/>
  </g>
  <polygon id="Fill-118" fill="#E6E7E8" fill-rule="nonzero" points="3.04,10.5 1.56,9.04 1.6,9 3.08,10.46 "/>
  <g>
   <path id="Fill-119" fill="#E6E7E8" fill-rule="nonzero" d="M1.56 9.04l1.35 1.53 -1.35 -1.53zm0 0l0 0 0 0z"/>
  </g>
  <polygon id="Fill-120" fill="#E6E7E8" fill-rule="nonzero" points="2.89,10.59 1.54,9.06 1.59,9.02 2.94,10.55 "/>
  <g>
   <path id="Fill-121" fill="#E6E7E8" fill-rule="nonzero" d="M1.55 9.05l1.24 1.63 -1.24 -1.63zm0 0l0 0 0 0z"/>
  </g>
  <polygon id="Fill-122" fill="#E6E7E8" fill-rule="nonzero" points="2.77,10.7 1.53,9.07 1.57,9.03 2.81,10.67 "/>
  <g>
   <path id="Fill-123" fill="#E6E7E8" fill-rule="nonzero" d="M1.53 9.06l1.15 1.74 -1.15 -1.74zm0 0l0 0 0 0z"/>
  </g>
  <polygon id="Fill-124" fill="#E6E7E8" fill-rule="nonzero" points="2.65,10.82 1.51,9.08 1.56,9.05 2.7,10.79 "/>
  <g>
   <path id="Fill-125" fill="#E6E7E8" fill-rule="nonzero" d="M1.52 9.07l1.06 1.87 -1.06 -1.87zm0 0l0 0 0 0z"/>
  </g>
  <polygon id="Fill-126" fill="#E6E7E8" fill-rule="nonzero" points="2.55,10.96 1.49,9.09 1.54,9.06 2.6,10.93 "/>
  <g>
   <path id="Fill-127" fill="#E6E7E8" fill-rule="nonzero" d="M1.5 9.09l0.98 2.01 -0.98 -2.01zm0 0l0 0 0 0z"/>
  </g>
  <polygon id="Fill-128" fill="#E6E7E8" fill-rule="nonzero" points="2.45,11.12 1.48,9.1 1.53,9.07 2.51,11.09 "/>
  <g>
   <path id="Fill-129" fill="#E6E7E8" fill-rule="nonzero" d="M1.49 9.1l0.91 2.21 -0.91 -2.21zm0 0l0 0 0 0z"/>
  </g>
  <polygon id="Fill-130" fill="#E6E7E8" fill-rule="nonzero" points="2.37,11.33 1.46,9.11 1.52,9.09 2.43,11.3 "/>
  <g>
   <path id="Fill-131" fill="#E6E7E8" fill-rule="nonzero" d="M1.48 9.11l0.87 2.54 -0.87 -2.54zm0 0l0 0 0 0z"/>
  </g>
  <polygon id="Fill-132" fill="#E6E7E8" fill-rule="nonzero" points="2.32,11.66 1.45,9.12 1.5,9.1 2.38,11.64 "/>
  <path id="Fill-133" fill="#E6E7E8" fill-rule="nonzero" d="M1.21 8.79l0.12 0.1 -0.04 0.16 0.13 -0.09 0.13 0.09 -0.04 -0.16 0.13 -0.1 -0.16 -0.01 -0.06 -0.14 -0.06 0.14 -0.15 0.01zm0.53 0.51l-0.32 -0.2 -0.32 0.2 0.1 -0.36 -0.3 -0.25 0.38 -0.02 0.14 -0.35 0.14 0.35 0.38 0.02 -0.3 0.25 0.1 0.36z"/>
  <path id="Fill-134" fill="#E6E7E8" fill-rule="nonzero" d="M3.21 11.89c0,0.01 0.04,0.04 0.12,0.07 0.06,0.02 0.08,0.1 0.1,0.15 0,0.01 0,0.01 0,0.02 0.01,0.02 0.01,0.05 0.01,0.16 0,0.03 0,0.08 0,0.09 0,0.01 0,0.04 0.01,0.1 0,0.05 0.01,0.13 0.01,0.17 0.01,-0.01 0.02,-0.01 0.02,-0.01 0.02,-0.05 0.07,-0.19 0.09,-0.3 0.02,-0.1 0.03,-0.12 0.06,-0.15 0.01,-0.01 0.02,-0.02 0.02,-0.03 0.05,-0.05 0.11,-0.11 0.15,-0.14 0.02,-0.02 0.08,-0.14 0.07,-0.2 0,-0.02 -0.06,-0.06 -0.17,-0.09 -0.03,-0.01 -0.18,-0.07 -0.21,-0.09 -0.02,-0.02 -0.23,-0.19 -0.27,-0.21 -0.06,-0.03 -0.17,-0.19 -0.18,-0.26 -0.01,-0.07 0.05,-0.15 0.07,-0.18 0.01,0 0.03,-0.02 0.05,-0.02 0.02,0 0.03,0.01 0.05,0.02 0.01,0 0.01,0 0.02,0 0.05,0.01 0.09,0.06 0.09,0.1l0 0.02c0.01,-0.01 0.01,-0.02 0.02,-0.04 0.02,-0.06 0.09,-0.11 0.15,-0.14 0.01,0 0.02,-0.01 0.04,-0.01 0.03,0 0.06,0.03 0.08,0.04 0.01,0.01 0.01,0.01 0.02,0.01 0,0 0.02,-0.01 0.03,-0.02 0.01,-0.01 0.02,-0.02 0.02,-0.04 -0.01,-0.06 -0.01,-0.08 -0.01,-0.11 0,-0.02 0.01,-0.04 0.01,-0.07 -0.01,0.01 -0.01,0.01 -0.01,0.01 -0.02,0.01 -0.05,0.02 -0.08,0.02 -0.01,0 -0.04,0.03 -0.06,0.05 -0.03,0.03 -0.06,0.06 -0.09,0.07 -0.07,0.02 -0.13,-0.03 -0.14,-0.11 0,-0.03 0,-0.07 -0.01,-0.11 -0.06,0.04 -0.17,0.09 -0.26,0.15 -0.06,0.05 -0.19,0.22 -0.25,0.31 0.02,0.02 0.1,0.05 0.15,0.05 0.06,0.01 0.1,0.08 0.14,0.15 0,0.01 0,0.02 0.01,0.02 0.01,0.01 0.03,0.03 0.05,0.04 0.08,0.05 0.11,0.08 0.12,0.11 0.01,0 0.02,0.01 0.03,0.02 0.03,0.01 0.07,0.03 0.06,0.07 -0.01,0.03 -0.05,0.05 -0.1,0.08 -0.01,0.01 -0.03,0.01 -0.04,0.02 -0.01,0.02 0,0.1 0,0.14 0.01,0.03 0.01,0.06 0.01,0.07zm0.24 0.76l0 0.04 0 -0.04 0 0zm0 0.08c-0.03,0 -0.05,-0.02 -0.06,-0.04 0,-0.02 -0.01,-0.08 -0.02,-0.21 0,-0.04 -0.01,-0.08 -0.01,-0.09 0,-0.01 0,-0.05 0,-0.1 0,-0.05 0,-0.12 0,-0.13 0,-0.01 -0.01,-0.02 -0.01,-0.03 -0.01,-0.02 -0.02,-0.09 -0.05,-0.1 -0.18,-0.06 -0.17,-0.12 -0.17,-0.14 0,-0.01 0,-0.04 0,-0.07 -0.01,-0.1 -0.02,-0.18 0.03,-0.2 0.01,-0.01 0.03,-0.02 0.05,-0.03 0.01,-0.01 0.02,-0.01 0.03,-0.02 -0.02,-0.01 -0.05,-0.03 -0.06,-0.06 -0.01,-0.01 -0.06,-0.04 -0.09,-0.06 -0.03,-0.03 -0.06,-0.04 -0.07,-0.05 -0.01,-0.01 -0.01,-0.02 -0.02,-0.04 -0.05,-0.09 -0.07,-0.11 -0.08,-0.11 -0.05,-0.01 -0.18,-0.04 -0.21,-0.1 -0.01,-0.03 -0.01,-0.05 0,-0.07 0.03,-0.05 0.19,-0.27 0.28,-0.33 0.12,-0.09 0.31,-0.18 0.32,-0.18 0.01,0 0.02,0 0.03,0 0.01,0.01 0.02,0.02 0.02,0.03 0,0 0.02,0.11 0.02,0.16 0,0.03 0.02,0.05 0.04,0.05 0.01,-0.01 0.04,-0.04 0.06,-0.05 0.04,-0.04 0.07,-0.08 0.11,-0.08l0.01 0c0.01,0 0.03,-0.01 0.04,-0.01 0.01,-0.01 0.03,-0.02 0.05,-0.02 0.02,0 0.06,0.01 0.06,0.08 0,0.04 0,0.06 0,0.08 0,0.02 0,0.04 0,0.09 0.01,0.03 0,0.07 -0.03,0.1 -0.04,0.04 -0.1,0.06 -0.13,0.04 -0.01,-0.01 -0.02,-0.01 -0.02,-0.02 -0.02,-0.01 -0.03,-0.02 -0.04,-0.02 -0.01,0 -0.01,0 -0.01,0 -0.05,0.02 -0.09,0.06 -0.11,0.1 -0.02,0.06 -0.07,0.11 -0.11,0.11 -0.01,0 -0.01,-0.01 -0.02,-0.01 -0.04,-0.01 -0.04,-0.06 -0.04,-0.11 0,-0.01 -0.01,-0.02 -0.02,-0.02 -0.01,0 -0.02,-0.01 -0.04,-0.01 0,0 -0.01,-0.01 -0.02,-0.01 -0.02,0.02 -0.05,0.07 -0.04,0.11 0.01,0.05 0.1,0.19 0.13,0.2 0.06,0.02 0.28,0.21 0.3,0.22 0.01,0.01 0.12,0.06 0.17,0.07 0.1,0.03 0.21,0.08 0.23,0.16 0.01,0.09 -0.05,0.23 -0.11,0.27 -0.03,0.03 -0.08,0.08 -0.13,0.13 -0.01,0.01 -0.01,0.02 -0.02,0.03 -0.02,0.02 -0.03,0.03 -0.04,0.12 -0.03,0.13 -0.1,0.31 -0.1,0.32 0,0.01 -0.01,0.01 -0.02,0.02 -0.01,0.01 -0.05,0.03 -0.08,0.03z"/>
  <g>
   <path id="Fill-135" fill="#E6E7E8" fill-rule="nonzero" d="M4.03 10.84c0,0 0,0 0.01,0 0,-0.02 0.01,-0.08 0.01,-0.1 0,-0.02 0,-0.04 0,-0.04 0.01,-0.02 0.02,-0.05 0.04,-0.08 -0.08,-0.02 -0.16,-0.03 -0.2,-0.04l-0.01 0.03c0.01,0.03 0.01,0.07 0.02,0.08 0.01,0.02 0.02,0.03 0.05,0.05 0.04,0.02 0.07,0.06 0.08,0.1l0 0zm0.02 0.08c-0.06,0 -0.1,-0.03 -0.1,-0.07 0,-0.01 -0.02,-0.04 -0.03,-0.04 -0.04,-0.02 -0.07,-0.04 -0.09,-0.08 -0.02,-0.04 -0.02,-0.11 -0.03,-0.12 0,0 0.01,-0.01 0.01,-0.02l0.02 -0.06c0,-0.02 0.02,-0.03 0.04,-0.03 0,0 0.15,0.01 0.29,0.07 0.01,0 0.02,0.01 0.02,0.02 0,0.01 0,0.02 0,0.03 -0.02,0.04 -0.05,0.08 -0.05,0.09 0,0 0,0.02 0,0.03 -0.01,0.11 -0.02,0.18 -0.07,0.18 0,0 -0.01,0 -0.01,0z"/>
  </g>
  <g>
   <path id="Fill-136" fill="#E6E7E8" fill-rule="nonzero" d="M4.51 11.63c0,0.01 0.01,0.03 0.02,0.05 0,0.02 0.01,0.04 0.02,0.05 0.02,0.02 0.03,0.05 0.04,0.08 0,0.03 0.01,0.05 0.03,0.07 0.03,0.04 0.05,0.08 0.06,0.13 0,0 0.01,0.03 0.02,0.04 0.01,0.03 0.03,0.06 0.03,0.09 0,0.01 0,0.03 0,0.05 0,0.02 0,0.05 0,0.06 0,0 0.01,0 0.01,0.01 0.04,-0.08 0.1,-0.2 0.12,-0.34 0.05,-0.27 0,-0.56 -0.05,-0.65 -0.05,-0.09 -0.26,-0.38 -0.31,-0.43 -0.04,-0.03 -0.07,-0.05 -0.09,-0.07 -0.02,0.02 -0.04,0.04 -0.06,0.04 0,0 0,0.01 0,0.01 0,0 0,0.01 0.02,0.04 0.01,0 0.01,0 0.01,0.01 0.01,0.01 0.03,0.03 0.03,0.06 0,0.01 0.01,0.01 0.01,0.02 0,0.01 0,0.03 0,0.07 0,0.05 -0.03,0.08 -0.05,0.09 -0.01,0.01 -0.02,0.03 -0.04,0.05 0,0.01 -0.01,0.02 -0.01,0.02 -0.01,0 -0.05,0.02 -0.08,0.01 0,0 -0.02,0 -0.03,0 0,0.01 -0.01,0.01 -0.01,0.01 0,0 0,0.01 0,0.01 0.01,0.02 0.02,0.05 0.01,0.08 -0.01,0.01 -0.02,0.03 -0.02,0.05 0.01,0 0.02,0.01 0.05,0.01 0.01,0 0.04,-0.01 0.06,-0.02 0,-0.03 0.01,-0.06 0.01,-0.08 0,0 0,0 0,0 0.01,-0.03 0.03,-0.07 0.07,-0.08l0 0c0.03,-0.01 0.06,-0.01 0.08,0 0.02,0 0.04,0.02 0.07,0.04 0.01,0 0.02,0 0.04,0.01 0.04,0.01 0.06,0.01 0.08,0.01 0,0 0,0 0,0 0.01,-0.01 0.03,-0.02 0.05,-0.02 0.02,0 0.05,0.01 0.05,0.01 0.02,0.01 0.03,0.03 0.03,0.05 0,0.02 -0.01,0.05 -0.01,0.05 0.02,0.03 0.02,0.05 0.03,0.07 0,0.02 -0.01,0.04 -0.02,0.05 0,0 -0.05,0.06 -0.09,0.06 0,0 -0.05,0.01 -0.09,0.02 -0.03,0.02 -0.06,0.03 -0.07,0.04 0,0.01 -0.02,0.05 -0.02,0.07l0 0zm0.17 0.82c0,0 -0.01,-0.01 -0.01,-0.01 -0.02,-0.01 -0.03,-0.02 -0.03,-0.04 0.01,-0.05 0.02,-0.11 0.02,-0.13 0,-0.02 -0.01,-0.04 -0.01,-0.08 0,-0.02 0,-0.03 0,-0.05 0,-0.01 -0.01,-0.04 -0.02,-0.05 -0.02,-0.03 -0.03,-0.05 -0.03,-0.07 0,-0.03 -0.02,-0.06 -0.04,-0.09 -0.03,-0.03 -0.04,-0.06 -0.05,-0.09 0,-0.03 -0.01,-0.05 -0.02,-0.06 -0.02,-0.02 -0.03,-0.06 -0.04,-0.08 0,-0.01 -0.01,-0.02 -0.01,-0.02 -0.04,-0.05 0.03,-0.17 0.03,-0.17 0.02,-0.02 0.07,-0.04 0.11,-0.06l0 0c0.07,-0.02 0.09,-0.03 0.11,-0.03 0,0 0.02,-0.02 0.03,-0.03 -0.01,-0.01 -0.01,-0.02 -0.02,-0.04 0,-0.01 0,-0.04 0,-0.06l0 0c-0.01,0.01 -0.02,0.01 -0.04,0.02 -0.04,0 -0.07,0 -0.11,-0.02 -0.02,-0.01 -0.02,-0.01 -0.02,-0.01 -0.02,0.01 -0.03,0 -0.04,-0.01 -0.03,-0.02 -0.05,-0.03 -0.06,-0.03 0,0 -0.02,0 -0.03,0l0 0c-0.01,0.01 -0.01,0.02 -0.02,0.03 0,0.03 0,0.07 0,0.07 0,0.06 -0.11,0.09 -0.15,0.09 0,0 -0.01,0 -0.01,0 -0.09,-0.02 -0.11,-0.04 -0.11,-0.06 -0.01,-0.03 0.02,-0.1 0.03,-0.12 0,0 -0.01,-0.01 -0.01,-0.01 -0.01,-0.02 -0.02,-0.05 0,-0.07 0.01,-0.02 0.03,-0.04 0.04,-0.05 0.01,0 0.02,-0.01 0.02,-0.01 0.01,0 0.05,0.01 0.07,0.01 0,0 0.01,0 0.01,-0.01 0.02,-0.01 0.03,-0.04 0.05,-0.05l0 0c0.01,-0.02 0.02,-0.03 0.02,-0.05 0,-0.02 0,-0.03 0,-0.05 0,-0.01 0,-0.01 0,-0.02 0,-0.01 -0.01,-0.01 -0.02,-0.02 0,-0.01 -0.01,-0.01 -0.01,-0.02 -0.03,-0.04 -0.04,-0.06 -0.04,-0.08 0,-0.03 0.02,-0.06 0.05,-0.08 0.01,0 0.04,-0.02 0.06,-0.04 0.01,-0.02 0.03,-0.02 0.05,-0.01 0,0 0.05,0.04 0.12,0.09 0.06,0.06 0.27,0.35 0.33,0.45 0.06,0.11 0.11,0.41 0.06,0.71 -0.05,0.28 -0.22,0.48 -0.23,0.49 -0.01,0.01 -0.02,0.02 -0.03,0.02z"/>
  </g>
  <path id="Fill-137" fill="#E6E7E8" fill-rule="nonzero" d="M10.08 13.74l0 0.43 0.89 -1.15c-0.02,-0.02 -0.05,-0.06 -0.06,-0.1 -0.01,-0.06 -0.01,-0.08 -0.01,-0.14l-0.82 0.96zm-0.06 0.66c0,0 -0.01,0 -0.02,0 -0.02,-0.01 -0.03,-0.03 -0.03,-0.06l0 -0.63c0,-0.01 0,-0.02 0.01,-0.03l0.94 -1.1c0.02,-0.02 0.04,-0.03 0.07,-0.02 0.02,0.01 0.03,0.03 0.03,0.06l0 0.08c0,0.13 0,0.13 0.01,0.19 0.01,0.05 0.05,0.07 0.05,0.07 0.01,0.01 0.03,0.02 0.03,0.04 0.01,0.02 0,0.03 -0.01,0.05l-1.03 1.33c-0.01,0.01 -0.03,0.02 -0.05,0.02z"/>
  <g>
   <path id="Fill-138" fill="#E6E7E8" fill-rule="nonzero" d="M8.89 10.07l-0.03 2c0.1,-0.07 0.27,-0.14 0.55,-0.14 0.19,0 0.41,0.03 0.65,0.1 0.01,-0.52 0,-1.66 0,-1.98 -0.07,0.03 -0.19,0.06 -0.32,0.06 -0.08,0 -0.16,-0.02 -0.22,-0.04 -0.15,-0.07 -0.24,-0.09 -0.34,-0.09 -0.09,0 -0.18,0.03 -0.29,0.09l0 0zm-0.09 2.19c-0.01,0 -0.01,0 -0.02,0 -0.02,-0.01 -0.04,-0.03 -0.04,-0.06l0.04 -2.16c0,-0.02 0.01,-0.04 0.03,-0.05 0.13,-0.09 0.25,-0.13 0.37,-0.13 0.14,0 0.27,0.05 0.38,0.1 0.06,0.02 0.12,0.03 0.18,0.03 0.18,0 0.35,-0.08 0.35,-0.08 0.02,-0.01 0.04,-0.01 0.06,0 0.02,0.01 0.03,0.03 0.03,0.05 0,0.02 0.01,1.6 0,2.14 0,0.02 -0.01,0.04 -0.02,0.05 -0.02,0.01 -0.04,0.01 -0.05,0.01 -0.27,-0.07 -0.5,-0.11 -0.7,-0.11 -0.44,0 -0.56,0.18 -0.56,0.18 -0.01,0.02 -0.03,0.03 -0.05,0.03z"/>
  </g>
  <g>
   <path id="Fill-139" fill="#E6E7E8" fill-rule="nonzero" d="M8.24 11.96c0.22,0 0.38,0.04 0.49,0.11 0.02,-0.8 0.04,-1.8 0.05,-2 -0.03,-0.01 -0.09,-0.03 -0.18,-0.03 -0.11,0 -0.23,0.04 -0.36,0.11 -0.22,0.14 -0.45,0.16 -0.61,0.16 -0.05,0 -0.1,0 -0.14,0l0.02 1.75c0.14,-0.03 0.44,-0.1 0.73,-0.1l0 0zm0.55 0.3c-0.02,0 -0.04,-0.01 -0.05,-0.03 -0.07,-0.1 -0.24,-0.15 -0.5,-0.15 -0.36,0 -0.76,0.1 -0.77,0.11 -0.02,0 -0.03,0 -0.05,-0.02 -0.01,-0.01 -0.02,-0.02 -0.02,-0.04l-0.03 -1.89c0,-0.02 0.01,-0.04 0.03,-0.05 0.01,-0.01 0.03,-0.01 0.05,-0.01 0,0 0.07,0.02 0.18,0.02 0.14,0 0.35,-0.03 0.55,-0.15 0.15,-0.08 0.29,-0.13 0.42,-0.13 0.17,0 0.26,0.07 0.27,0.07 0.02,0.01 0.03,0.03 0.03,0.05 0,0 -0.03,1.25 -0.05,2.16 0,0.02 -0.02,0.05 -0.04,0.05 -0.01,0 -0.02,0.01 -0.02,0.01z"/>
  </g>
  <g>
   <path id="Fill-140" fill="#E6E7E8" fill-rule="nonzero" d="M8.24 11.96c0.22,0 0.38,0.04 0.49,0.11 0.02,-0.8 0.04,-1.8 0.05,-2 -0.03,-0.01 -0.09,-0.03 -0.18,-0.03 -0.11,0 -0.23,0.04 -0.36,0.11 -0.22,0.14 -0.45,0.16 -0.61,0.16 -0.05,0 -0.1,0 -0.14,0l0.02 1.75c0.14,-0.03 0.44,-0.1 0.73,-0.1l0 0zm0.55 0.3c-0.02,0 -0.04,-0.01 -0.05,-0.03 -0.07,-0.1 -0.24,-0.15 -0.5,-0.15 -0.36,0 -0.76,0.1 -0.77,0.11 -0.02,0 -0.03,0 -0.05,-0.02 -0.01,-0.01 -0.02,-0.02 -0.02,-0.04l-0.03 -1.89c0,-0.02 0.01,-0.04 0.03,-0.05 0.01,-0.01 0.03,-0.01 0.05,-0.01 0,0 0.07,0.02 0.18,0.02 0.14,0 0.35,-0.03 0.55,-0.15 0.15,-0.08 0.29,-0.13 0.42,-0.13 0.17,0 0.26,0.07 0.27,0.07 0.02,0.01 0.03,0.03 0.03,0.05 0,0 -0.03,1.25 -0.05,2.16 0,0.02 -0.02,0.05 -0.04,0.05 -0.01,0 -0.02,0.01 -0.02,0.01z"/>
  </g>
  <path id="Fill-141" fill="#E6E7E8" fill-rule="nonzero" d="M9.96 12.99l0.01 0.31 0.76 -0.87c-0.02,-0.02 -0.04,-0.05 -0.05,-0.09 -0.01,-0.04 -0.01,-0.06 -0.01,-0.11l-0.71 0.76zm-0.04 0.52c-0.01,0 -0.02,0 -0.02,0 -0.03,-0.01 -0.04,-0.03 -0.04,-0.05l-0.02 -0.49c0,-0.02 0.01,-0.03 0.02,-0.04l0.83 -0.89c0.01,-0.02 0.04,-0.02 0.06,-0.01 0.02,0.01 0.04,0.03 0.04,0.05l-0.01 0.07c0,0.11 0,0.12 0.01,0.17 0.01,0.03 0.04,0.05 0.04,0.05 0.02,0 0.03,0.02 0.04,0.04 0,0.02 0,0.03 -0.01,0.05l-0.9 1.03c-0.01,0.02 -0.03,0.02 -0.04,0.02z"/>
  <path id="Fill-142" fill="#E6E7E8" fill-rule="nonzero" d="M10.73 12.12l-0.01 0 -0.31 -0.02c-0.03,-0.01 -0.06,-0.03 -0.06,-0.07 0.01,-0.03 0.03,-0.05 0.07,-0.05l0.31 0.03c0.04,0 0.06,0.03 0.06,0.06 -0.01,0.03 -0.03,0.05 -0.06,0.05z"/>
  <path id="Fill-143" fill="#E6E7E8" fill-rule="nonzero" d="M6.93 12.39c0,0 -0.03,0 -0.04,0.02 -0.02,0.02 -0.03,0.05 -0.03,0.1 0,0.15 0.1,0.18 0.11,0.18l2.87 0.7 0.01 -0.4 -2.92 -0.6zm2.97 1.13c0,0 -0.01,0 -0.01,0l-2.95 -0.72c-0.06,-0.01 -0.2,-0.09 -0.2,-0.28 0,-0.09 0.02,-0.15 0.06,-0.19 0.07,-0.07 0.15,-0.06 0.15,-0.06 0,0 0,0 0,0l2.97 0.62c0.02,0.01 0.04,0.03 0.04,0.06l0 0.51c0,0.02 -0.01,0.04 -0.02,0.05 -0.01,0.01 -0.02,0.01 -0.04,0.01z"/>
  <path id="Fill-144" fill="#E6E7E8" fill-rule="nonzero" d="M6.85 12.42c-0.01,0 -0.03,-0.01 -0.04,-0.02 -0.02,-0.03 -0.02,-0.06 0,-0.09l0.34 -0.3c0.02,-0.02 0.06,-0.02 0.08,0.01 0.02,0.02 0.02,0.06 0,0.08l-0.34 0.3c-0.01,0.01 -0.02,0.02 -0.04,0.02z"/>
  <path id="Fill-145" fill="#E6E7E8" fill-rule="nonzero" d="M7.48 12.93c-0.03,0 -0.06,-0.03 -0.06,-0.06l0 -0.41c0,-0.03 0.03,-0.06 0.06,-0.06 0.03,0 0.06,0.03 0.06,0.06l0 0.41c0,0.03 -0.03,0.06 -0.06,0.06z"/>
  <path id="Fill-146" fill="#E6E7E8" fill-rule="nonzero" d="M7.76 13c-0.03,0 -0.06,-0.03 -0.06,-0.06l0 -0.4c0,-0.03 0.03,-0.05 0.06,-0.05 0.03,0 0.06,0.02 0.06,0.05l0 0.4c0,0.03 -0.03,0.06 -0.06,0.06z"/>
  <path id="Fill-147" fill="#E6E7E8" fill-rule="nonzero" d="M9.02 13.29c-0.03,0 -0.06,-0.03 -0.06,-0.06l0 -0.42c0,-0.04 0.03,-0.06 0.06,-0.06 0.03,0 0.06,0.02 0.06,0.06l0 0.42c0,0.03 -0.03,0.06 -0.06,0.06z"/>
  <path id="Fill-148" fill="#E6E7E8" fill-rule="nonzero" d="M6.62 12.96c-0.04,0.01 -0.11,0.03 -0.11,0.16 0,0.18 0.12,0.21 0.13,0.21l3.31 0.93 0 -0.49 -3.33 -0.81zm3.39 1.44c-0.01,0 -0.01,0 -0.02,-0.01l-3.37 -0.94c-0.08,-0.02 -0.22,-0.11 -0.22,-0.33 0,-0.2 0.12,-0.27 0.22,-0.27 0.01,0 0.01,0 0.01,0 0,0 0.01,0 0.01,0l3.38 0.82c0.03,0 0.05,0.03 0.05,0.05l0 0.62c0,0.02 -0.01,0.03 -0.03,0.04 -0.01,0.01 -0.02,0.02 -0.03,0.02z"/>
  <path id="Fill-149" fill="#E6E7E8" fill-rule="nonzero" d="M6.52 13c-0.01,0 -0.03,-0.01 -0.04,-0.02 -0.02,-0.03 -0.02,-0.06 0,-0.08l0.31 -0.27c0.02,-0.02 0.06,-0.02 0.08,0.01 0.02,0.02 0.02,0.06 -0.01,0.08l-0.3 0.26c-0.01,0.01 -0.02,0.02 -0.04,0.02z"/>
  <path id="Fill-150" fill="#E6E7E8" fill-rule="nonzero" d="M10.97 12.66l-0.01 0 -0.27 -0.03c-0.03,0 -0.05,-0.03 -0.05,-0.06 0,-0.03 0.03,-0.06 0.06,-0.05l0.27 0.02c0.03,0.01 0.06,0.03 0.05,0.07 0,0.03 -0.02,0.05 -0.05,0.05z"/>
  <path id="Fill-151" fill="#E6E7E8" fill-rule="nonzero" d="M6.98 13.52c-0.02,0 -0.04,-0.02 -0.04,-0.04l0 -0.46c0,-0.02 0.02,-0.04 0.04,-0.04 0.02,0 0.04,0.02 0.04,0.04l0 0.46c0,0.02 -0.02,0.04 -0.04,0.04z"/>
  <path id="Fill-152" fill="#E6E7E8" fill-rule="nonzero" d="M8.94 14.07c-0.02,0 -0.04,-0.02 -0.04,-0.04l0 -0.54c0,-0.02 0.02,-0.04 0.04,-0.04 0.02,0 0.04,0.02 0.04,0.04l0 0.54c0,0.02 -0.02,0.04 -0.04,0.04z"/>
  <g>
   <path id="Fill-153" fill="#E6E7E8" fill-rule="nonzero" d="M8.4 9.69c0.08,0.15 0.23,0.24 0.4,0.24 0.17,0 0.32,-0.09 0.4,-0.24 -0.04,0.02 -0.1,0.03 -0.15,0.04 -0.02,0 -0.04,-0.01 -0.04,-0.03 -0.01,-0.01 0,-0.03 0.01,-0.04 0.06,-0.04 0.1,-0.12 0.14,-0.19 -0.05,0.01 -0.1,0.03 -0.15,0.03 -0.02,0.01 -0.04,0 -0.04,-0.02 -0.01,-0.02 0,-0.04 0.01,-0.05 0.04,-0.02 0.07,-0.08 0.1,-0.15 -0.04,0.02 -0.08,0.03 -0.12,0.03 -0.01,0 -0.03,0 -0.03,-0.01 -0.1,-0.09 -0.12,-0.22 -0.13,-0.31l0 0c0,0.01 0,0.01 0,0.01 -0.02,0.09 -0.04,0.22 -0.13,0.31 -0.01,0.01 -0.02,0.01 -0.03,0.01 -0.04,0 -0.08,-0.01 -0.11,-0.03 0.02,0.06 0.06,0.12 0.09,0.14 0.01,0.01 0.02,0.03 0.01,0.05 0,0.01 -0.02,0.03 -0.04,0.02 -0.05,0 -0.1,-0.02 -0.14,-0.03 0.03,0.07 0.08,0.15 0.13,0.19 0.01,0.01 0.02,0.03 0.01,0.04 0,0.02 -0.02,0.03 -0.04,0.03 -0.05,-0.01 -0.1,-0.02 -0.15,-0.04l0 0zm0.4 0.32c-0.24,0 -0.44,-0.15 -0.5,-0.38 -0.01,-0.01 0,-0.03 0.01,-0.04 0.01,-0.01 0.03,-0.01 0.04,0 0,0 0.04,0.02 0.09,0.03 -0.04,-0.06 -0.08,-0.15 -0.1,-0.21 0,-0.02 0,-0.03 0.02,-0.04 0.01,-0.01 0.02,-0.02 0.04,-0.01 0,0 0.04,0.02 0.09,0.04 -0.03,-0.05 -0.05,-0.11 -0.07,-0.17 0,-0.01 0.01,-0.03 0.02,-0.04 0.01,-0.01 0.03,-0.01 0.04,0 0,0 0.08,0.04 0.15,0.05 0.06,-0.07 0.08,-0.17 0.09,-0.25 0.01,-0.07 0.02,-0.13 0.08,-0.13 0.05,0 0.06,0.05 0.07,0.12 0.02,0.08 0.03,0.18 0.1,0.25 0.07,-0.01 0.16,-0.04 0.16,-0.04 0.01,-0.01 0.03,-0.01 0.04,0 0.01,0.01 0.01,0.03 0.01,0.04 -0.02,0.06 -0.04,0.12 -0.07,0.17 0.05,-0.02 0.09,-0.04 0.09,-0.04 0.02,-0.01 0.03,0 0.05,0.01 0.01,0.01 0.01,0.02 0.01,0.04 -0.02,0.06 -0.05,0.15 -0.1,0.21 0.05,-0.01 0.09,-0.03 0.09,-0.03 0.01,-0.01 0.03,-0.01 0.04,0 0.01,0.01 0.02,0.03 0.02,0.04 -0.07,0.23 -0.27,0.38 -0.51,0.38z"/>
  </g>
  <path id="Fill-154" fill="#E6E7E8" fill-rule="nonzero" d="M2.8 5.59c-0.02,0 -0.04,-0.01 -0.05,-0.02 -0.02,-0.02 -0.01,-0.06 0.01,-0.08l0.44 -0.37c0.03,-0.02 0.06,-0.02 0.08,0 0.02,0.03 0.02,0.07 0,0.09l-0.45 0.37c-0.01,0.01 -0.02,0.01 -0.03,0.01z"/>
  <path id="Fill-155" fill="#E6E7E8" fill-rule="nonzero" d="M2.78 5.93c-0.02,0 -0.03,0 -0.04,-0.02 -0.02,-0.02 -0.02,-0.06 0,-0.08l0.46 -0.37c0.02,-0.02 0.06,-0.02 0.08,0 0.02,0.03 0.01,0.07 -0.01,0.09l-0.45 0.37c-0.01,0.01 -0.03,0.01 -0.04,0.01z"/>
  <path id="Fill-156" fill="#E6E7E8" fill-rule="nonzero" d="M2.57 6.03c0.04,0.22 0.23,0.39 0.46,0.39 0.23,0 0.42,-0.17 0.46,-0.39l-0.92 0zm0.46 0.5c-0.32,0 -0.57,-0.24 -0.58,-0.56 0,-0.01 0.01,-0.03 0.02,-0.04 0.01,-0.01 0.02,-0.02 0.04,-0.02l1.04 0c0.02,0 0.03,0.01 0.04,0.02 0.01,0.01 0.02,0.03 0.02,0.04 -0.01,0.32 -0.27,0.56 -0.58,0.56z"/>
  <path id="Fill-157" fill="#E6E7E8" fill-rule="nonzero" d="M2.31 5.1l1.44 0 0 -0.14 -1.44 0 0 0.14zm1.5 0.12l-1.56 0c-0.03,0 -0.06,-0.03 -0.06,-0.06l0 -0.26c0,-0.03 0.03,-0.06 0.06,-0.06l1.56 0c0.03,0 0.06,0.03 0.06,0.06l0 0.26c0,0.03 -0.03,0.06 -0.06,0.06z"/>
  <path id="Fill-158" fill="#E6E7E8" fill-rule="nonzero" d="M2.82 5.91l0.38 0 -0.03 -0.69 -0.31 0 -0.04 0.69zm0.45 0.12l0 0 -0.51 0c-0.01,0 -0.03,-0.01 -0.04,-0.02 -0.01,-0.01 -0.02,-0.03 -0.01,-0.04l0.04 -0.81c0,-0.03 0.02,-0.06 0.05,-0.06l0.43 0c0.03,0 0.05,0.03 0.05,0.06l0.04 0.8c0,0 0,0 0,0.01 0,0.03 -0.02,0.06 -0.05,0.06z"/>
  <path id="Fill-159" fill="#E6E7E8" fill-rule="nonzero" d="M3.82 3.21c0.02,0.39 0.33,0.7 0.73,0.7 0.39,0 0.7,-0.31 0.72,-0.7l-0.76 -1.74 -1.47 0c-0.01,0 -0.02,0 -0.03,0 0,0 -0.01,0 -0.02,0l-1.45 0 -0.77 1.74c0.02,0.39 0.34,0.7 0.73,0.7 0.39,0 0.71,-0.31 0.73,-0.7l-0.69 -1.55c-0.01,-0.02 0,-0.04 0.01,-0.06 0.01,-0.02 0.03,-0.03 0.05,-0.03l1.38 0c0.01,0 0.02,0.01 0.03,0.01 0.01,0 0.02,-0.01 0.04,-0.01l1.4 0c0.02,0 0.04,0.01 0.05,0.03 0.01,0.02 0.01,0.04 0,0.06l-0.68 1.55zm-0.94 1.63l0.27 0 -0.14 -2.73 -0.13 2.73zm0.33 0.12l0 0 -0.39 0c-0.02,0 -0.03,-0.01 -0.05,-0.02 -0.01,-0.01 -0.01,-0.03 -0.01,-0.04l0.16 -3.21 -1.24 0 0.66 1.49c0,0 0.01,0.01 0.01,0.02 -0.02,0.46 -0.39,0.82 -0.85,0.82 -0.46,0 -0.83,-0.36 -0.84,-0.82 0,-0.01 0,-0.02 0,-0.02l0.79 -1.79c0.01,-0.02 0.03,-0.03 0.05,-0.03l1.43 0 0.03 -0.41c0,-0.03 0.02,-0.05 0.05,-0.05 0.03,0 0.06,0.02 0.06,0.05l0.02 0.41 1.46 0c0.02,0 0.04,0.01 0.05,0.03l0.78 1.79c0.01,0 0.01,0.01 0.01,0.02 -0.01,0.46 -0.38,0.82 -0.84,0.82 -0.47,0 -0.84,-0.36 -0.85,-0.82 0,-0.01 0,-0.02 0.01,-0.02l0.65 -1.49 -1.25 0 0.16 3.2c0,0 0,0.01 0,0.01 0,0.03 -0.03,0.06 -0.06,0.06z"/>
  <path id="Fill-160" fill="#E6E7E8" fill-rule="nonzero" d="M1.01 3.12l0.98 0 -0.49 -1.12 -0.49 1.12zm1.07 0.12l0 0 -1.16 0c-0.02,0 -0.03,-0.01 -0.05,-0.03 -0.01,-0.01 -0.01,-0.03 0,-0.05l0.58 -1.33c0.01,-0.02 0.03,-0.04 0.05,-0.04 0.02,0 0.05,0.02 0.05,0.04l0.58 1.32c0,0.01 0.01,0.02 0.01,0.03 0,0.03 -0.03,0.06 -0.06,0.06z"/>
  <path id="Fill-161" fill="#E6E7E8" fill-rule="nonzero" d="M4.06 3.12l0.97 0 -0.48 -1.12 -0.49 1.12zm1.06 0.12l0 0 -1.15 0c-0.02,0 -0.04,-0.01 -0.05,-0.03 -0.01,-0.01 -0.01,-0.03 -0.01,-0.05l0.58 -1.33c0.01,-0.02 0.03,-0.04 0.06,-0.04 0.02,0 0.04,0.02 0.05,0.04l0.57 1.32c0.01,0.01 0.01,0.02 0.01,0.03 0,0.03 -0.02,0.06 -0.06,0.06z"/>
  <g>
   <path id="Fill-162" fill="#E6E7E8" fill-rule="nonzero" d="M8.81 3.44c0.12,0 0.22,0.17 0.28,0.29 0.06,-0.1 0.13,-0.29 -0.01,-0.47 -0.06,-0.08 -0.16,-0.11 -0.32,-0.11 -0.05,0 -0.1,0 -0.15,0 -0.05,0.01 -0.1,0.01 -0.15,0.01 -0.14,0 -0.3,-0.02 -0.39,-0.17 -0.14,-0.22 -0.09,-0.44 -0.06,-0.55 0.04,-0.1 0.1,-0.21 0.17,-0.24 0.02,-0.01 0.05,0 0.07,0.02 0.07,0.09 0.16,0.16 0.2,0.16 0.04,-0.05 0.15,-0.28 0.11,-0.49 -0.04,-0.17 -0.21,-0.3 -0.4,-0.3 -0.11,0 -0.22,0.04 -0.31,0.12 0,0.01 0,0.01 0,0.01 0,0 -0.1,0.07 -0.17,0.24 -0.07,0.16 -0.14,0.45 -0.07,0.91 0.05,0.4 0.32,0.61 0.79,0.61 0.15,0 0.29,-0.02 0.36,-0.04 0.02,0 0.03,0 0.04,0 0,0 0.01,0 0.01,0l0 0zm0.26 0.47c0,0 -0.01,0 -0.01,0 -0.02,0 -0.04,-0.02 -0.04,-0.04 -0.06,-0.15 -0.15,-0.32 -0.21,-0.32 0,0 -0.02,0.01 -0.03,0.01 -0.07,0.01 -0.22,0.04 -0.38,0.04 -0.53,0 -0.84,-0.25 -0.91,-0.71 -0.13,-0.92 0.24,-1.23 0.29,-1.26 0.11,-0.1 0.24,-0.16 0.38,-0.16 0.24,0 0.46,0.17 0.51,0.39 0.06,0.27 -0.09,0.6 -0.16,0.63 -0.02,0.01 -0.04,0.01 -0.06,0.01 -0.09,0 -0.19,-0.1 -0.25,-0.16 -0.03,0.03 -0.07,0.09 -0.09,0.18 -0.03,0.1 -0.04,0.26 0.05,0.41 0.05,0.08 0.14,0.11 0.3,0.11 0.04,0 0.09,0 0.14,0 0.05,-0.01 0.11,-0.01 0.16,-0.01 0.13,0 0.3,0.02 0.41,0.16 0.22,0.27 0.06,0.58 -0.05,0.7 -0.02,0.01 -0.03,0.02 -0.05,0.02z"/>
  </g>
  <g>
   <path id="Fill-163" fill="#E6E7E8" fill-rule="nonzero" d="M8.59 3.89c-0.08,0.12 -0.24,0.4 -0.05,0.59 0.06,0.07 0.15,0.1 0.29,0.1 0.12,0 0.25,-0.02 0.37,-0.04 0.1,-0.02 0.19,-0.04 0.26,-0.04 0.07,0 0.11,0.02 0.14,0.04 0.11,-0.14 0.08,-0.22 0.04,-0.28 -0.05,-0.07 -0.13,-0.1 -0.26,-0.1 -0.06,0 -0.13,0.01 -0.2,0.02 -0.08,0.02 -0.2,0.05 -0.29,0.05 -0.09,0 -0.15,-0.02 -0.18,-0.07 -0.01,-0.02 -0.02,-0.06 -0.01,-0.1 -0.04,-0.07 -0.08,-0.13 -0.11,-0.17l0 0zm0.24 0.8c-0.17,0 -0.29,-0.04 -0.38,-0.13 -0.25,-0.26 -0.05,-0.64 0.1,-0.81 0.01,-0.01 0.03,-0.02 0.04,-0.02 0.02,0.01 0.04,0.01 0.05,0.03 0,0 0.08,0.1 0.18,0.26 0.01,0.02 0.01,0.04 0,0.06 -0.01,0.01 -0.01,0.02 -0.01,0.02 0.01,0 0.03,0.01 0.08,0.01 0.06,0 0.16,-0.01 0.26,-0.04 0.27,-0.07 0.49,-0.02 0.59,0.13 0.1,0.14 0.06,0.3 -0.1,0.47 -0.02,0.02 -0.04,0.02 -0.06,0.02 -0.02,-0.01 -0.04,-0.03 -0.04,-0.05 -0.01,-0.02 -0.03,-0.02 -0.08,-0.02 -0.06,0 -0.15,0.01 -0.24,0.03 -0.12,0.02 -0.26,0.04 -0.39,0.04z"/>
  </g>
  <g>
   <path id="Fill-164" fill="#E6E7E8" fill-rule="nonzero" d="M8.53 3.59l0.37 0.52c0.06,0 0.14,-0.01 0.22,-0.03l-0.34 -0.52c0,0 0,0 0,0 -0.05,0.01 -0.14,0.02 -0.25,0.03l0 0zm0.36 0.64c-0.01,0 -0.01,0 -0.02,0 -0.02,0 -0.03,-0.01 -0.04,-0.03l-0.46 -0.63c-0.01,-0.02 -0.01,-0.04 0,-0.06 0.01,-0.02 0.03,-0.03 0.05,-0.03 0.15,0 0.28,-0.03 0.34,-0.04 0.02,0 0.03,0 0.04,0 0,0 0.01,0 0.01,0l0 0c0.02,0 0.04,0.01 0.05,0.02l0.41 0.62c0.01,0.02 0.01,0.04 0,0.06 -0.01,0.02 -0.02,0.03 -0.04,0.03 -0.02,0.01 -0.04,0.01 -0.05,0.01 -0.08,0.02 -0.2,0.05 -0.29,0.05z"/>
  </g>
  <g>
   <path id="Fill-165" fill="#E6E7E8" fill-rule="nonzero" d="M9.22 4.76c-0.07,0.08 -0.19,0.26 -0.1,0.42 0.08,0.14 0.18,0.17 0.28,0.2 0.07,0.02 0.14,0.05 0.21,0.11 0.14,0.13 0.15,0.25 0.16,0.4 0,0.01 0,0.03 0,0.04 0,0.08 0.05,0.13 0.11,0.18 0.02,0.02 0.04,0.04 0.06,0.07 0.05,0.04 0.07,0.11 0.08,0.16 0.01,0.02 0.01,0.03 0.02,0.05 0.03,-0.1 0.06,-0.31 0.05,-0.48 0,-0.03 -0.02,-0.05 -0.06,-0.09 -0.07,-0.07 -0.16,-0.16 -0.12,-0.4 0.03,-0.15 0,-0.23 -0.11,-0.29 -0.03,-0.01 -0.07,-0.02 -0.12,-0.02 -0.04,0 -0.08,0 -0.12,0.01 -0.03,0 -0.06,0.01 -0.08,0.01 -0.01,0 -0.05,0 -0.07,-0.04 -0.01,-0.01 -0.02,-0.03 -0.01,-0.07 -0.02,-0.04 -0.09,-0.15 -0.18,-0.26l0 0zm0.82 1.77c0,0 -0.01,0 -0.01,0 -0.07,-0.01 -0.1,-0.08 -0.12,-0.15 -0.01,-0.05 -0.03,-0.1 -0.05,-0.13 -0.02,-0.02 -0.04,-0.04 -0.06,-0.05 -0.07,-0.06 -0.14,-0.13 -0.15,-0.26 0,-0.02 0,-0.03 0,-0.05 -0.01,-0.14 -0.01,-0.21 -0.12,-0.32 -0.05,-0.04 -0.1,-0.06 -0.17,-0.08 -0.11,-0.03 -0.24,-0.07 -0.34,-0.25 -0.17,-0.29 0.15,-0.6 0.17,-0.61 0.01,-0.01 0.03,-0.02 0.04,-0.02 0.02,0.01 0.03,0.01 0.04,0.02 0.18,0.23 0.23,0.33 0.25,0.38 0,0 0.01,-0.01 0.02,-0.01 0.04,0 0.09,-0.01 0.14,-0.01 0.07,0 0.13,0.01 0.17,0.04 0.21,0.1 0.2,0.28 0.17,0.41 -0.03,0.18 0.03,0.23 0.09,0.29 0.05,0.04 0.1,0.09 0.1,0.18 0,0.13 -0.02,0.51 -0.11,0.6 -0.02,0.02 -0.04,0.02 -0.06,0.02z"/>
  </g>
  <path id="Fill-166" fill="#E6E7E8" fill-rule="nonzero" d="M9.28 4.64l0.05 0.08c0.03,0.03 0.08,0.09 0.12,0.15l0.09 0.13c0,0 0,0 0,0 0.04,0 0.09,-0.01 0.14,-0.01 0.01,0 0.03,0 0.04,0l-0.24 -0.37c-0.05,0 -0.12,0.01 -0.2,0.02zm0.58 0.52c-0.01,0 -0.02,-0.01 -0.03,-0.01 -0.01,-0.01 -0.02,-0.01 -0.03,-0.02 -0.03,-0.01 -0.07,-0.02 -0.12,-0.02 -0.04,0 -0.08,0 -0.12,0.01 -0.02,0 -0.03,0 -0.04,0 -0.02,0.01 -0.04,0 -0.05,-0.02l-0.12 -0.16c-0.04,-0.06 -0.08,-0.12 -0.11,-0.16l-0.11 -0.15c-0.01,-0.01 -0.01,-0.04 0,-0.05 0,-0.02 0.02,-0.04 0.04,-0.04l0.03 0c0.12,-0.03 0.24,-0.05 0.32,-0.03 0.01,0 0.03,0.01 0.04,0.02l0.34 0.53c0.01,0.01 0.02,0.02 0.02,0.04 0,0.03 -0.03,0.06 -0.06,0.06l0 0z"/>
  <path id="Fill-167" fill="#E6E7E8" fill-rule="nonzero" d="M10.76 6.71l0.08 0.05 -0.02 -0.08 -0.8 -1.22c-0.02,0.16 0.03,0.22 0.09,0.27 0.05,0.04 0.1,0.09 0.1,0.18 0,0.01 0,0.02 0,0.03l0.55 0.77zm0.17 0.24c-0.01,0 -0.03,0 -0.03,-0.01l-0.21 -0.14c-0.01,0 -0.01,0 -0.01,-0.01l-0.58 -0.8c0,-0.01 -0.01,-0.02 -0.01,-0.03l0 -0.05c0,-0.03 -0.02,-0.05 -0.06,-0.09 -0.07,-0.07 -0.16,-0.16 -0.12,-0.4 0.01,-0.06 0.01,-0.1 0.01,-0.14 -0.01,-0.02 0.01,-0.05 0.03,-0.06 0.03,-0.01 0.06,0 0.07,0.03l0.9 1.37c0,0.01 0.01,0.01 0.01,0.02l0.05 0.24c0.01,0.02 0,0.05 -0.02,0.06 -0.01,0.01 -0.02,0.01 -0.03,0.01z"/>
  <path id="Fill-168" fill="#E6E7E8" fill-rule="nonzero" d="M10.46 10.12c-0.02,-0.01 -0.04,-0.01 -0.05,-0.01 -0.09,0.03 -0.21,0.06 -0.3,0.08l0 0.12c0.08,-0.02 0.17,-0.04 0.25,-0.06 0,0.4 0,1.66 -0.01,1.97 -0.15,-0.03 -0.52,-0.09 -0.89,-0.09 -0.26,0 -0.47,0.03 -0.62,0.09 -0.01,0.02 -0.02,0.03 -0.03,0.03 -0.01,0 -0.02,0.01 -0.02,0.01 -0.02,0 -0.04,-0.01 -0.05,-0.03 0,0 0,0 0,0 -0.12,-0.04 -0.35,-0.1 -0.66,-0.1 -0.27,0 -0.55,0.05 -0.82,0.14 0,-0.48 -0.03,-1.51 -0.03,-1.79 0.03,0.01 0.09,0.02 0.15,0.03l0 -0.12c-0.12,-0.02 -0.2,-0.03 -0.2,-0.03 -0.02,-0.01 -0.04,0 -0.05,0.01 -0.01,0.01 -0.02,0.03 -0.02,0.04 0,0.02 0.04,1.45 0.04,1.95 0,0.02 0.01,0.04 0.02,0.05 0.01,0 0.02,0.01 0.04,0.01 0,0 0.01,0 0.02,-0.01 0.28,-0.11 0.56,-0.17 0.85,-0.17 0.41,0 0.69,0.12 0.69,0.12 0.02,0.01 0.03,0.01 0.05,0 0.14,-0.07 0.35,-0.11 0.64,-0.11 0.46,0 0.93,0.09 0.94,0.09 0.02,0.01 0.03,0 0.05,-0.01 0.01,-0.01 0.02,-0.02 0.02,-0.04 0,-0.02 0.01,-1.81 0.01,-2.12 0,-0.02 -0.01,-0.04 -0.02,-0.05z"/>
  <g>
   <path id="Fill-169" fill="#E6E7E8" fill-rule="nonzero" d="M5.17 7.77c0.17,0.24 0.45,0.39 0.76,0.39 0.3,0 0.59,-0.15 0.76,-0.39 -0.17,-0.25 -0.46,-0.4 -0.76,-0.4 -0.31,0 -0.59,0.15 -0.76,0.4l0 0zm0.76 0.51c-0.36,0 -0.69,-0.18 -0.88,-0.48l-0.02 -0.03 0.02 -0.04c0.19,-0.29 0.52,-0.47 0.88,-0.47 0.36,0 0.69,0.18 0.88,0.47l0.02 0.04 -0.02 0.03c-0.19,0.3 -0.52,0.48 -0.88,0.48z"/>
  </g>
  <path id="Fill-170" fill="#E6E7E8" fill-rule="nonzero" d="M6.13 7.76c0,0.11 -0.09,0.21 -0.2,0.21 -0.11,0 -0.21,-0.1 -0.21,-0.21 0,-0.11 0.1,-0.2 0.21,-0.2 0.11,0 0.2,0.09 0.2,0.2z"/>
  <path id="Fill-171" fill="#E6E7E8" fill-rule="nonzero" d="M1.66 12.02l-0.16 0.42 0.23 -0.39 -0.07 -0.03zm-0.34 0.9l-0.09 -0.04 0.37 -1 0.27 0.13 -0.55 0.91z"/>
  <path id="Fill-172" fill="#E6E7E8" fill-rule="nonzero" d="M1.91 12.05l0.24 0.39 -0.16 -0.42 -0.08 0.03zm0.42 0.87l-0.55 -0.91 0.27 -0.13 0.36 1 -0.08 0.04z"/>
  <g>
   <path id="Fill-173" fill="#E6E7E8" fill-rule="nonzero" d="M1.83 11.64c-0.09,0 -0.17,0.07 -0.17,0.16 0,0.09 0.08,0.17 0.17,0.17 0.09,0 0.16,-0.08 0.16,-0.17 0,-0.09 -0.07,-0.16 -0.16,-0.16l0 0zm0 0.44c-0.16,0 -0.28,-0.12 -0.28,-0.28 0,-0.15 0.12,-0.28 0.28,-0.28 0.15,0 0.28,0.13 0.28,0.28 0,0.16 -0.13,0.28 -0.28,0.28z"/>
  </g>
 </g>
</svg>
