<?xml version="1.0" encoding="UTF-8"?>
<!DOCTYPE svg PUBLIC "-//W3C//DTD SVG 1.1//EN" "http://www.w3.org/Graphics/SVG/1.1/DTD/svg11.dtd">
<!-- Creator: CorelDRAW -->
<svg xmlns="http://www.w3.org/2000/svg" xml:space="preserve" width="206px" height="276px" version="1.1" shape-rendering="geometricPrecision" text-rendering="geometricPrecision" image-rendering="optimizeQuality" fill-rule="evenodd" clip-rule="evenodd"
viewBox="0 0 21.65 28.93"
 xmlns:xlink="http://www.w3.org/1999/xlink"
 xmlns:xodm="http://www.corel.com/coreldraw/odm/2003">
 <g id="Capa_x0020_1">
  <metadata id="CorelCorpID_0Corel-Layer"/>
  <path fill="#E6E7E8" d="M0.54 9.44c1.44,-0.81 3.73,-0.57 4.94,0.31 0.29,-0.76 0.12,-0.42 0.98,-0.54l1.4 0.06c0.9,0.25 0.38,-0.05 0.93,0.43 1.25,-0.55 0.74,-0.76 2.6,-0.84 -0.36,0.43 -0.17,0.45 -0.66,0.61l1.43 0.5c0.61,-0.75 -0.02,0.56 0,-0.38 0,-0.01 -0.01,-0.08 0.01,-0.11 1.59,-0.4 1.19,0.38 2.6,0.42l-0.15 -0.1c-0.48,-0.65 -0.42,0.35 -0.11,-0.29l2.08 -0.54c-0.04,-0.05 -0.11,-0.17 -0.13,-0.13l-1.47 -0.87c-4.74,-2.4 -11.07,-1.97 -14.45,1.47z"/>
  <path fill="#E6E7E8" d="M10.02 4.94c2.89,-0.25 4.8,0.44 7.56,-0.16 2.31,-0.5 3.96,-2.84 4.07,-3.99 -1.5,2.07 -6.19,0.37 -9.08,2.35l-2.55 1.8z"/>
  <path fill="#E6E7E8" d="M3.56 26.44c1.7,0.29 0.79,-0.05 1.33,0.46 -1.14,-0.01 -1.51,0.06 -2.37,-0.46 -1.19,0.15 -0.22,-0.04 -0.55,0.38 1.84,1.59 3.43,2.2 6.77,2.1 2.27,-0.07 5.71,-0.71 6.61,-2.23 -0.76,0.04 -1.69,0.15 -2.43,0.12 -0.87,-0.03 -0.98,-0.13 -1.66,-0.08 -0.59,0.25 -1.12,0.49 -1.95,0.4 -0.43,-0.05 -0.54,-0.08 -0.82,-0.33 -1.17,-1.01 0.95,0.31 -0.22,-0.39 -1.04,0.5 -1.17,-0.03 -1.38,-0.13 -1.57,-0.72 0.8,0.28 -0.5,-0.15l-0.58 -0.28c-0.93,0.63 -0.95,0.56 -2.25,0.59z"/>
  <path fill="#E6E7E8" d="M0.54 9.44l-0.54 0.81 2.02 1.37c0.39,0.22 0.66,0.47 0.87,0.65 0.02,0.02 0.42,0.38 0.43,0.39 0.59,0.36 -0.32,-0.07 0.75,0.32 -0.69,-1.11 -0.69,-1.01 -1.76,-1.7 -0.64,-0.42 -1.14,-0.84 -1.72,-1.16 1.39,-0.81 2.13,-0.78 3.8,-0.06 1.62,0.71 1.45,1.96 1.46,3.85 0.37,-0.84 0.24,-0.76 0.08,-2.08 0.7,0.62 0.34,-0.36 0.73,1.3l0.13 -0.45c-0.62,-2.17 -0.92,-2.29 -0.24,-2.87l0.48 -0.33c-1.14,0 -0.13,0.05 -0.57,-0.27 -0.86,0.12 -0.69,-0.22 -0.98,0.54 -1.21,-0.88 -3.5,-1.12 -4.94,-0.31z"/>
  <path fill="#E6E7E8" d="M11.26 26.73c0.68,-0.05 0.79,0.05 1.66,0.08 0.74,0.03 1.67,-0.08 2.43,-0.12l0.32 -0.82 -0.62 -0.04c-0.84,0.68 -2.41,0.33 -3.21,-0.16 -0.78,-1.39 -0.65,-2.55 -1.73,-3.83 0.02,2.33 0.76,2.45 1.02,4.07 -1,0.79 -1.06,0.39 -1.83,0.65 -0.7,0.24 -0.15,-0.01 -0.62,0.46l2.58 -0.29z"/>
  <path fill="#E6E7E8" d="M4.84 14.63c0.2,4.23 1.3,6.13 -1.59,9.56 -0.53,0.63 -0.17,0.13 -0.51,0.82 0.52,-0.4 0.59,-0.49 1,-0.84 0.77,-0.64 -0.01,-0.1 0.98,-0.58 1.06,-0.51 1.25,-0.67 1.65,-2.02 -1.27,0.37 -0.65,0.02 -1.49,1.02 0.36,-1.83 1.42,-6.2 -0.04,-7.96z"/>
  <path fill="#E6E7E8" d="M8.4 5.99l1.07 0c0.04,-0.96 -0.19,-2.05 -0.34,-3.03 -0.46,-3.13 0.1,-2.37 -0.86,-2.96 -0.7,0.97 -0.21,1.36 0.04,2.98 0.19,1.21 0.06,1.99 0.09,3.01z"/>
  <path fill="#E6E7E8" d="M12.5 21.16c-0.04,-1.14 -0.46,-2.35 -0.42,-3.62 0.04,-1.32 0.62,-2.5 0.62,-3.65 -0.19,0.14 -0.29,0.08 -0.53,0.59 -0.49,1.07 -0.54,3.65 -0.37,4.92 0.25,1.92 0.48,1.57 0.7,1.76z"/>
  <path fill="#E6E7E8" d="M7.86 9.27c-0.4,0.11 -0.18,0.16 -0.44,0.47l0.73 0.38c0.49,0.34 0.38,0.22 1.57,0.29 0.5,-0.88 0.15,-0.65 1.01,-0.94 0.49,-0.16 0.3,-0.18 0.66,-0.61 -1.86,0.08 -1.35,0.29 -2.6,0.84 -0.55,-0.48 -0.03,-0.18 -0.93,-0.43z"/>
  <path fill="#E6E7E8" d="M5.85 13.91c0.01,0.08 0.02,0.57 0.06,0.65 0.42,0.91 0.05,0.3 0.75,0.9 0.18,-0.78 0.57,-1.92 0.13,-2.78l-0.13 0.45c-0.39,-1.66 -0.03,-0.68 -0.73,-1.3 0.16,1.32 0.29,1.24 -0.08,2.08z"/>
  <path fill="#E6E7E8" d="M10.6 13.62c0.49,-0.13 0.16,-0.23 0.67,0.22 0.03,0.02 0.08,0.11 0.12,0.16 0.23,-0.74 0.66,-1.59 1.16,-2.05 1.01,-0.93 0.81,-0.4 1.44,-1.69 -1.99,0.25 -0.76,0.62 -1.71,1.67 -0.24,0.26 -0.6,0.39 -0.93,0.64 -0.55,0.43 -0.59,0.61 -0.75,1.05z"/>
  <path fill="#E6E7E8" d="M12.7 13.89l0.27 -0.24c0.06,-0.06 0.72,-1.25 1.69,-1.91 0.92,-0.62 1.74,-0.75 2.66,-1.47l-0.43 -0.36c-0.33,1.03 -3.86,1.36 -4.19,3.98z"/>
  <path fill="#E6E7E8" d="M11.84 24.33c0.27,-0.4 0.52,0.58 0.12,-1.07l-1.19 -3.89c-0.42,2.02 0.89,3.25 1.07,4.96z"/>
  <path fill="#E6E7E8" d="M8.27 26.41c-0.52,-0.72 0.58,-0.49 -0.48,-0.59 -0.61,-0.67 -0.14,-0.16 -0.77,-0.36l-0.61 -0.08c-1.06,0.32 -0.3,0.01 -0.6,0.47l0.58 0.28c1.3,0.43 -1.07,-0.57 0.5,0.15 0.21,0.1 0.34,0.63 1.38,0.13z"/>
  <path fill="#E6E7E8" d="M1.97 26.82c0.33,-0.42 -0.64,-0.23 0.55,-0.38 0.86,0.52 1.23,0.45 2.37,0.46 -0.54,-0.51 0.37,-0.17 -1.33,-0.46 -1.2,-0.86 -1.27,-0.9 -1.98,-0.78l0.39 1.16z"/>
  <path fill="#E6E7E8" d="M10.6 13.62c-0.82,0.65 -0.27,0.43 -0.65,1.69 -0.22,0.76 -0.45,0.83 -0.53,1.6 0.85,-0.81 0.9,-1.17 1.43,-2.22l-0.25 -1.07z"/>
  <path fill="#E6E7E8" d="M6.41 25.38l0.61 0.08c0.32,-1.71 0.96,-2.27 0.88,-4.51 -0.45,1.01 -0.68,3.63 -1.49,4.43z"/>
  <path fill="#E6E7E8" d="M12.5 21.16c-0.06,0.92 -0.02,1.19 0.78,2.26l-0.78 -2.26z"/>
  <path fill="#E6E7E8" d="M4.84 14.63c-0.01,-0.45 0.15,-0.24 -0.12,-0.8 -0.57,-1.2 -0.37,-0.45 -0.66,-0.62l0.78 1.42z"/>
  <path fill="#E6E7E8" d="M15.05 25.83l-1.1 -1.35c0.16,0.44 0.13,0.5 0.35,0.8 0.55,0.76 0.39,0.38 0.75,0.55z"/>
  <path fill="#E6E7E8" d="M13.95 24.48l-0.18 -0.84c-0.12,0.27 -0.44,-0.44 -0.14,0.51 0.14,0.42 0.14,0.2 0.32,0.33z"/>
 </g>
</svg>
