<svg width="67" height="66" viewBox="0 0 67 66" fill="none" xmlns="http://www.w3.org/2000/svg">
<g filter="url(#filter0_b_546_1641)">
<rect x="0.5" y="1.40594" width="66" height="63.1807" rx="10.8012" fill="white" fill-opacity="0.04"/>
<path d="M17.1915 42.2693V37.0572H11.9999V42.1535H17.1915V42.2693Z" fill="white"/>
<path d="M52.8239 39.2582C52.7059 39.8373 52.47 40.5323 52.234 41.1114C52.234 41.2272 52.116 41.343 52.116 41.4589C51.644 42.6171 51.0541 43.6595 50.4642 44.702C49.8742 45.5127 49.2843 46.3235 48.6943 47.0185C48.3403 47.3659 48.1044 47.7134 47.7504 48.0609L47.8684 47.9451C47.3964 48.4084 46.9245 48.8717 46.3345 49.335C46.0986 49.5666 45.7446 49.6824 45.5086 49.9141C45.3906 49.9141 45.2726 50.0299 45.2726 50.0299C44.5647 50.4932 43.8568 50.8407 43.0308 51.1882C42.0869 51.6515 41.025 51.9989 39.9631 52.2306C38.9012 52.4622 37.7213 52.6939 36.6594 52.8097C35.3615 52.9255 34.0637 52.9255 32.6478 52.6939C26.6303 51.8831 21.5568 48.5242 18.4891 43.8912C19.197 44.702 19.9049 45.3969 20.7309 45.976C22.1467 47.0185 23.7986 47.8292 25.6864 48.1767C26.5123 48.4084 27.4563 48.4084 28.2822 48.4084C28.5182 48.4084 28.7541 48.4084 28.9901 48.4084C30.288 48.4084 31.5859 48.1767 32.7658 47.7134C33.0017 47.5976 33.1197 47.5976 33.3557 47.4818C33.7097 47.3659 34.1816 47.1343 34.5356 47.0185C34.6536 47.0185 34.6536 46.9026 34.7716 46.9026C38.4293 44.9336 41.143 41.4589 41.615 37.0575C41.733 36.2467 41.733 35.3201 41.733 34.5093C45.0366 34.5093 47.7504 36.4784 49.1663 39.1423C49.2843 39.4898 49.4022 39.8373 49.5202 40.1848C49.5202 39.9531 49.5202 39.8373 49.5202 39.6057C49.5202 38.6791 49.4023 37.8683 49.2843 36.9417C48.1044 30.8029 42.5589 26.2858 35.9515 26.2858C35.1256 26.2858 34.4176 26.4016 33.5917 26.5174C33.5917 26.5174 33.5917 26.5174 33.4737 26.5174C31.1139 26.8649 29.4621 27.5598 26.8663 29.413C25.8044 30.108 23.6806 31.9612 22.0288 33.4669C21.2028 34.2777 19.787 33.4669 20.0229 32.3087C20.2589 31.2662 20.6129 30.108 21.3208 28.8339C18.0171 24.3167 18.0171 19.4521 24.5065 15.1665C28.2822 12.6184 34.5356 11.9234 40.3171 14.0083C43.8568 12.1551 48.9303 12.0393 53.5319 16.9039C54.0038 17.3672 53.6499 18.178 52.9419 18.178C51.644 18.178 49.8742 18.5255 48.4583 19.5679C48.5763 19.6837 48.6943 19.9154 48.9303 20.147C54.4758 27.3282 54.3578 34.046 52.8239 39.2582Z" fill="white"/>
<rect x="0.5" y="1.40594" width="66" height="63.1807" rx="10.8012" stroke="url(#paint0_linear_546_1641)"/>
</g>
<defs>
<filter id="filter0_b_546_1641" x="-11" y="-10.0941" width="89" height="86.1807" filterUnits="userSpaceOnUse" color-interpolation-filters="sRGB">
<feFlood flood-opacity="0" result="BackgroundImageFix"/>
<feGaussianBlur in="BackgroundImageFix" stdDeviation="5.5"/>
<feComposite in2="SourceAlpha" operator="in" result="effect1_backgroundBlur_546_1641"/>
<feBlend mode="normal" in="SourceGraphic" in2="effect1_backgroundBlur_546_1641" result="shape"/>
</filter>
<linearGradient id="paint0_linear_546_1641" x1="33.5" y1="0.511769" x2="33.5" y2="65.0866" gradientUnits="userSpaceOnUse">
<stop stop-color="white" stop-opacity="0.13"/>
<stop offset="0.00181084" stop-color="white" stop-opacity="0.46"/>
<stop offset="0.141594" stop-color="white" stop-opacity="0.2"/>
<stop offset="1" stop-color="white" stop-opacity="0.03"/>
</linearGradient>
</defs>
</svg>
