<?xml version="1.0" encoding="UTF-8"?>
<!DOCTYPE svg PUBLIC "-//W3C//DTD SVG 1.1//EN" "http://www.w3.org/Graphics/SVG/1.1/DTD/svg11.dtd">
<!-- Creator: CorelDRAW -->
<svg xmlns="http://www.w3.org/2000/svg" xml:space="preserve" width="168px" height="159px" version="1.1" shape-rendering="geometricPrecision" text-rendering="geometricPrecision" image-rendering="optimizeQuality" fill-rule="evenodd" clip-rule="evenodd"
viewBox="0 0 62.51 59.37"
 xmlns:xlink="http://www.w3.org/1999/xlink"
 xmlns:xodm="http://www.corel.com/coreldraw/odm/2003">
 <g id="Capa_x0020_1">
  <metadata id="CorelCorpID_0Corel-Layer"/>
  <path fill="#E6E7E8" d="M13.21 0l19.61 0c16.33,0 29.69,13.36 29.69,29.69l0 0c0,16.33 -13.36,29.68 -29.69,29.68l-19.61 0c-7.27,0 -13.21,-5.94 -13.21,-13.2l0 -32.96c0,-7.27 5.94,-13.21 13.21,-13.21zm26.67 8.53c9.27,0 17.18,5.64 20.3,13.57l-7.61 4.83c-1.28,-5.66 -6.47,-9.9 -12.69,-9.9 -7.17,0 -12.98,5.65 -12.98,12.62 0,6.97 5.81,12.62 12.98,12.62 6.19,0 11.37,-4.21 12.67,-9.84l7.61 4.83c-3.15,7.9 -11.04,13.5 -20.28,13.5 -12,0 -21.72,-9.45 -21.72,-21.11 0,-11.67 9.72,-21.12 21.72,-21.12z"/>
 </g>
</svg>
