<?xml version="1.0" encoding="UTF-8"?>
<!DOCTYPE svg PUBLIC "-//W3C//DTD SVG 1.1//EN" "http://www.w3.org/Graphics/SVG/1.1/DTD/svg11.dtd">
<!-- Creator: CorelDRAW -->
<svg xmlns="http://www.w3.org/2000/svg" xml:space="preserve" width="229px" height="231px" version="1.1" shape-rendering="geometricPrecision" text-rendering="geometricPrecision" image-rendering="optimizeQuality" fill-rule="evenodd" clip-rule="evenodd"
viewBox="0 0 146.59 147.35"
 xmlns:xlink="http://www.w3.org/1999/xlink"
 xmlns:xodm="http://www.corel.com/coreldraw/odm/2003">
 <g id="Capa_x0020_1">
  <metadata id="CorelCorpID_0Corel-Layer"/>
  <path fill="#44543C" d="M4.17 69.49c8.42,-0.07 8.46,-1.88 13.04,2.34l-5.24 4.36c-1.64,1.81 -2.63,3.51 -3.55,5.01l1.29 -0.17c3.69,-0.31 0.03,-1.3 2.15,0.17 -2.73,2.96 -0.55,2.21 -5.22,2.73 -1.88,-9.83 2.58,-3.53 -1.12,-11.65l-1.35 -2.79zm126.8 -6.8c-0.17,6.15 0.09,7.23 -6.05,8.53l-1.11 -3.55c-3.38,2.69 -3.42,1.39 -8.61,0.25 5.93,-5.89 3.88,-1.4 15.77,-5.23zm0.97 -6.7c2.6,-3.39 1.95,-3.88 7.66,-4.72 -1.91,4.42 0.86,3.82 -7.66,4.72zm-9.23 1.02c-4.66,-1.38 -2.16,-1.09 -3.94,-4.63l9.11 1.49c-0.54,0.94 -0.07,4.66 -5.17,3.14zm-22.23 -1.42c6.42,-6.26 4.86,-5.56 8.7,-13.26 7.44,2.4 7.08,2.42 9.78,6.08 -2.59,1.27 -6.59,2.2 -9.34,3.43 -4.71,2.09 -1.73,2.23 -9.14,3.75zm18.33 -8.44c8.18,-2.84 3.6,0.4 6.75,-7.29 0.12,-0.32 0.9,-1.42 1.28,-1.78l4.32 4.56c11.03,-5.63 8.54,-3.77 11.56,-2.66 0.31,3.87 -1.2,5.44 -2.72,7.89 -0.52,-0.07 -1.6,-0.31 -1.93,-0.35l-5.21 0.42c-0.46,0.06 -1.44,3.3 -7.32,-3.13 -0.02,2.62 1.35,3.11 -1.33,4.36 -8.15,3.78 -4.39,-1.29 -5.4,-2.02zm-87.59 -4.99c6.1,-3.9 10.11,-0.38 11.34,5.71l-9.74 -3.5 4.13 3.74c-8.06,1.02 -4.05,1.2 -6.59,-2.85l0.86 -3.1zm-3.51 9.37c-2.69,1.86 -1.72,3 -5.72,0.02l-6.27 -6.41c-0.28,-0.37 -0.98,-1.57 -1.2,-2 -1.39,-2.72 -1.2,-3.13 -1.81,-5.92 6.08,0.75 7.08,1.95 9.58,7.38 -8.5,-5.46 -2.39,-3.6 -5.17,-2.44 5.08,8.56 2.72,3.55 10.59,9.37zm42.65 -26.56c0.7,-6.78 0.34,-3.12 3.8,-4.81 1.7,3.31 2.61,3.54 -0.77,12.22 -2.64,-2.8 -3.53,-2.58 -3.03,-7.41zm44.95 8.32c-0.13,-2.13 0.58,-2.77 2.07,-5.38 -6.74,3.2 -2.33,1.95 -4.3,0.2 1.75,-5.73 8.66,-1.16 11.65,1.56 -0.01,0.01 -0.97,5.16 -9.42,3.62zm-85.81 -5.18c3.11,-3.43 6.1,-3.5 11.18,-3.25 -0.33,0.27 -0.87,0.59 -1.05,0.73 -0.17,0.13 -0.77,0.51 -0.94,0.66l0.69 4.86c-4.37,-0.01 -1.23,0.81 -5.79,-0.54 -6.97,-2.07 -2.01,-0.99 -4.09,-2.46zm82.93 -12.25c1.67,1.92 2,-3.16 1.74,4.27 -0.14,4.04 -1.43,2.94 -1.74,3.45 -6.34,-3.18 -4.78,-5.46 0,-7.72zm-69.25 6c1.71,-3.63 -0.33,-1.76 3.24,-3.6 0.46,-0.23 3.85,-0.7 5.13,-0.91 -0.21,6.69 -2.97,12.71 -8.37,4.51zm36.46 -14.6c0.84,1 1.57,1.18 2.37,2.98 2.17,4.93 0.25,6.21 -0.24,7.51l-5.98 -1.59c-0.12,-0.4 -0.62,-0.34 -1.33,-0.78l5.18 -8.12zm-23.33 8.09c-2.84,-2.67 -5.02,-4.1 -4.04,-9.93 3.33,0.36 7.66,0.73 4.04,9.93zm30.24 -0.46c-3.69,-4.33 -1.87,-4.22 -3.81,-10.62 7.51,1.02 10.8,2.25 11.2,9.2 1.83,0.01 2.6,-0.18 4.49,0.23 2.81,0.6 2.69,1.16 3.86,1.92 -3.34,4.46 -2.75,6.61 -10.16,6.19 -0.23,-1.94 -0.82,-6.68 -1.38,-11.76 -5.02,5.99 -1.3,3.6 -4.2,4.84zm-86.55 53.14l0 5.79c6.03,6.04 -3.67,6.41 5.76,14.32 7.51,1.56 7.69,-1.28 11.42,-7.12 6.96,2.18 0.17,1.53 14.23,4.57 1.83,0.4 0.91,0.05 2.58,0.58 5.51,1.73 13.97,8.94 19.05,-1.85l-4.92 -1.09c-2.33,3.71 -2.08,2.42 -7.43,2.38l0.12 -4.56 -5.26 -2.39c1.72,-0.39 3.49,0.17 7.27,-2.68 -6.02,-3.52 -5.34,-3.51 -14.71,-5.46 -0.39,-2.55 -3.09,-0.05 2.58,-2.5l2.26 -0.63c-5.31,-2.1 -6.4,-5.08 -13.31,-8.2l3.8 6.92c-0.99,3.47 0.26,2.72 0.73,4.86 -7.49,0.42 -15.96,-14.98 -9.2,-18.54 4.7,-2.46 4.86,2.57 4.97,5.83l11.47 4.69c3.66,-5.03 2.7,-4.27 9.18,-6.74l-10.82 -5.86c-0.31,-0.23 -0.77,-0.62 -1.1,-0.98 2.9,0.99 11.43,4.23 14.04,2.42l1.01 -1.68c0.1,6.36 -0.43,0.17 2.58,2.97l2.67 -5.57c0.36,0.13 1.4,0.58 1.61,0.59 0.21,0 0.17,2.53 -0.14,-2.02l4.58 1.05c-0.26,-0.43 -0.45,-1.2 -0.55,-1.39 -3.05,-6.17 -10.1,7.77 -12.44,-6.7 8.65,-3.83 5.12,2.34 13.97,3.44 -0.8,-1.4 -2.15,-3.23 -2.54,-3.81 -0.25,-0.36 -0.99,-1.42 -1.24,-1.8 -4.81,-7.21 -0.59,-4.16 -10.07,-7.7 2.27,-2.06 1.27,-0.44 3.74,-0.72 5.3,-0.58 0.83,-1.53 4.15,-0.34 3.48,8.85 4.5,5.95 8.4,11.72l-0.72 -9.15 -5.15 -0.27c-0.91,-7.86 0.99,-7.75 8.86,-8.84 -0.85,-1.48 -1.46,-1.56 -1.42,-3.35 0.09,-3.86 0.29,-1.69 1.13,-2.88l-2.35 -4.28c2.93,-1.35 4.6,-2.73 8.35,-1.68 2.91,2.15 1.93,16 0.13,19.02 -1.7,0.01 -1.35,0.3 -3.28,-1.92 0.75,6.35 0.93,2.16 -0.34,7.29 0.79,-0.49 3.03,-1.43 3.49,-1.74l1.28 2.37c5.25,9.32 3.65,1.34 3.98,7.98 0.36,7.11 0.01,2.81 -5.28,7.09l0.22 -12.84c-5.17,7.01 0.06,4.38 -5.15,7.15l-0.07 -5.68c-2.79,5.56 -0.82,15.47 5.08,12.05 -0.84,6.58 0.4,13.83 4,18.88 0.91,1.26 2.37,2.82 5.3,2.79 3.6,-9.62 -9.78,-21.68 -0.55,-33.86l2.61 -3.12c2.85,-4.36 3.83,-8.81 9.52,-8.21l12.75 -3.78c1.47,4.31 3.5,8.03 0.69,12.13 10.68,1.01 4.79,-1.2 6.56,4.06 -4.6,6.84 -3.34,2.65 -7.22,7.2 -4.75,5.56 -0.04,4.64 -5.61,8.63l-2.25 -11.14c-0.2,0.48 -0.41,0.67 -0.48,1.5 -0.08,0.81 -0.36,1.08 -0.45,1.49l-0.76 7.75c1.77,8.2 8.12,-1.79 2.64,5.06l1.23 3.08 4.58 -0.19c1.62,-4.69 -0.73,-1.87 3.74,-4.91l1.88 2.86c3.21,8.79 -0.53,-0.71 -9.89,6.83l3.99 1.44c-1.08,1.19 -2.2,2.59 -4.16,3.49 -9.51,4.37 -6.08,-0.46 -6.5,-0.91 -2.28,1.69 -1.9,-3.03 -1.69,4.18l3.9 -0.88 -0.26 3.88 10.79 -4.83c2.12,-5.06 -0.82,-1.6 3.21,-4.36 6.23,0.26 1.7,-1.04 5.81,1.67 2.89,1.9 1.92,0.79 3.04,3.92 4.74,-1.76 3.69,-2.13 9.21,-4.08 -1.8,4.73 -0.98,4.5 -8.75,6.8 8.72,-0.04 13.77,-1.34 15.51,1.62 4.9,8.31 -2.72,-5.47 1.13,2.13l3.22 1.69c-3.91,-6.21 -3.15,-1.9 2.63,-7.14 -2.18,-0.8 -1.91,0.11 -2.56,-1.73 -0.04,-0.12 -0.1,-0.6 -0.12,-0.72l0.69 -2.85c0.34,-2.47 -4.32,0.12 0.72,-2.51 4.69,-2.45 2.15,-1.21 7.05,-0.85 -1.46,13.03 -4.36,-2.05 -3.84,18.26 -6.63,0.49 -4.76,-1.03 -9.02,-1 -3.45,0.02 -5.98,1.9 -9.26,3.13l-2.12 -3.59c-1.17,-2.15 -1.77,-0.56 -1.09,-4.16l-4.21 -0.01c-3.25,2.1 -2.04,1.76 -3.17,3.04 -1.06,1.19 -0.25,1.31 -2.45,3.13 10.38,8.95 13.67,3.07 26.15,3.88 12.62,0.82 9.75,-8.77 9.94,-9.94 0.99,-6.12 5.99,-10.66 1.4,-15.1 -2.98,-2.89 -1.9,-1.13 -4.28,-2.13l-3.85 -1.57c-0.33,-0.14 -0.9,-0.33 -1.29,-0.6 6.94,-1.66 7.84,-2.18 9.62,-8.99 1.45,-5.56 2.57,-10.65 0.76,-16.02 -6.84,-1.93 -5.52,0.85 -12.56,0.14 -8.9,-0.9 1.11,-4.61 -7.54,-11.16 -11.36,-8.61 -2.63,0.69 -8.41,-11.82 -10.17,-2.75 -4.02,3.07 -14.92,-2.22l-14.4 -10.43 -7.2 0c-4.85,4.9 -4.67,1.32 -6.63,8.4 -0.41,-0.22 -0.88,-0.56 -1.18,-0.72l-4.82 -2.36c-25.74,-9.35 -19.88,0.94 -20.45,7.53 -0.82,0.39 -4.42,1.99 -5.42,2.72 -9.87,7.16 0.05,1.15 -12.15,6.69 -11.73,5.32 1,14.2 2.88,13.65l-6.29 4.4c-4.06,-3.5 -9.55,-9.24 -15.65,-6.1 -4.99,5.58 -0.86,7.54 1.64,14.79 -7.62,5.26 -4.23,6.41 -3.27,15.15l-9.27 3.88z"/>
  <path fill="#FEFEFE" d="M30.24 110.49c-1.68,1.98 0.99,0.67 -3.66,3.64 -2.11,1.35 -0.9,0.42 -3.45,1.03l-11.73 20.27 -1.97 5.6c12.57,-0.75 57.19,-31.65 64.79,-1.28 6.3,-11.56 14.4,-16.47 31.88,-11.66 5.83,1.6 11.37,4.26 16.56,6.86 2.75,1.38 5.16,2.88 7.37,3.86 0.5,0.22 4.53,1.36 4.68,1.34 6.22,-0.76 0.67,3.35 4.9,-2.73 -2.65,-2.94 -5.79,-8.8 -8.07,-12.71 -3.42,-5.87 -6.21,-8.7 -9.71,-13.84 -11.33,-0.13 -15.14,-14.37 -43.22,-6.9 -0.1,3.99 -0.06,7.22 1.22,11.32 2.29,7.37 3.27,6.43 1.37,10.67l-12.5 -0.61c-4.45,-7.69 6.83,-12.19 -1.63,-23.85 -5.77,1.47 -13.89,-0.33 -20.57,1.62 -5.96,1.74 -11.39,4.71 -16.26,7.37z"/>
  <path fill="#4A2D22" d="M67.4 70.98c-4.96,-1.88 -2.94,1.03 -5.39,-6.37 6.18,2.03 3.83,-0.72 5.39,6.37zm-6.26 -55.64c-0.84,1.19 -1.04,-0.98 -1.13,2.88 -0.04,1.79 0.57,1.87 1.42,3.35l0.55 6.51 -4.06 -3.48 -0.2 6.08 0.72 9.15c-3.9,-5.77 -4.92,-2.87 -8.4,-11.72 -3.32,-1.19 1.15,-0.24 -4.15,0.34 -2.47,0.28 -1.47,-1.34 -3.74,0.72 9.48,3.54 5.26,0.49 10.07,7.7 0.25,0.38 0.99,1.44 1.24,1.8 0.39,0.58 1.74,2.41 2.54,3.81l2.22 2.8c-2.12,2.67 4,3.36 -3.2,1.85 2.28,4.73 3.19,3.89 5.28,6.58 3.22,4.15 2.31,3.38 2.17,8.76 -5.66,0.28 -6.57,-1.79 -16.17,-9.39 -3.01,-2.8 -2.48,3.39 -2.58,-2.97l-1.01 1.68c-2.61,1.81 -11.14,-1.43 -14.04,-2.42 0.33,0.36 0.79,0.75 1.1,0.98l10.82 5.86c8.16,0.84 14.41,4.18 17.33,11.58 -5.37,-2.29 -7.71,-4.65 -13.99,-4.52l2.73 2.51 6.36 2.22 8.57 5.44c1.49,2.29 2.69,3.2 3.62,6.23l-5.39 -0.3c-0.48,0.21 -2.23,1.06 -2.51,1.18 -1.26,0.52 -0.36,0.85 -2.65,1.08 -7.57,0.76 -4.8,-1.35 -5.44,-1.7 -3.94,-2.69 -2.56,-0.55 -4.76,-5.55l-6.67 -6.09c-4.55,-1.42 -4.24,-0.62 -6.38,-5.34l-11.47 -4.69 -0.3 0.93c6.91,3.12 8,6.1 13.31,8.2l-2.26 0.63c-5.67,2.45 -2.97,-0.05 -2.58,2.5 9.37,1.95 8.69,1.94 14.71,5.46 -3.78,2.85 -5.55,2.29 -7.27,2.68l5.26 2.39 7.31 2.18 4.92 1.09c13.74,-0.16 17.57,3.39 17.12,17.18l-3.09 0c8.46,11.66 -2.82,16.16 1.63,23.85l12.5 0.61c1.9,-4.24 0.92,-3.3 -1.37,-10.67 -1.28,-4.1 -1.32,-7.33 -1.22,-11.32 -0.23,-6.57 0.2,-9.27 3.13,-14.43 9.3,-1.38 9.51,9.1 19.07,-3.73l6.38 0.15c2.2,-1.82 1.39,-1.94 2.45,-3.13 1.13,-1.28 -0.08,-0.94 3.17,-3.04l4.21 0.01 13.7 1.47c-3.85,-7.6 3.77,6.18 -1.13,-2.13 -1.74,-2.96 -6.79,-1.66 -15.51,-1.62 7.77,-2.3 6.95,-2.07 8.75,-6.8 -5.52,1.95 -4.47,2.32 -9.21,4.08l-6.04 3.45 -9.83 6.52 -8.79 -0.21c3.41,-5.16 1.22,-2.05 7.4,-5.31l2.26 -0.65c2.16,-0.93 2.21,0.15 3.2,-3.65 1.2,-4.62 2.88,2.91 -0.26,-1.38l-10.79 4.83 -7.5 4.62 3.86 -7.62c-0.21,-7.21 -0.59,-2.49 1.69,-4.18l6.67 -4.02c9.36,-7.54 13.1,1.96 9.89,-6.83l-5.62 2.05 -4.58 0.19 -5.79 2.59 -6.59 7.22c-3.17,5.85 -0.4,2.91 -4.59,5.88l2.48 -7.87 8.32 -8.81 4.94 -2.09c5.48,-6.85 -0.87,3.14 -2.64,-5.06l0.76 -7.75c0.09,-0.41 0.37,-0.68 0.45,-1.49 0.07,-0.83 0.28,-1.02 0.48,-1.5l7.56 -6.28 -1.41 -8.56c-2.38,11.3 -6.19,7.09 -6.58,4.72 -0.1,-0.6 -0.28,-0.85 -0.47,-1.26l-0.23 4.5 -1.82 6.02 0.37 4.15c-3.33,10.24 0.91,11.68 -8.42,15.25 -2.28,1.43 -0.16,1.69 -2.77,0.03l-4.6 -14.91 1.32 -9.43c-9.23,12.18 4.15,24.24 0.55,33.86 -2.93,0.03 -4.39,-1.53 -5.3,-2.79 -3.6,-5.05 -4.84,-12.3 -4,-18.88 -5.9,3.42 -7.87,-6.49 -5.08,-12.05l1.53 -4.33c1.27,-5.13 1.09,-0.94 0.34,-7.29l1.48 -12.97c-0.38,0.36 -1.84,1.32 -2.08,1.45 -8.18,4.4 5.88,-1.28 -2.25,0.38z"/>
  <path fill="#3F543C" d="M139.61 137.42l3.33 4.45c-5.7,2.83 -9.84,0.17 -16.22,-1.58 -35.67,-9.8 -44.32,1.56 -51.86,1.76 -8.77,0.24 -14.69,-7.8 -34.82,-5.27 -8.71,1.09 -28.18,8.49 -33.48,5.31l4.84 -6.66 11.73 -20.27c-5.71,1.2 -0.25,-1.38 -3.99,2.18l-14.79 22.96c-0.1,0.3 -0.26,0.75 -0.33,1.05l0.29 4.32c8.67,3.35 25.14,0.76 35.65,0.04l88.09 0.87c22.41,0.85 20.25,-0.34 8.49,-19.24 -5.61,-9.01 -4.51,-12.08 -14.71,-16.47 3.5,5.14 6.29,7.97 9.71,13.84 2.28,3.91 5.42,9.77 8.07,12.71z"/>
  <path fill="#81AA79" d="M11.4 135.43l-4.84 6.66c5.3,3.18 24.77,-4.22 33.48,-5.31 20.13,-2.53 26.05,5.51 34.82,5.27 7.54,-0.2 16.19,-11.56 51.86,-1.76 6.38,1.75 10.52,4.41 16.22,1.58l-3.33 -4.45c-4.23,6.08 1.32,1.97 -4.9,2.73 -0.15,0.02 -4.18,-1.12 -4.68,-1.34 -2.21,-0.98 -4.62,-2.48 -7.37,-3.86 -5.19,-2.6 -10.73,-5.26 -16.56,-6.86 -17.48,-4.81 -25.58,0.1 -31.88,11.66 -7.6,-30.37 -52.22,0.53 -64.79,1.28l1.97 -5.6z"/>
  <path fill="#7BA274" d="M75.95 37.96l-1.32 9.43c10.45,-4.72 0.18,-1.86 11.37,-1.58 3.2,0.07 0.87,-0.69 4.42,1.21l-0.37 -4.15c-6.32,-3.88 -0.93,1.52 -4.17,-6.83l-3.19 1.42c-1.48,0.66 -1.16,0.59 -3.14,1.39 2.26,-3.78 2.99,-4.63 6.7,-7.31 4.03,6.08 -0.5,1.98 5.62,5.31l0.23 -4.5c0.19,0.41 0.37,0.66 0.47,1.26 0.39,2.37 4.2,6.58 6.58,-4.72l1.41 8.56 -7.56 6.28 2.25 11.14c5.57,-3.99 0.86,-3.07 5.61,-8.63 3.88,-4.55 2.62,-0.36 7.22,-7.2 -1.77,-5.26 4.12,-3.05 -6.56,-4.06 2.81,-4.1 0.78,-7.82 -0.69,-12.13l-12.75 3.78c-5.69,-0.6 -6.67,3.85 -9.52,8.21l-2.61 3.12z"/>
  <path fill="#7CA475" d="M130.72 81.27l-13.7 -1.47c-0.68,3.6 -0.08,2.01 1.09,4.16l2.12 3.59c3.28,-1.23 5.81,-3.11 9.26,-3.13 4.26,-0.03 2.39,1.49 9.02,1 -0.52,-20.31 2.38,-5.23 3.84,-18.26 -4.9,-0.36 -2.36,-1.6 -7.05,0.85 -5.04,2.63 -0.38,0.04 -0.72,2.51l-0.69 2.85c0.02,0.12 0.08,0.6 0.12,0.72 0.65,1.84 0.38,0.93 2.56,1.73 -5.78,5.24 -6.54,0.93 -2.63,7.14l-3.22 -1.69z"/>
  <path fill="#74986D" d="M118.81 47.15c1.01,0.73 -2.75,5.8 5.4,2.02 2.68,-1.25 1.31,-1.74 1.33,-4.36 5.88,6.43 6.86,3.19 7.32,3.13l5.21 -0.42c0.33,0.04 1.41,0.28 1.93,0.35 1.52,-2.45 3.03,-4.02 2.72,-7.89 -3.02,-1.11 -0.53,-2.97 -11.56,2.66l-4.32 -4.56c-0.38,0.36 -1.16,1.46 -1.28,1.78 -3.15,7.69 1.43,4.45 -6.75,7.29z"/>
  <path fill="#7BA274" d="M46.3 53.08c9.6,7.6 10.51,9.67 16.17,9.39 0.14,-5.38 1.05,-4.61 -2.17,-8.76 -2.09,-2.69 -3,-1.85 -5.28,-6.58l-4.58 -1.05c0.31,4.55 0.35,2.02 0.14,2.02 -0.21,-0.01 -1.25,-0.46 -1.61,-0.59l-2.67 5.57z"/>
  <path fill="#7DA172" d="M86.55 14.89c2.9,-1.24 -0.82,1.15 4.2,-4.84 0.56,5.08 1.15,9.82 1.38,11.76 7.41,0.42 6.82,-1.73 10.16,-6.19 -1.17,-0.76 -1.05,-1.32 -3.86,-1.92 -1.89,-0.41 -2.66,-0.22 -4.49,-0.23 -0.4,-6.95 -3.69,-8.18 -11.2,-9.2 1.94,6.4 0.12,6.29 3.81,10.62z"/>
  <path fill="#3F543C" d="M37.79 68.29l6.67 6.09 2.2 -8.6 -2.73 -2.51c6.28,-0.13 8.62,2.23 13.99,4.52 -2.92,-7.4 -9.17,-10.74 -17.33,-11.58 0.89,4.01 0.6,2.26 1.5,6.25 -1.46,1.8 -2.89,3.75 -4.3,5.83z"/>
  <path fill="#44543C" d="M74.63 47.39l4.6 14.91 1.38 -13.99c9.69,2.55 3.71,6.53 1.39,13.96 9.33,-3.57 5.09,-5.01 8.42,-15.25 -3.55,-1.9 -1.22,-1.14 -4.42,-1.21 -11.19,-0.28 -0.92,-3.14 -11.37,1.58z"/>
  <path fill="#799E71" d="M19.64 59.19l0.3 -0.93c-0.11,-3.26 -0.27,-8.29 -4.97,-5.83 -6.76,3.56 1.71,18.96 9.2,18.54 -0.47,-2.14 -1.72,-1.39 -0.73,-4.86l-3.8 -6.92z"/>
  <path fill="#7FA676" d="M61.14 15.34c8.13,-1.66 -5.93,4.02 2.25,-0.38 0.24,-0.13 1.7,-1.09 2.08,-1.45l-1.48 12.97c1.93,2.22 1.58,1.93 3.28,1.92 1.8,-3.02 2.78,-16.87 -0.13,-19.02 -3.75,-1.05 -5.42,0.33 -8.35,1.68l2.35 4.28z"/>
  <path fill="#7FA676" d="M63.65 33.77l-1.53 4.33 0.07 5.68c5.21,-2.77 -0.02,-0.14 5.15,-7.15l-0.22 12.84c5.29,-4.28 5.64,0.02 5.28,-7.09 -0.33,-6.64 1.27,1.34 -3.98,-7.98l-1.28 -2.37c-0.46,0.31 -2.7,1.25 -3.49,1.74z"/>
  <path fill="#7FA676" d="M8.42 81.2c0.92,-1.5 1.91,-3.2 3.55,-5.01l5.24 -4.36c-4.58,-4.22 -4.62,-2.41 -13.04,-2.34l1.35 2.79c3.7,8.12 -0.76,1.82 1.12,11.65 4.67,-0.52 2.49,0.23 5.22,-2.73 -2.12,-1.47 1.54,-0.48 -2.15,-0.17l-1.29 0.17z"/>
  <path fill="#7FA676" d="M100.48 55.59c7.41,-1.52 4.43,-1.66 9.14,-3.75 2.75,-1.23 6.75,-2.16 9.34,-3.43 -2.7,-3.66 -2.34,-3.68 -9.78,-6.08 -3.84,7.7 -2.28,7 -8.7,13.26z"/>
  <path fill="#799E71" d="M101.56 73.57c3.14,4.29 1.46,-3.24 0.26,1.38 -0.99,3.8 -1.04,2.72 -3.2,3.65 5.54,0.78 7.78,0.61 8.27,-3.9l0.69 3.55 6.04 -3.45c-1.12,-3.13 -0.15,-2.02 -3.04,-3.92 -4.11,-2.71 0.42,-1.41 -5.81,-1.67 -4.03,2.76 -1.09,-0.7 -3.21,4.36z"/>
  <path fill="#4B4935" d="M49.22 79.93c0.64,0.35 -2.13,2.46 5.44,1.7 2.29,-0.23 1.39,-0.56 2.65,-1.08 0.28,-0.12 2.03,-0.97 2.51,-1.18 -2.22,-3.57 -2.08,-3.13 -3.59,-6.65l5.36 0.72 -8.57 -5.44c-3.14,1.06 -2.85,1.14 -4.34,2.31 4.92,1.49 4.14,-1.84 5.48,5.61 -3.76,-1.11 -2.62,-1.54 -6.47,-2.05 2.48,1.82 2.55,1.73 4.4,5.36l-2.87 0.7z"/>
  <path fill="#7FA676" d="M31.41 62.95c2.14,4.72 1.83,3.92 6.38,5.34 1.41,-2.08 2.84,-4.03 4.3,-5.83 -0.9,-3.99 -0.61,-2.24 -1.5,-6.25 -6.48,2.47 -5.52,1.71 -9.18,6.74z"/>
  <path fill="#7A976C" d="M55.02 47.13c7.2,1.51 1.08,0.82 3.2,-1.85l-2.22 -2.8c-8.85,-1.1 -5.32,-7.27 -13.97,-3.44 2.34,14.47 9.39,0.53 12.44,6.7 0.1,0.19 0.29,0.96 0.55,1.39z"/>
  <path fill="#799E71" d="M44.46 74.38c2.2,5 0.82,2.86 4.76,5.55l2.87 -0.7c-1.85,-3.63 -1.92,-3.54 -4.4,-5.36 3.85,0.51 2.71,0.94 6.47,2.05 -1.34,-7.45 -0.56,-4.12 -5.48,-5.61 1.49,-1.17 1.2,-1.25 4.34,-2.31l-6.36 -2.22 -2.2 8.6z"/>
  <path fill="#7FA676" d="M130.97 62.69c-11.89,3.83 -9.84,-0.66 -15.77,5.23 5.19,1.14 5.23,2.44 8.61,-0.25l1.11 3.55c6.14,-1.3 5.88,-2.38 6.05,-8.53z"/>
  <path fill="#799E71" d="M27.71 51.53c-7.87,-5.82 -5.51,-0.81 -10.59,-9.37 2.78,-1.16 -3.33,-3.02 5.17,2.44 -2.5,-5.43 -3.5,-6.63 -9.58,-7.38 0.61,2.79 0.42,3.2 1.81,5.92 0.22,0.43 0.92,1.63 1.2,2l6.27 6.41c4,2.98 3.03,1.84 5.72,-0.02z"/>
  <path fill="#81A878" d="M31.22 42.16l-0.86 3.1c2.54,4.05 -1.47,3.87 6.59,2.85l-4.13 -3.74 9.74 3.5c-1.23,-6.09 -5.24,-9.61 -11.34,-5.71z"/>
  <path fill="#7FA676" d="M113.08 28.11c1.97,1.75 -2.44,3 4.3,-0.2 -1.49,2.61 -2.2,3.25 -2.07,5.38 8.45,1.54 9.41,-3.61 9.42,-3.62 -2.99,-2.72 -9.9,-7.29 -11.65,-1.56z"/>
  <path fill="#81AA79" d="M79.23 62.3c2.61,1.66 0.49,1.4 2.77,-0.03 2.32,-7.43 8.3,-11.41 -1.39,-13.96l-1.38 13.99z"/>
  <path fill="#7DA172" d="M57.72 30.68l0.2 -6.08 4.06 3.48 -0.55 -6.51c-7.87,1.09 -9.77,0.98 -8.86,8.84l5.15 0.27z"/>
  <path fill="#81AA79" d="M74.46 15.38c0.71,0.44 1.21,0.38 1.33,0.78l5.98 1.59c0.49,-1.3 2.41,-2.58 0.24,-7.51 -0.8,-1.8 -1.53,-1.98 -2.37,-2.98l-5.18 8.12z"/>
  <path fill="#475F43" d="M90.05 42.87l1.82 -6.02c-6.12,-3.33 -1.59,0.77 -5.62,-5.31 -3.71,2.68 -4.44,3.53 -6.7,7.31 1.98,-0.8 1.66,-0.73 3.14,-1.39l3.19 -1.42c3.24,8.35 -2.15,2.95 4.17,6.83z"/>
  <path fill="#81AA79" d="M43.18 21.86c5.4,8.2 8.16,2.18 8.37,-4.51 -1.28,0.21 -4.67,0.68 -5.13,0.91 -3.57,1.84 -1.53,-0.03 -3.24,3.6z"/>
  <path fill="#81A878" d="M29.5 28.11c2.08,1.47 -2.88,0.39 4.09,2.46 4.56,1.35 1.42,0.53 5.79,0.54l-0.69 -4.86c0.17,-0.15 0.77,-0.53 0.94,-0.66 0.18,-0.14 0.72,-0.46 1.05,-0.73 -5.08,-0.25 -8.07,-0.18 -11.18,3.25z"/>
  <path fill="#799E71" d="M73.39 32.38c3.38,-8.68 2.47,-8.91 0.77,-12.22 -3.46,1.69 -3.1,-1.97 -3.8,4.81 -0.5,4.83 0.39,4.61 3.03,7.41z"/>
  <path fill="#7CA475" d="M56.31 15.35c3.62,-9.2 -0.71,-9.57 -4.04,-9.93 -0.98,5.83 1.2,7.26 4.04,9.93z"/>
  <path fill="#7FA676" d="M88.82 71.22c0.42,0.45 -3.01,5.28 6.5,0.91 1.96,-0.9 3.08,-2.3 4.16,-3.49l-3.99 -1.44 -6.67 4.02z"/>
  <path fill="#81A878" d="M59.82 79.37l5.39 0.3c-0.93,-3.03 -2.13,-3.94 -3.62,-6.23l-5.36 -0.72c1.51,3.52 1.37,3.08 3.59,6.65z"/>
  <path fill="#485940" d="M98.62 78.6l-2.26 0.65 1.39 5.52 9.83 -6.52 -0.69 -3.55c-0.49,4.51 -2.73,4.68 -8.27,3.9z"/>
  <path fill="#81A878" d="M112.43 23.58c0.31,-0.51 1.6,0.59 1.74,-3.45 0.26,-7.43 -0.07,-2.35 -1.74,-4.27 -4.78,2.26 -6.34,4.54 0,7.72z"/>
  <path fill="#7FA676" d="M118.77 52.38c1.78,3.54 -0.72,3.25 3.94,4.63 5.1,1.52 4.63,-2.2 5.17,-3.14l-9.11 -1.49z"/>
  <path fill="#74986D" d="M97.75 84.77l-1.39 -5.52c-6.18,3.26 -3.99,0.15 -7.4,5.31l8.79 0.21z"/>
  <path fill="#40513A" d="M80.69 70.43c2.47,0.09 1.73,-0.53 2.11,1.99l6.59 -7.22 -0.38 -3.58 -8.32 8.81z"/>
  <polygon fill="#7FA676" points="90.77,78.4 91.03,74.52 87.13,75.4 83.27,83.02 "/>
  <path fill="#799E71" d="M48.12 83.23l-7.31 -2.18 -0.12 4.56c5.35,0.04 5.1,1.33 7.43,-2.38z"/>
  <path fill="#81A878" d="M67.4 70.98c-1.56,-7.09 0.79,-4.34 -5.39,-6.37 2.45,7.4 0.43,4.49 5.39,6.37z"/>
  <path fill="#799E71" d="M131.94 55.99c8.52,-0.9 5.75,-0.3 7.66,-4.72 -5.71,0.84 -5.06,1.33 -7.66,4.72z"/>
  <polygon fill="#7FA676" points="89.01,61.62 89.39,65.2 95.18,62.61 93.95,59.53 "/>
  <path fill="#7E9F71" d="M82.8 72.42c-0.38,-2.52 0.36,-1.9 -2.11,-1.99l-2.48 7.87c4.19,-2.97 1.42,-0.03 4.59,-5.88z"/>
  <path fill="#74986D" d="M99.76 62.42l5.62 -2.05 -1.88 -2.86c-4.47,3.04 -2.12,0.22 -3.74,4.91z"/>
  <path fill="#89A984" d="M23.13 115.16c2.55,-0.61 1.34,0.32 3.45,-1.03 4.65,-2.97 1.98,-1.66 3.66,-3.64l-7.11 4.67z"/>
 </g>
</svg>
