<svg width="34" height="32" viewBox="0 0 34 32" fill="none" xmlns="http://www.w3.org/2000/svg">
<path fill-rule="evenodd" clip-rule="evenodd" d="M29.9178 11.7774C29.9178 11.7774 33.6 13.8034 33.6 15.9878C33.6 18.1721 29.9178 20.1981 29.9178 20.1981C29.9178 20.1981 31.7144 23.9998 30.4309 25.7667C29.1487 27.5318 24.9831 27.0041 24.9831 27.0041C24.9831 27.0041 24.2091 31.1427 22.1309 31.8181C20.057 32.4922 17 29.6149 17 29.6149C17 29.6149 13.9457 32.5064 11.8691 31.8332C9.79039 31.1594 9.01691 27.0192 9.01691 27.0192C9.01691 27.0192 4.85355 27.5453 3.56907 25.7818C2.27987 24.0118 4.08219 20.1981 4.08219 20.1981C4.08219 20.1981 0.403869 18.1721 0.399997 15.9878C0.396117 13.799 4.08219 11.7623 4.08219 11.7623C4.08219 11.7623 2.27707 7.94664 3.56907 6.17868C4.85559 4.41824 9.01691 4.95632 9.01691 4.95632C9.01691 4.95632 9.79091 0.817761 11.8691 0.142321C13.943 -0.531755 17 2.3456 17 2.3456C17 2.3456 20.0568 -0.531059 22.1309 0.142321C24.2141 0.818641 24.9831 4.9714 24.9831 4.9714C24.9831 4.9714 29.1487 4.44368 30.4309 6.20884C31.7144 7.97576 29.9178 11.7774 29.9178 11.7774ZM12.9436 21.5506V10.4013C12.9436 9.55112 13.8754 9.03452 14.593 9.49728L23.311 15.0612C23.975 15.4916 23.975 16.4602 23.311 16.8799L14.593 22.4545C13.8754 22.9173 12.9436 22.4007 12.9436 21.5506Z" fill="white"/>
</svg>
