<?xml version="1.0" encoding="UTF-8"?>
<!DOCTYPE svg PUBLIC "-//W3C//DTD SVG 1.1//EN" "http://www.w3.org/Graphics/SVG/1.1/DTD/svg11.dtd">
<!-- Creator: CorelDRAW -->
<svg xmlns="http://www.w3.org/2000/svg" xml:space="preserve" width="734px" height="562px" version="1.1" shape-rendering="geometricPrecision" text-rendering="geometricPrecision" image-rendering="optimizeQuality" fill-rule="evenodd" clip-rule="evenodd"
viewBox="0 0 312.59 239.65"
 xmlns:xlink="http://www.w3.org/1999/xlink"
 xmlns:xodm="http://www.corel.com/coreldraw/odm/2003">
 <g id="Capa_x0020_1">
  <metadata id="CorelCorpID_0Corel-Layer"/>
  <path fill="#FBBC04" fill-rule="nonzero" d="M0 239.65c0,0 151.08,-239.65 151.08,-239.65 0,0 93.78,0 93.78,0 0,0 0,33.34 0,33.34 0,0 -130.24,206.31 -130.24,206.31m-114.62 0l0 0 0 0z"/>
  <path fill="#1A73E8" fill-rule="nonzero" d="M244.86 239.65c0,0 -93.78,0 -93.78,0 0,0 0,-239.65 0,-239.65 0,0 93.78,0 93.78,0 0,0 0,239.65 0,239.65z"/>
  <path fill="#34A853" fill-rule="nonzero" d="M312.59 171.92c0,37.41 -30.32,67.73 -67.73,67.73 0,0 0,-135.45 0,-135.45 37.41,0 67.73,30.32 67.73,67.72z"/>
  <path fill="#0D652D" fill-rule="nonzero" d="M244.86 239.65c-37.41,0 -67.73,-30.32 -67.73,-67.73 0,-37.4 30.32,-67.72 67.73,-67.72 0,0 0,135.45 0,135.45z"/>
  <path fill="#1A73E8" fill-rule="nonzero" d="M296.96 52.1c0,28.77 -23.32,52.1 -52.1,52.1 0,0 0,-104.2 0,-104.2 28.78,0 52.1,23.33 52.1,52.1z"/>
  <path fill="#174EA6" fill-rule="nonzero" d="M244.86 104.2c-28.78,0 -52.1,-23.33 -52.1,-52.1 0,-28.77 23.32,-52.1 52.1,-52.1 0,0 0,104.2 0,104.2z"/>
  <path fill="#EA4335" fill-rule="nonzero" d="M5.21 46.89c0,-25.9 20.99,-46.89 46.89,-46.89 25.89,0 46.88,20.99 46.88,46.89 0,25.89 -20.99,46.88 -46.88,46.88 -25.9,0 -46.89,-20.99 -46.89,-46.88z"/>
 </g>
</svg>
