<?xml version="1.0" encoding="UTF-8"?>
<!DOCTYPE svg PUBLIC "-//W3C//DTD SVG 1.1//EN" "http://www.w3.org/Graphics/SVG/1.1/DTD/svg11.dtd">
<!-- Creator: CorelDRAW -->
<svg xmlns="http://www.w3.org/2000/svg" xml:space="preserve" width="1348px" height="1348px" version="1.1" shape-rendering="geometricPrecision" text-rendering="geometricPrecision" image-rendering="optimizeQuality" fill-rule="evenodd" clip-rule="evenodd"
viewBox="0 0 1348 1348"
 xmlns:xlink="http://www.w3.org/1999/xlink"
 xmlns:xodm="http://www.corel.com/coreldraw/odm/2003">
 <g id="Capa_x0020_1">
  <metadata id="CorelCorpID_0Corel-Layer"/>
  <path fill="#E6E7E8" fill-rule="nonzero" d="M0 674c0,-186.05 65.82,-344.9 197.46,-476.54 131.64,-131.64 290.49,-197.46 476.54,-197.46 186.05,0 344.9,65.82 476.54,197.46 131.64,131.64 197.46,290.49 197.46,476.54 0,186.05 -65.82,344.9 -197.46,476.54 -131.64,131.64 -290.49,197.46 -476.54,197.46 -186.05,0 -344.9,-65.82 -476.54,-197.46 -131.64,-131.64 -197.46,-290.49 -197.46,-476.54zm73.72 0c0,164.99 58.8,306.28 176.4,423.88 117.6,117.6 258.89,176.4 423.88,176.4 164.99,0 306.28,-58.8 423.88,-176.4 117.6,-117.6 176.4,-258.89 176.4,-423.88 0,-164.99 -58.8,-306.28 -176.4,-423.88 -117.6,-117.6 -258.89,-176.4 -423.88,-176.4 -164.99,0 -306.28,58.8 -423.88,176.4 -117.6,117.6 -176.4,258.89 -176.4,423.88zm189.56 144.8c-3.51,-3.51 -3.51,-7.02 0,-10.53 7.02,-7.02 15.8,-9.65 26.33,-7.9 10.53,1.76 16.67,3.51 18.43,5.27 12.29,5.27 25.89,17.11 40.81,35.54 14.91,18.43 26.76,31.16 35.54,38.18 42.12,35.1 85.13,37.74 129.01,7.9 3.51,-12.29 9.21,-22.82 17.11,-31.6 7.9,-8.77 15.36,-14.92 22.38,-18.43 7.02,-3.51 19.31,-8.77 36.86,-15.8 -57.92,-5.26 -104.87,-15.35 -140.86,-30.27 -35.98,-14.92 -64.5,-33.79 -85.56,-56.61 -28.09,-31.59 -45.2,-72.84 -51.34,-123.74 -6.15,-50.9 -2.2,-97.41 11.84,-139.54 10.54,-26.33 25.45,-50.02 44.76,-71.08 -14.04,-43.88 -11.41,-93.91 7.9,-150.07 56.17,3.51 107.07,22.81 152.7,57.92 87.76,-22.82 179.03,-23.7 273.81,-2.64 12.29,-8.77 31.16,-19.74 56.61,-32.91 25.45,-13.16 57.48,-20.62 96.1,-22.38 7.02,19.31 11.84,42.13 14.48,68.46 2.63,26.33 1.31,50.9 -3.95,73.72 40.37,42.12 61.43,98.29 63.18,168.5 0,56.16 -9.65,102.68 -28.96,139.53 -19.3,36.86 -53.53,67.58 -102.67,92.15 -33.35,15.8 -77.23,25.45 -131.65,28.96 24.58,12.29 42.57,25.02 53.98,38.18 11.41,13.16 18.87,33.79 22.38,61.87l0 82.93 2.63 80.31c5.27,8.77 11.41,16.23 18.43,22.38 7.02,6.14 13.17,10.53 18.43,13.16 5.27,2.63 7.02,6.58 5.27,11.85 -1.76,5.26 -8.78,7.9 -21.07,7.9 -29.84,0 -53.53,-10.54 -71.08,-31.6 -5.27,-8.77 -7.9,-19.3 -7.9,-31.59l0 -126.38c0,-14.04 -3.51,-24.13 -10.53,-30.28 -7.02,-6.14 -14.04,-10.09 -21.06,-11.84l0 165.86c0,29.84 3.51,49.15 10.53,57.92 7.02,8.78 11.41,17.56 13.16,26.33 1.76,1.76 0.44,3.07 -3.95,3.95 -4.38,0.88 -11.84,-0.44 -22.38,-3.95 -22.81,-5.26 -38.61,-17.11 -47.39,-35.54 -8.77,-18.43 -13.16,-38.18 -13.16,-59.24l0 -163.23 -34.23 0 0 163.23c0,21.07 -4.39,41.25 -13.16,60.56 -12.29,24.57 -35.11,37.74 -68.45,39.49 -5.27,-1.75 -7.9,-3.51 -7.9,-5.26 1.75,-1.76 7.02,-10.53 15.79,-26.33 1.76,-3.51 3.95,-10.53 6.59,-21.06 2.63,-10.53 3.95,-22.82 3.95,-36.86l0 -165.87c-7.02,1.75 -13.61,5.7 -19.75,11.85 -6.14,6.14 -9.22,16.23 -9.22,30.28l0 126.37c0,12.29 -2.63,22.82 -7.89,31.59 -15.8,21.07 -39.5,31.6 -71.09,31.6 -12.28,0 -19.31,-2.63 -21.06,-7.9 -1.76,-3.51 -1.32,-6.58 1.32,-9.21 2.63,-2.64 6.58,-5.71 11.84,-9.22 5.27,-3.51 8.78,-6.15 10.54,-7.9 7.02,-5.26 12.28,-12.29 15.79,-21.06 5.27,-7.02 6.58,-25.45 3.95,-55.29 -2.63,-29.84 -3.07,-49.15 -1.32,-57.92 -45.63,15.8 -92.14,7.9 -139.54,-23.7 -14.04,-14.04 -28.08,-34.22 -42.12,-60.55 -10.53,-19.31 -31.6,-42.13 -63.19,-68.46l0 0z"/>
 </g>
</svg>
