<?xml version="1.0" encoding="UTF-8"?>
<!DOCTYPE svg PUBLIC "-//W3C//DTD SVG 1.1//EN" "http://www.w3.org/Graphics/SVG/1.1/DTD/svg11.dtd">
<!-- Creator: CorelDRAW -->
<svg xmlns="http://www.w3.org/2000/svg" xml:space="preserve" width="122px" height="122px" version="1.1" shape-rendering="geometricPrecision" text-rendering="geometricPrecision" image-rendering="optimizeQuality" fill-rule="evenodd" clip-rule="evenodd"
viewBox="0 0 126.33 126.33"
 xmlns:xlink="http://www.w3.org/1999/xlink"
 xmlns:xodm="http://www.corel.com/coreldraw/odm/2003">
 <g id="Capa_x0020_1">
  <metadata id="CorelCorpID_0Corel-Layer"/>
  <circle fill="#0D1117" cx="63.16" cy="63.16" r="63.16"/>
  <circle fill="#FEFEFE" cx="63.16" cy="63.16" r="56.87"/>
  <path fill="#151B23" fill-rule="nonzero" d="M63.16 13.4c-27.49,0 -49.76,22.27 -49.76,49.76 0,22.03 14.24,40.63 34.02,47.22 2.49,0.43 3.42,-1.06 3.42,-2.37 0,-1.18 -0.06,-5.09 -0.06,-9.27 -12.5,2.31 -15.73,-3.04 -16.73,-5.84 -0.56,-1.43 -2.98,-5.85 -5.1,-7.03 -1.74,-0.94 -4.23,-3.24 -0.06,-3.3 3.92,-0.06 6.72,3.61 7.65,5.1 4.48,7.53 11.64,5.41 14.5,4.1 0.43,-3.23 1.74,-5.4 3.17,-6.65 -11.08,-1.24 -22.64,-5.54 -22.64,-24.57 0,-5.41 1.92,-9.89 5.1,-13.37 -0.5,-1.25 -2.24,-6.35 0.49,-13.2 0,0 4.17,-1.3 13.69,5.11 3.98,-1.12 8.21,-1.68 12.44,-1.68 4.23,0 8.46,0.56 12.44,1.68 9.52,-6.47 13.69,-5.11 13.69,-5.11 2.74,6.85 0.99,11.95 0.49,13.2 3.18,3.48 5.11,7.89 5.11,13.37 0,19.09 -11.64,23.32 -22.71,24.57 1.8,1.56 3.36,4.54 3.36,9.21 0,6.65 -0.06,12 -0.06,13.68 0,1.31 0.93,2.87 3.42,2.37 19.66,-6.59 33.9,-25.26 33.9,-47.22 0,-27.49 -22.27,-49.76 -49.77,-49.76z"/>
 </g>
</svg>
