<?xml version="1.0" encoding="UTF-8"?>
<!DOCTYPE svg PUBLIC "-//W3C//DTD SVG 1.1//EN" "http://www.w3.org/Graphics/SVG/1.1/DTD/svg11.dtd">
<!-- Creator: CorelDRAW -->
<svg xmlns="http://www.w3.org/2000/svg" xml:space="preserve" width="384px" height="362px" version="1.1" shape-rendering="geometricPrecision" text-rendering="geometricPrecision" image-rendering="optimizeQuality" fill-rule="evenodd" clip-rule="evenodd"
viewBox="0 0 384.03 361.59"
 xmlns:xlink="http://www.w3.org/1999/xlink"
 xmlns:xodm="http://www.corel.com/coreldraw/odm/2003">
 <g id="Capa_x0020_1">
  <metadata id="CorelCorpID_0Corel-Layer"/>
  <g id="_1746690142976">
   <path fill="#E6E7E8" d="M364.25 11.53l-12 168 -55.28 -46.87c-60.94,27.25 -93.63,74.96 -95.35,136.78 -56.09,-84.32 -23.31,-157.5 38.94,-206.16l-37.56 -53.9 161.25 2.15 0 0zm-275.81 -11.53l45.5 0 0 61.47 -31.85 0c-13.03,0 -24.87,5.34 -33.5,13.97 -8.59,8.59 -13.93,20.47 -13.93,33.5l-0.1 143.75c0.1,13 5.47,24.84 14.07,33.47 8.62,8.62 20.5,14 33.46,14l181.32 0c12.97,0 24.84,-5.38 33.47,-14 8.62,-8.63 14,-20.47 14,-33.47l0 -21.75 53.15 0 0 35.4c0,24.28 -10,53.25 -26,69.25 -16,16 -38.16,26 -62.44,26l-207.15 0c-24.28,0 -46.44,-10 -62.44,-26 -16.03,-16.03 -26,-38.15 -26,-62.43l0.09 -184.69c-0.09,-24.34 9.88,-46.5 25.88,-62.5 16,-16 38.12,-25.97 62.47,-25.97l0 0z"/>
  </g>
 </g>
</svg>
