<?xml version="1.0" encoding="UTF-8"?>
<!DOCTYPE svg PUBLIC "-//W3C//DTD SVG 1.1//EN" "http://www.w3.org/Graphics/SVG/1.1/DTD/svg11.dtd">
<!-- Creator: CorelDRAW -->
<svg xmlns="http://www.w3.org/2000/svg" xml:space="preserve" width="474px" height="482px" version="1.1" shape-rendering="geometricPrecision" text-rendering="geometricPrecision" image-rendering="optimizeQuality" fill-rule="evenodd" clip-rule="evenodd"
viewBox="0 0 98.57 100.17"
 xmlns:xlink="http://www.w3.org/1999/xlink"
 xmlns:xodm="http://www.corel.com/coreldraw/odm/2003">
 <g id="Capa_x0020_1">
  <metadata id="CorelCorpID_0Corel-Layer"/>
  <path fill="#E6E7E8" d="M49.28 0c-27.22,0 -49.28,22.42 -49.28,50.09 0,27.66 22.06,50.08 49.28,50.08 27.22,0 49.29,-22.42 49.29,-50.08 0,-27.67 -22.07,-50.09 -49.29,-50.09zm-12.79 38.2c6.47,0 11.71,5.24 11.71,11.71 0,6.46 -5.24,11.7 -11.71,11.7 -6.46,0 -11.7,-5.24 -11.7,-11.7 0,-6.47 5.24,-11.71 11.7,-11.71zm0.18 -30.46c14.6,8.88 24.29,24.53 24.29,42.35 0,17.82 -9.69,33.46 -24.29,42.34 -14.59,-8.88 -24.29,-24.52 -24.29,-42.34 0,-17.82 9.7,-33.47 24.29,-42.35z"/>
 </g>
</svg>
