<svg xmlns="http://www.w3.org/2000/svg" width="40" height="40" fill="none"><path fill-rule="evenodd" clip-rule="evenodd" d="M.99 2.014C.64 2.7.64 3.594.64 5.387V13.28c0 1.793 0 2.689.35 3.373a3.2 3.2 0 0 0 1.398 1.399c.684.348 1.58.348 3.373.348h3.946a9.067 9.067 0 1 0 0-18.133H5.761c-1.793 0-2.689 0-3.373.349A3.2 3.2 0 0 0 .989 2.014Z" fill="#C73419"/><path fill-rule="evenodd" clip-rule="evenodd" d="M.99 23.347c-.35.685-.35 1.58-.35 3.373V34.613c0 1.793 0 2.689.35 3.373a3.2 3.2 0 0 0 1.398 1.399c.684.348 1.58.348 3.373.348h3.946a9.067 9.067 0 1 0 0-18.133H5.761c-1.793 0-2.689 0-3.373.349a3.2 3.2 0 0 0-1.399 1.398Z" fill="#F0F0F0"/><path d="M25.673 4.747c1.455-2.52 2.183-3.78 3.133-4.204a3.2 3.2 0 0 1 2.603 0c.95.423 1.677 1.683 3.132 4.204l3.372 5.84c1.455 2.52 2.183 3.78 2.074 4.814a3.2 3.2 0 0 1-1.302 2.255c-.84.61-2.296.61-5.206.61h-6.744c-2.91 0-4.365 0-5.206-.61a3.2 3.2 0 0 1-1.302-2.255c-.108-1.034.62-2.294 2.074-4.814l3.372-5.84Z" fill="#F0BA38"/><path d="M25.675 35.25c1.455 2.52 2.183 3.78 3.133 4.203a3.2 3.2 0 0 0 2.603 0c.95-.423 1.677-1.683 3.132-4.203l3.372-5.84c1.455-2.52 2.182-3.78 2.074-4.814a3.2 3.2 0 0 0-1.302-2.255c-.84-.611-2.296-.611-5.206-.611h-6.744c-2.91 0-4.365 0-5.206.611a3.2 3.2 0 0 0-1.302 2.255c-.108 1.034.62 2.294 2.074 4.814l3.372 5.84Z" fill="#1F65CF"/></svg>