<?xml version="1.0" encoding="UTF-8"?>
<!DOCTYPE svg PUBLIC "-//W3C//DTD SVG 1.1//EN" "http://www.w3.org/Graphics/SVG/1.1/DTD/svg11.dtd">
<!-- Creator: CorelDRAW -->
<svg xmlns="http://www.w3.org/2000/svg" xml:space="preserve" width="809px" height="1069px" version="1.1" shape-rendering="geometricPrecision" text-rendering="geometricPrecision" image-rendering="optimizeQuality" fill-rule="evenodd" clip-rule="evenodd"
viewBox="0 0 738.46 975.35"
 xmlns:xlink="http://www.w3.org/1999/xlink"
 xmlns:xodm="http://www.corel.com/coreldraw/odm/2003">
 <g id="Capa_x0020_1">
  <metadata id="CorelCorpID_0Corel-Layer"/>
  <path fill="#E6E6E6" fill-rule="nonzero" d="M192.62 0l-102.57 144.46 0 81.65 -89.25 42.45 -0.8 -0.37 0 532.73 347.97 164.39 21.26 10.04 21.27 -10.04 347.96 -164.39 0 -532.73 -0.66 0.3 -89.27 -42.46 0 -81.57 -3.12 -4.4 -99.45 -140.06 -102.57 144.46 0 0.14 -74.63 -105.11 -74.05 104.3 -2.65 -3.73 -99.44 -140.06zm18.14 83.91l39.67 55.87 -115.63 0 39.21 -55.21 36.75 -0.66zm353.34 0l39.68 55.87 -115.63 0 39.2 -55.21 36.75 -0.66zm-177.19 39.49l39.67 55.87 -115.62 0 39.2 -55.22 36.75 -0.65zm-263.07 44.53l54.84 0 0 184.67 -54.84 -25.91 0 -158.76zm83 0l54.56 0 0 223.74 -54.57 -25.77 0.01 -197.97zm270.35 0l54.84 0 0 197.77 -54.84 25.91 0 -223.68zm82.99 0l54.56 0 0 158.69 -54.56 25.78 0 -184.47zm-260.19 39.49l54.84 0 0 228.39 -54.84 -25.92 0 -202.47zm83 0l54.56 0 0 202.92 -54.56 25.78 0 -228.7zm265.53 60.69l48.29 19.74 -48.29 22.81 0 -42.55zm-558.47 0.08l0 42.54 -48.27 -22.81 48.27 -19.73zm-47.53 67.12l305.45 144.29 0 438.67 -305.45 -144.29 0 -438.67zm653.41 0l0 438.67 -305.43 144.29 0 -438.67 305.43 -144.29z" color="#000" writing-mode="lr-tb" text-anchor="start" display="inline" color-interpolation="sRGB" color-interpolation-filters="linearRGB" color-rendering="auto"/>
 </g>
</svg>
