<?xml version="1.0" encoding="UTF-8"?>
<!DOCTYPE svg PUBLIC "-//W3C//DTD SVG 1.1//EN" "http://www.w3.org/Graphics/SVG/1.1/DTD/svg11.dtd">
<!-- Creator: CorelDRAW -->
<svg xmlns="http://www.w3.org/2000/svg" xml:space="preserve" width="143px" height="208px" version="1.1" shape-rendering="geometricPrecision" text-rendering="geometricPrecision" image-rendering="optimizeQuality" fill-rule="evenodd" clip-rule="evenodd"
viewBox="0 0 281.55 409.24"
 xmlns:xlink="http://www.w3.org/1999/xlink"
 xmlns:xodm="http://www.corel.com/coreldraw/odm/2003">
 <g id="Capa_x0020_1">
  <metadata id="CorelCorpID_0Corel-Layer"/>
  <path fill="#EA0A2A" d="M0.44 286.37c0.76,0.47 1.9,0.55 2.25,1.46 0.33,0.83 1.84,0.93 2.27,0.9 7.62,-0.45 0.26,1.79 7.08,-2.21 12.95,-17.63 23.48,-25.24 35.96,-40.51 19.37,-23.71 100.74,-107.6 109.79,-123.94l-49.96 -46.69c-20.6,-17.33 -39.55,-40.17 -53.99,-43.01 -9.67,18.32 -45.93,216.04 -53.4,254z"/>
  <path fill="#AC0012" d="M15.28 300.4l10.13 3.49c39.07,-19.31 216.77,-61.16 241.31,-76.58 -0.65,-14.42 4.42,-2.78 -6.38,-13.9l-90.98 -80.83c-19.02,10.6 -26.35,27.33 -40.27,40.5 -10.19,9.65 -108.42,113.89 -113.81,127.32z"/>
  <path fill="#979797" d="M22.34 290.23l-3.78 -1.3 -3.51 3.21 2.3 -8.39c-2.54,1.49 0.2,0.66 -2.64,0.83 -0.16,0.01 -0.72,-0.03 -0.84,-0.34 -0.14,-0.34 -0.56,-0.37 -0.85,-0.55 -8.83,15.86 -15.21,43.68 -12.31,65.06 2.65,19.48 8.88,20.5 7.3,28.97 -2.44,13.02 6.66,7.46 14.2,13.5 28.23,22.65 68.85,22.48 100.99,7.68 15.36,-7.07 5.7,-3.03 15.46,-4.13 7.35,-0.83 7.57,-7.46 5.68,-13.47 -12.53,-6.13 -13.27,2.57 -14.74,6.83 -4.51,13.1 -59.52,21.92 -85.57,11.3 -11.05,-4.5 -14.48,-9.54 -21.6,-13.56 0.98,-6.76 1.71,-9.87 -3.56,-12.17 -7.06,-3.06 -5.23,2.12 -9.03,-7.98 -3.26,-8.68 -5.15,-17.06 -5.31,-27 -0.16,-10.28 1.51,-18.81 4.93,-27.42 3.94,-9.89 8.76,-14.3 12.88,-21.07z"/>
  <path fill="#EA0A2A" d="M178.98 10.3c6.88,13.13 13.37,16.35 22.56,23.8 11.12,9 14.44,13.03 25.31,23.64 9.54,9.29 42.75,41.47 53,42.05 1.41,-17.6 4.57,-91.25 -4.47,-97.58 -9.33,-6.54 -85.71,3.01 -96.4,8.09z"/>
  <path fill="#8C0111" d="M186.64 128.66c4.78,13.01 28.24,28.48 42.1,42.71l33.31 29.82c9.61,9.45 0.6,7.49 15.82,7.86 6.05,-25.8 2.72,-53.33 2.63,-79.74 0,-15.94 -23.26,-7.9 -40.36,-6.17 -16.17,1.65 -37.79,3.29 -53.5,5.52z"/>
  <path fill="#F8002C" d="M158.21 103.72l1.01 -93.21c-20.28,0.51 -40.71,3.49 -61.72,5.3 -30.84,2.66 -36.35,4.93 -13.92,24.08l74.63 63.83z"/>
  <path fill="#FA454E" d="M192.1 115.76l71.4 -6.29c-5.34,-14.03 -74.49,-71.05 -87.16,-83.87 -8.29,19.89 -3.51,67.64 -3.51,91.5l19.27 -1.34z"/>
  <path fill="#7E2327" d="M192.1 115.76l-19.27 1.34c0,-23.86 -4.78,-71.61 3.51,-91.5 -12.41,3.98 -7.8,78.21 -5.68,91.91 6.27,1.93 0.1,2.7 9.5,2.06 3.12,-0.21 3.28,-0.32 6.28,-1.06l5.66 -2.75z"/>
 </g>
</svg>
