<?xml version="1.0" encoding="UTF-8"?>
<!DOCTYPE svg PUBLIC "-//W3C//DTD SVG 1.1//EN" "http://www.w3.org/Graphics/SVG/1.1/DTD/svg11.dtd">
<!-- Creator: CorelDRAW -->
<svg xmlns="http://www.w3.org/2000/svg" xml:space="preserve" width="198px" height="220px" version="1.1" shape-rendering="geometricPrecision" text-rendering="geometricPrecision" image-rendering="optimizeQuality" fill-rule="evenodd" clip-rule="evenodd"
viewBox="0 0 26.39 29.36"
 xmlns:xlink="http://www.w3.org/1999/xlink"
 xmlns:xodm="http://www.corel.com/coreldraw/odm/2003">
 <g id="Capa_x0020_1">
  <metadata id="CorelCorpID_0Corel-Layer"/>
  <polygon fill="#395182" points="6.6,21.24 6.69,23.97 13.63,23.97 19.96,23.87 20.08,18.67 19.95,13.42 16.69,13.27 6.71,13.27 "/>
  <polygon fill="#00BAB8" points="0.87,21.13 6.6,21.24 6.71,13.27 6.76,5.33 0.9,5.39 "/>
  <polygon fill="#8455A3" points="6.71,13.27 16.69,13.27 16.45,5.52 26.25,5.52 6.76,5.33 "/>
  <polygon fill="#F1686A" points="16.69,13.27 19.95,13.42 26.39,13.39 26.25,5.52 16.45,5.52 "/>
  <polygon fill="#02789E" points="0,21.02 0.87,21.13 0.9,5.39 6.76,5.33 6.51,0 0,0 "/>
  <polygon fill="#158C72" points="6.82,29.36 13.36,29.36 13.63,23.97 6.69,23.97 "/>
  <polygon fill="#FBBE50" points="20.08,18.67 26.27,18.67 26.39,13.39 19.95,13.42 "/>
 </g>
</svg>
