<?xml version="1.0" encoding="UTF-8"?>
<!DOCTYPE svg PUBLIC "-//W3C//DTD SVG 1.1//EN" "http://www.w3.org/Graphics/SVG/1.1/DTD/svg11.dtd">
<!-- Creator: CorelDRAW -->
<svg xmlns="http://www.w3.org/2000/svg" xml:space="preserve" width="518px" height="573px" version="1.1" shape-rendering="geometricPrecision" text-rendering="geometricPrecision" image-rendering="optimizeQuality" fill-rule="evenodd" clip-rule="evenodd"
viewBox="0 0 1030.47 1138.4"
 xmlns:xlink="http://www.w3.org/1999/xlink"
 xmlns:xodm="http://www.corel.com/coreldraw/odm/2003">
 <g id="Capa_x0020_1">
  <metadata id="CorelCorpID_0Corel-Layer"/>
  <path fill="#AE0D41" fill-rule="nonzero" d="M795.23 752.61c5.07,-28.4 10.62,-56.66 15.23,-85.11 11.05,-68.54 -25.42,-130.43 -92.59,-145.8 -55.38,-12.69 -112.71,-16.7 -169.15,-24.9 -51.3,-7.52 -104.32,-9.58 -153.32,-24.72 -75.08,-23.24 -130.89,-70.06 -139.73,-155.89 -4.33,-41.83 6.46,-80.17 34.83,-110.22 61.3,-64.89 124.82,-127.66 187.77,-191.03 20.9,-21.02 53.71,-19.3 74.89,1.68 63.33,62.81 127.42,124.89 190.63,187.84 41.88,41.68 82.37,84.77 124.16,126.49 39.19,39.16 80.33,76.36 118.48,116.49 16.74,17.52 39.66,31.03 43.44,59.67 5.1,38.26 -23.63,54.96 -45.19,75.89 -43.35,42.12 -87.69,83.22 -131.75,124.63 -17.55,16.5 -35.42,32.7 -53.13,49.04l-4.57 -4.09 0 0.03z"/>
  <path fill="#0163AC" fill-rule="nonzero" d="M236.25 379.94c-4.4,22.89 -9.06,40.67 -10.9,58.76 -2.57,23.78 -3.93,47.86 -3.93,71.76 0,1.21 0,2.56 0,3.77 0.97,61.58 53.02,96.96 102.33,110.39 67.61,18.37 137,21.25 206.55,23.39 60.33,1.86 116.92,17.9 167.59,51.14 49.74,32.62 77.38,81.12 80.3,138.84 1.82,35.81 -15.45,70.61 -40.13,98.31 -28.62,32.07 -58.89,62.67 -89.09,93.25 -32.7,33.16 -66.1,65.77 -99.4,98.31 -13.2,12.89 -51.65,14.56 -65.04,1.63 -36.2,-35.02 -71.61,-70.94 -107.22,-106.65 -29.04,-29.04 -57.92,-58.22 -86.88,-87.33 -43.16,-43.4 -86.1,-86.99 -129.45,-130.16 -40.84,-40.67 -82.21,-80.69 -123.12,-121.24 -10.31,-9.94 -20.12,-20.66 -29.03,-31.9 -5.73,-7.66 -8.83,-16.99 -8.83,-26.57 0,-10.98 4.09,-21.59 11.44,-29.74 18.14,-20.39 38.15,-39.16 57.92,-57.99 54.11,-51.57 108.55,-102.79 166.86,-157.97l0.03 0z"/>
 </g>
</svg>
