<?xml version="1.0" encoding="UTF-8"?>
<!DOCTYPE svg PUBLIC "-//W3C//DTD SVG 1.1//EN" "http://www.w3.org/Graphics/SVG/1.1/DTD/svg11.dtd">
<!-- Creator: CorelDRAW -->
<svg xmlns="http://www.w3.org/2000/svg" xml:space="preserve" width="991px" height="993px" version="1.1" shape-rendering="geometricPrecision" text-rendering="geometricPrecision" image-rendering="optimizeQuality" fill-rule="evenodd" clip-rule="evenodd"
viewBox="0 0 1012.09 1014.81"
 xmlns:xlink="http://www.w3.org/1999/xlink"
 xmlns:xodm="http://www.corel.com/coreldraw/odm/2003">
 <g id="Capa_x0020_1">
  <metadata id="CorelCorpID_0Corel-Layer"/>
  <ellipse fill="#FEFEFE" stroke="#373435" stroke-width="2.41" stroke-miterlimit="22.9256" cx="529.98" cy="549.1" rx="409.71" ry="399.54"/>
  <path fill="#F58634" fill-rule="nonzero" d="M658.94 471.76c1.09,-23.94 1.09,-46.25 1.09,-68.56 0,-50.06 -13.06,-100.12 -46.25,-100.12 -25.03,0 -38.09,21.22 -38.09,58.22 0,60.4 41.36,97.4 83.25,110.46zm-150.18 378.17c-153.99,0 -168.68,-138.2 -168.68,-280.77 0,-137.12 -10.34,-167.59 -58.22,-167.59l-69.65 0 0 -90.33 69.65 0c133.31,0 150.18,110.46 150.18,258.47 0,140.93 10.34,188.27 75.09,188.27 68.56,0 115.9,-110.46 138.21,-200.24 -99.58,-23.95 -161.61,-95.23 -161.61,-198.07 0,-81.62 52.79,-149.09 131.68,-149.09 87.06,0 135.49,83.25 135.49,192.62 0,27.75 -1.09,53.87 -2.72,74l102.84 0 0 90.87 -117.53 0c-27.21,138.21 -103.38,281.86 -224.73,281.86zm-2.72 164.88c355.86,0 506.05,-225.27 506.05,-503.33 0,-383.61 -174.13,-511.48 -403.21,-511.48 -295.46,0 -608.88,242.68 -608.88,511.48 0,278.06 226.9,503.33 506.04,503.33z"/>
 </g>
</svg>
