<?xml version="1.0" encoding="UTF-8"?>
<!DOCTYPE svg PUBLIC "-//W3C//DTD SVG 1.1//EN" "http://www.w3.org/Graphics/SVG/1.1/DTD/svg11.dtd">
<!-- Creator: CorelDRAW X6 -->
<svg xmlns="http://www.w3.org/2000/svg" xml:space="preserve" width="175.13mm" height="89.16mm" version="1.1" shape-rendering="geometricPrecision" text-rendering="geometricPrecision" image-rendering="optimizeQuality" fill-rule="evenodd" clip-rule="evenodd"
viewBox="0 0 17513 8916"
 xmlns:xlink="http://www.w3.org/1999/xlink">
 <defs>
    <clipPath id="id0">
     <path d="M6045 2l-1926 0 -1905 7472 1884 0 1947 -7472z"/>
    </clipPath>
   <clipPath id="id1">
    <path d="M6045 2l-1926 0 -1905 7472 1884 0 1947 -7472z"/>
   </clipPath>
   <linearGradient id="id2" gradientUnits="userSpaceOnUse" x1="6639.2" y1="6208.72" x2="8791.48" y2="3069.96">
    <stop offset="0" stop-color="#F04D3E"/>
    <stop offset="0.439216" stop-color="#F27142"/>
    <stop offset="1" stop-color="#F59646"/>
   </linearGradient>
   <clipPath id="id3">
    <path d="M7546 2470l1811 -1 -1297 3954 -1863 0 1349 -3953z"/>
   </clipPath>
   <linearGradient id="id4" gradientUnits="userSpaceOnUse" x1="9218.93" y1="6451.62" x2="10285.5" y2="4194">
    <stop offset="0" stop-color="#F04D3E"/>
    <stop offset="0.619608" stop-color="#F27142"/>
    <stop offset="1" stop-color="#F59646"/>
   </linearGradient>
   <clipPath id="id5">
    <path d="M9665 2468l1736 0 -1334 3958 -1672 0 1270 -3958z"/>
   </clipPath>
   <linearGradient id="id6" gradientUnits="userSpaceOnUse" x1="13540.1" y1="2047.77" x2="11863.6" y2="5427.45">
    <stop offset="0" stop-color="#F04D3E"/>
    <stop offset="0.588235" stop-color="#F27142"/>
    <stop offset="1" stop-color="#F59646"/>
   </linearGradient>
   <clipPath id="id7">
    <path d="M11756 2483l1947 0 -1312 3937 -1863 0 1228 -3937z"/>
   </clipPath>
   <linearGradient id="id8" gradientUnits="userSpaceOnUse" x1="13785.3" y1="9111.8" x2="16325.8" y2="5180.24">
    <stop offset="0" stop-color="#F04D3E"/>
    <stop offset="0.588235" stop-color="#F27142"/>
    <stop offset="1" stop-color="#F59646"/>
   </linearGradient>
   <clipPath id="id9">
    <path d="M15138 4050l2082 0 -343 612 -1197 4228 -1919 0 1377 -4840z"/>
   </clipPath>
   <linearGradient id="id10" gradientUnits="userSpaceOnUse" x1="4405.15" y1="1674.08" x2="7122.35" y2="5706.04">
    <stop offset="0" stop-color="#F59549"/>
    <stop offset="0.490196" stop-color="#F37144"/>
    <stop offset="1" stop-color="#F04D3E"/>
   </linearGradient>
   <clipPath id="id11">
    <path d="M4119 2l1926 0 2014 6421 -1863 0 -2077 -6421z"/>
   </clipPath>
   <linearGradient id="id12" gradientUnits="userSpaceOnUse" x1="1543.61" y1="2785.53" x2="3972.54" y2="6203.22">
    <stop offset="0" stop-color="#F59549"/>
    <stop offset="0.490196" stop-color="#F37144"/>
    <stop offset="1" stop-color="#F04D3E"/>
   </linearGradient>
   <clipPath id="id13">
    <path d="M144 1208l2381 5 1573 6260 -1884 0 -1578 -5668 -492 -598z"/>
   </clipPath>
   <linearGradient id="id14" gradientUnits="userSpaceOnUse" x1="13059" y1="4313.41" x2="15258.2" y2="7493.04">
    <stop offset="0" stop-color="#F59646"/>
    <stop offset="0.490196" stop-color="#F37242"/>
    <stop offset="1" stop-color="#F04D3E"/>
   </linearGradient>
   <clipPath id="id15">
    <path d="M13691 2455l-1934 27 1998 6407 1926 0 -1990 -6435z"/>
   </clipPath>
   <linearGradient id="id16" gradientUnits="userSpaceOnUse" x1="9495.5" y1="6493.88" x2="8765.98" y2="7828.8">
    <stop offset="0" stop-color="#F59549"/>
    <stop offset="1" stop-color="#F04D3E"/>
   </linearGradient>
   <linearGradient id="id17" gradientUnits="userSpaceOnUse" x1="10839.7" y1="2590.92" x2="10977.3" y2="1524.78">
    <stop offset="0" stop-color="#F04D3E"/>
    <stop offset="0.588235" stop-color="#F27142"/>
    <stop offset="1" stop-color="#F59646"/>
   </linearGradient>
   <clipPath id="id18">
    <path d="M11956 1209l-1738 0 -506 1095 1754 0 490 -1095z"/>
   </clipPath>
 </defs>
 <g id="Capa_x0020_1">
  <metadata id="CorelCorpID_0Corel-Layer"/>
  <g>
   <g clip-path="url(#id0)">
    <polygon fill="#F04D3E" points="-2323,4681 3267,-3094 11043,2496 5452,10272 -2323,4681 -2056,4637 3311,-2827 10775,2540 5408,10004 -2056,4637 "/>
    <polygon id="1" fill="#F04E3E" points="-2190,4659 3289,-2961 10909,2518 5430,10138 -2190,4659 -1922,4616 3333,-2693 10642,2562 5387,9871 -1922,4616 "/>
    <polygon id="2" fill="#F0503E" points="-2056,4637 3311,-2827 10775,2540 5408,10004 -2056,4637 -1789,4594 3355,-2560 10508,2583 5365,9737 -1789,4594 "/>
    <polygon id="3" fill="#F0523E" points="-1922,4616 3333,-2693 10642,2562 5387,9871 -1922,4616 -1655,4572 3376,-2426 10374,2605 5343,9603 -1655,4572 "/>
    <polygon id="4" fill="#F0543F" points="-1789,4594 3355,-2560 10508,2583 5365,9737 -1789,4594 -1521,4550 3398,-2292 10241,2627 5321,9470 -1521,4550 "/>
    <polygon id="5" fill="#F0563F" points="-1655,4572 3376,-2426 10374,2605 5343,9603 -1655,4572 -1388,4528 3420,-2159 10107,2649 5299,9336 -1388,4528 "/>
    <polygon id="6" fill="#F0573F" points="-1521,4550 3398,-2292 10241,2627 5321,9470 -1521,4550 -1254,4506 3442,-2025 9973,2671 5277,9202 -1254,4506 "/>
    <polygon id="7" fill="#F0593F" points="-1388,4528 3420,-2159 10107,2649 5299,9336 -1388,4528 -1120,4484 3464,-1891 9840,2693 5256,9069 -1120,4484 "/>
    <polygon id="8" fill="#F15B40" points="-1254,4506 3442,-2025 9973,2671 5277,9202 -1254,4506 -987,4463 3486,-1758 9706,2715 5234,8935 -987,4463 "/>
    <polygon id="9" fill="#F15D40" points="-1120,4484 3464,-1891 9840,2693 5256,9069 -1120,4484 -853,4441 3508,-1624 9572,2736 5212,8801 -853,4441 "/>
    <polygon id="10" fill="#F15F40" points="-987,4463 3486,-1758 9706,2715 5234,8935 -987,4463 -719,4419 3529,-1490 9439,2758 5190,8668 -719,4419 "/>
    <polygon id="11" fill="#F16041" points="-853,4441 3508,-1624 9572,2736 5212,8801 -853,4441 -586,4397 3551,-1357 9305,2780 5168,8534 -586,4397 "/>
    <polygon id="12" fill="#F16241" points="-719,4419 3529,-1490 9439,2758 5190,8668 -719,4419 -452,4375 3573,-1223 9171,2802 5146,8400 -452,4375 "/>
    <polygon id="13" fill="#F16441" points="-586,4397 3551,-1357 9305,2780 5168,8534 -586,4397 -318,4353 3595,-1089 9038,2824 5124,8267 -318,4353 "/>
    <polygon id="14" fill="#F16641" points="-452,4375 3573,-1223 9171,2802 5146,8400 -452,4375 -185,4331 3617,-956 8904,2846 5103,8133 -185,4331 "/>
    <polygon id="15" fill="#F16842" points="-318,4353 3595,-1089 9038,2824 5124,8267 -318,4353 -51,4310 3639,-822 8770,2868 5081,7999 -51,4310 "/>
    <polygon id="16" fill="#F26942" points="-185,4331 3617,-956 8904,2846 5103,8133 -185,4331 83,4288 3661,-688 8637,2889 5059,7866 83,4288 "/>
    <polygon id="17" fill="#F26B42" points="-51,4310 3639,-822 8770,2868 5081,7999 -51,4310 216,4266 3682,-555 8503,2911 5037,7732 216,4266 "/>
    <polygon id="18" fill="#F26D42" points="83,4288 3661,-689 8637,2889 5059,7866 83,4288 350,4244 3704,-421 8369,2933 5015,7598 350,4244 "/>
    <polygon id="19" fill="#F26F43" points="216,4266 3682,-555 8503,2911 5037,7732 216,4266 484,4222 3726,-288 8236,2955 4993,7465 484,4222 "/>
    <polygon id="20" fill="#F27143" points="350,4244 3704,-421 8369,2933 5015,7598 350,4244 617,4200 3748,-154 8102,2977 4972,7331 617,4200 "/>
    <polygon id="21" fill="#F27243" points="484,4222 3726,-288 8236,2955 4993,7465 484,4222 751,4179 3770,-20 7968,2999 4950,7197 751,4179 "/>
    <polygon id="22" fill="#F27343" points="617,4200 3748,-154 8102,2977 4972,7331 617,4200 885,4157 3792,113 7835,3020 4928,7064 885,4157 "/>
    <polygon id="23" fill="#F27444" points="751,4179 3770,-20 7968,2999 4950,7197 751,4179 1018,4135 3813,247 7701,3042 4906,6930 1018,4135 "/>
    <polygon id="24" fill="#F27544" points="885,4157 3792,113 7835,3020 4928,7064 885,4157 1152,4113 3835,381 7568,3064 4884,6796 1152,4113 "/>
    <polygon id="25" fill="#F27744" points="1018,4135 3813,247 7701,3042 4906,6930 1018,4135 1286,4091 3857,514 7434,3086 4862,6663 1286,4091 "/>
    <polygon id="26" fill="#F37844" points="1152,4113 3835,381 7568,3064 4884,6796 1152,4113 1419,4069 3879,648 7300,3108 4840,6529 1419,4069 "/>
    <polygon id="27" fill="#F37944" points="1286,4091 3857,514 7434,3086 4862,6663 1286,4091 1553,4047 3901,782 7167,3130 4819,6395 1553,4047 "/>
    <polygon id="28" fill="#F37A45" points="1419,4069 3879,648 7300,3108 4840,6529 1419,4069 1687,4026 3923,915 7033,3152 4797,6262 1687,4026 "/>
    <polygon id="29" fill="#F37C45" points="1553,4047 3901,782 7167,3130 4819,6395 1553,4047 1820,4004 3945,1049 6899,3173 4775,6128 1820,4004 "/>
    <polygon id="30" fill="#F37D45" points="1687,4026 3923,915 7033,3152 4797,6262 1687,4026 1954,3982 3966,1183 6766,3195 4753,5994 1954,3982 "/>
    <polygon id="31" fill="#F37E45" points="1820,4004 3945,1049 6899,3173 4775,6128 1820,4004 2088,3960 3988,1316 6632,3217 4731,5861 2088,3960 "/>
    <polygon id="32" fill="#F37F45" points="1954,3982 3966,1183 6766,3195 4753,5994 1954,3982 2221,3938 4010,1450 6498,3239 4709,5727 2221,3938 "/>
    <polygon id="33" fill="#F38145" points="2088,3960 3988,1316 6632,3217 4731,5861 2088,3960 2355,3916 4032,1584 6365,3261 4687,5593 2355,3916 "/>
    <polygon id="34" fill="#F38246" points="2221,3938 4010,1450 6498,3239 4709,5727 2221,3938 2489,3894 4054,1717 6231,3283 4666,5460 2489,3894 "/>
    <polygon id="35" fill="#F38346" points="2355,3916 4032,1584 6365,3261 4687,5593 2355,3916 2622,3873 4076,1851 6097,3305 4644,5326 2622,3873 "/>
    <polygon id="36" fill="#F38446" points="2489,3894 4054,1717 6231,3283 4666,5460 2489,3894 2756,3851 4098,1985 5964,3326 4622,5192 2756,3851 "/>
    <polygon id="37" fill="#F38646" points="2622,3873 4076,1851 6097,3305 4644,5326 2622,3873 2889,3829 4119,2118 5830,3348 4600,5059 2889,3829 "/>
    <polygon id="38" fill="#F48746" points="2756,3851 4098,1985 5964,3326 4622,5192 2756,3851 3023,3807 4141,2252 5696,3370 4578,4925 3023,3807 "/>
    <polygon id="39" fill="#F48847" points="2889,3829 4119,2118 5830,3348 4600,5059 2889,3829 3157,3785 4163,2386 5563,3392 4556,4791 3157,3785 "/>
    <polygon id="40" fill="#F48947" points="3023,3807 4141,2252 5696,3370 4578,4925 3023,3807 3290,3763 4185,2519 5429,3414 4535,4658 3290,3763 "/>
    <polygon id="41" fill="#F48B47" points="3157,3785 4163,2386 5563,3392 4556,4791 3157,3785 3424,3742 4207,2653 5295,3436 4513,4524 3424,3742 "/>
    <polygon id="42" fill="#F48C47" points="3290,3763 4185,2519 5429,3414 4535,4658 3290,3763 3558,3720 4229,2787 5162,3457 4491,4391 3558,3720 "/>
    <polygon id="43" fill="#F48D47" points="3424,3742 4207,2653 5295,3436 4513,4524 3424,3742 3691,3698 4250,2920 5028,3479 4469,4257 3691,3698 "/>
    <polygon id="44" fill="#F48E48" points="3558,3720 4229,2787 5162,3457 4491,4391 3558,3720 3825,3676 4272,3054 4894,3501 4447,4123 3825,3676 "/>
    <polygon id="45" fill="#F49048" points="3691,3698 4250,2920 5028,3479 4469,4257 3691,3698 3959,3654 4294,3188 4761,3523 4425,3990 3959,3654 "/>
    <polygon id="46" fill="#F49148" points="3825,3676 4272,3054 4894,3501 4447,4123 3825,3676 4092,3632 4316,3321 4627,3545 4403,3856 4092,3632 "/>
    <polygon id="47" fill="#F49248" points="3959,3654 4294,3188 4761,3523 4425,3990 3959,3654 4226,3610 4338,3455 4493,3567 4382,3722 4226,3610 "/>
    <polygon id="48" fill="#F49348" points="4092,3632 4316,3321 4627,3545 4403,3856 4092,3632 4360,3589 4360,3589 4360,3589 4360,3589 4360,3589 "/>
    <polygon id="49" fill="#F59549" points="4226,3610 4338,3455 4493,3567 4382,3722 4226,3610 "/>
   </g>
  </g>
  <g clip-path="url(#id1)">
   <g>
    <path id="50" fill="white" fill-opacity="0.129412" d="M22425 5714c-9811,-28 -25863,212 -26193,-4700 -330,-4912 1213,-2921 1213,-2921l26755 3872 -1775 3749z"/>
   </g>
  </g>
  <polygon fill="none" points="6045,2 4119,2 2214,7474 4098,7474 "/>
  <polygon fill="url(#id2)" points="7546,2470 9356,2469 8059,6423 6197,6423 "/>
  <g clip-path="url(#id3)">
   <g>
    <path id="1" fill="white" fill-opacity="0.129412" d="M22425 5714c-9811,-28 -25863,212 -26193,-4700 -330,-4912 1213,-2921 1213,-2921l26755 3872 -1775 3749z"/>
   </g>
  </g>
  <polygon fill="none" points="7546,2470 9356,2469 8059,6423 6197,6423 "/>
  <polygon fill="url(#id4)" points="9665,2468 11401,2468 10067,6426 8395,6426 "/>
  <g clip-path="url(#id5)">
   <g>
    <path id="1" fill="white" fill-opacity="0.129412" d="M22425 5714c-9811,-28 -25863,212 -26193,-4700 -330,-4912 1213,-2921 1213,-2921l26755 3872 -1775 3749z"/>
   </g>
  </g>
  <polygon fill="none" points="9665,2468 11401,2468 10067,6426 8395,6426 "/>
  <polygon fill="url(#id6)" points="11756,2483 13704,2483 12391,6420 10529,6420 "/>
  <g clip-path="url(#id7)">
   <g>
    <path id="1" fill="white" fill-opacity="0.129412" d="M22425 5714c-9811,-28 -25863,212 -26193,-4700 -330,-4912 1213,-2921 1213,-2921l26755 3872 -1775 3749z"/>
   </g>
  </g>
  <polygon fill="none" points="11756,2483 13704,2483 12391,6420 10529,6420 "/>
  <polygon fill="url(#id8)" points="15138,4050 17220,4050 16877,4662 15680,8890 13761,8890 "/>
  <g clip-path="url(#id9)">
   <g>
    <path id="1" fill="white" fill-opacity="0.129412" d="M22425 5714c-9811,-28 -25863,212 -26193,-4700 -330,-4912 1213,-2921 1213,-2921l26755 3872 -1775 3749z"/>
   </g>
  </g>
  <polygon fill="none" points="15138,4050 17220,4050 16877,4662 15680,8890 13761,8890 "/>
  <polygon fill="url(#id10)" points="4119,2 6045,2 8059,6423 6197,6423 "/>
  <g clip-path="url(#id11)">
   <g>
    <path id="1" fill="white" fill-opacity="0.129412" d="M22425 5714c-9811,-28 -25863,212 -26193,-4700 -330,-4912 1213,-2921 1213,-2921l26755 3872 -1775 3749z"/>
   </g>
  </g>
  <polygon fill="none" points="4119,2 6045,2 8059,6423 6197,6423 "/>
  <polygon fill="url(#id12)" points="144,1208 2525,1214 4098,7474 2214,7474 636,1806 "/>
  <g clip-path="url(#id13)">
   <g>
    <path id="1" fill="white" fill-opacity="0.129412" d="M22425 5714c-9811,-28 -25863,212 -26193,-4700 -330,-4912 1213,-2921 1213,-2921l26755 3872 -1775 3749z"/>
   </g>
  </g>
  <polygon fill="none" points="144,1208 2525,1214 4098,7474 2214,7474 636,1806 "/>
  <polygon fill="url(#id14)" points="13691,2455 11756,2483 13754,8890 15680,8890 "/>
  <g clip-path="url(#id15)">
   <g>
    <path id="1" fill="white" fill-opacity="0.129412" d="M22425 5714c-9811,-28 -25863,212 -26193,-4700 -330,-4912 1213,-2921 1213,-2921l26755 3872 -1775 3749z"/>
   </g>
  </g>
  <polygon fill="none" points="13691,2455 11756,2483 13754,8890 15680,8890 "/>
  <polygon fill="url(#id16)" points="12073,7765 5829,7765 6189,6558 12433,6558 "/>
  <path fill="white" fill-rule="nonzero" d="M6898 7272c3,-21 -2,-37 -16,-50 -13,-12 -41,-24 -83,-33 -58,-13 -101,-31 -130,-54 -29,-23 -40,-54 -35,-92 6,-43 28,-78 67,-107 39,-28 86,-42 142,-42 55,0 98,16 131,47 32,31 45,67 38,108l-1 3 -88 0c3,-22 -4,-42 -20,-60 -16,-17 -39,-26 -69,-26 -31,0 -56,7 -75,22 -19,15 -30,32 -32,52 -3,21 2,36 14,47 12,11 39,20 82,29 60,13 104,31 133,55 29,24 40,55 35,93 -7,46 -30,83 -69,111 -40,28 -89,41 -148,41 -62,0 -109,-17 -143,-49 -34,-33 -47,-71 -39,-114l1 -3 88 0c-3,33 6,56 27,71 21,15 46,23 76,23 31,0 58,-7 78,-21 21,-14 33,-32 36,-53z"/>
  <path id="1" fill="white" fill-rule="nonzero" d="M8035 7174c-11,76 -38,135 -78,178 -41,43 -92,65 -154,65 -30,0 -56,-6 -78,-17 -22,-11 -40,-27 -53,-49l-37 249 -92 0 104 -698 70 0 5 65c20,-24 43,-43 70,-55 26,-13 56,-19 89,-19 60,0 104,25 132,75 28,50 36,115 25,195l-1 10zm-90 -10c9,-59 5,-107 -12,-143 -17,-36 -48,-54 -92,-54 -25,0 -48,6 -69,18 -21,12 -39,29 -54,50l-36 242c9,21 21,37 38,49 17,12 39,17 66,17 42,0 76,-16 105,-48 28,-32 46,-73 53,-123l1 -10z"/>
  <path id="2" fill="white" fill-rule="nonzero" d="M8619 7151c11,-77 41,-139 88,-186 47,-47 106,-70 175,-70 67,0 118,24 153,73 34,49 46,110 36,184l-2 10c-12,78 -41,140 -88,186 -47,46 -105,70 -175,70 -67,0 -118,-24 -153,-73 -35,-48 -46,-110 -35,-183l2 -10zm90 10c-8,55 -4,100 14,134 17,34 48,51 93,51 42,0 77,-17 106,-53 29,-35 47,-79 55,-132l2 -10c8,-55 3,-99 -14,-133 -17,-34 -48,-51 -93,-51 -42,0 -78,18 -107,53 -29,36 -47,79 -54,131l-2 10z"/>
  <path id="3" fill="white" fill-rule="nonzero" d="M9933 6984l-47 -3c-24,0 -45,6 -63,18 -18,12 -34,29 -47,51l-54 357 -92 0 75 -504 82 0 -2 71c18,-25 38,-45 62,-59 23,-14 48,-21 76,-21 7,0 13,1 19,2 6,1 11,2 15,4l-26 85z"/>
  <path id="4" fill="white" fill-rule="nonzero" d="M10683 6782l-18 122 96 0 -10 68 -96 0 -46 306c-4,24 -1,41 7,50 8,9 21,14 37,14 5,0 11,-1 18,-2 7,-1 13,-3 17,-4l3 63c-8,6 -19,10 -32,14 -14,4 -27,5 -40,5 -36,0 -64,-11 -83,-34 -19,-23 -25,-58 -18,-106l46 -306 -80 0 10 -68 80 0 18 -122 92 0z"/>
  <path id="5" fill="white" fill-rule="nonzero" d="M11585 7272c3,-21 -2,-37 -16,-50 -13,-12 -41,-24 -83,-33 -58,-13 -101,-31 -130,-54 -29,-23 -40,-54 -35,-92 6,-43 28,-78 67,-107 39,-28 86,-42 142,-42 55,0 98,16 131,47 32,31 45,67 38,108l-1 3 -88 0c3,-22 -4,-42 -20,-60 -16,-17 -39,-26 -69,-26 -31,0 -56,7 -75,22 -19,15 -30,32 -32,52 -3,21 2,36 14,47 12,11 39,20 82,29 60,13 104,31 133,55 29,24 40,55 35,93 -7,46 -30,83 -69,111 -40,28 -89,41 -148,41 -62,0 -109,-17 -143,-49 -34,-33 -47,-71 -39,-114l1 -3 88 0c-3,33 6,56 27,71 21,15 46,23 76,23 31,0 58,-7 78,-21 21,-14 33,-32 36,-53z"/>
  <polygon fill="url(#id17)" points="11956,1209 10219,1209 9713,2304 11466,2304 "/>
  <g clip-path="url(#id18)">
   <g>
    <path id="1" fill="white" fill-opacity="0.129412" d="M22425 5714c-9811,-28 -25863,212 -26193,-4700 -330,-4912 1213,-2921 1213,-2921l26755 3872 -1775 3749z"/>
   </g>
  </g>
  <polygon fill="none" points="11956,1209 10219,1209 9713,2304 11466,2304 "/>
 </g>
</svg>
